{"glyphs":{"0":{"ha":833,"x_min":61,"x_max":797,"o":"m 407 -11 q 149 101 238 -11 q 61 426 61 213 q 108 730 61 603 q 241 924 154 857 q 450 990 328 990 q 708 878 619 990 q 797 553 797 767 q 751 249 797 376 q 617 56 704 122 q 407 -11 529 -11 m 413 154 q 542 264 497 154 q 588 583 588 374 q 553 767 588 708 q 446 825 519 825 q 316 715 361 825 q 271 396 271 604 q 306 213 271 271 q 413 154 340 154 z "},"1":{"ha":833,"x_min":106,"x_max":785,"o":"m 690 174 q 785 92 785 174 q 758 22 785 44 q 676 0 732 0 l 201 0 q 106 81 106 0 q 132 151 106 128 q 214 174 158 174 l 344 174 l 389 732 l 282 672 q 233 658 258 658 q 173 687 197 658 q 149 751 149 715 q 192 825 149 800 l 422 956 q 522 985 476 985 q 594 957 568 985 q 617 881 621 929 l 561 174 l 690 174 z "},"2":{"ha":835,"x_min":51,"x_max":765,"o":"m 671 174 q 742 153 718 174 q 765 96 765 133 q 739 24 765 47 q 657 0 713 0 l 140 0 q 75 23 99 0 q 51 82 51 46 q 100 182 51 135 l 432 504 q 553 714 553 621 q 520 794 553 767 q 426 822 488 822 q 225 758 328 822 q 168 740 194 740 q 116 763 136 740 q 96 817 96 785 q 110 866 96 842 q 151 910 124 890 q 287 970 210 949 q 447 992 364 992 q 680 917 594 992 q 765 715 765 843 q 724 562 765 635 q 585 397 683 489 l 353 174 l 671 174 z "},"3":{"ha":833,"x_min":31,"x_max":765,"o":"m 590 500 q 710 423 667 476 q 754 290 754 369 q 710 135 754 203 q 581 28 665 67 q 379 -11 496 -11 q 201 13 283 -11 q 74 67 119 36 q 31 144 31 94 q 53 207 31 181 q 111 233 76 233 q 156 222 135 233 q 269 174 217 190 q 382 158 322 158 q 506 192 464 158 q 549 290 549 226 q 508 382 549 353 q 386 411 468 411 l 307 411 q 255 434 275 411 q 235 494 235 457 q 260 556 235 532 q 325 579 286 579 l 379 579 q 510 613 465 579 q 556 713 556 647 q 521 794 556 765 q 419 822 486 822 q 225 758 328 822 q 168 740 194 740 q 116 763 136 740 q 96 817 96 785 q 110 866 96 842 q 151 910 124 890 q 287 970 210 949 q 446 992 364 992 q 612 960 539 992 q 725 873 685 929 q 765 743 765 817 q 720 594 765 657 q 590 500 675 532 z "},"4":{"ha":833,"x_min":25,"x_max":818,"o":"m 724 344 q 797 324 775 344 q 818 263 818 304 q 790 201 818 222 q 710 179 763 179 l 660 179 l 653 99 q 617 19 649 46 q 539 -8 586 -8 q 465 19 492 -8 q 442 100 438 47 l 449 179 l 111 179 q 47 203 69 179 q 25 263 25 226 q 57 350 25 308 l 514 939 q 559 974 532 963 q 614 986 586 986 q 688 958 658 986 q 714 881 718 931 l 672 344 l 724 344 m 461 344 l 485 649 l 251 344 l 461 344 z "},"5":{"ha":833,"x_min":53,"x_max":804,"o":"m 486 633 q 642 597 574 633 q 748 494 710 560 q 786 344 786 429 q 683 84 786 179 q 403 -11 581 -11 q 233 15 315 -11 q 92 88 150 42 q 53 158 53 118 q 80 219 53 193 q 144 244 107 244 q 201 228 172 244 q 311 175 263 192 q 404 158 360 158 q 534 201 486 158 q 582 321 582 244 q 539 429 582 390 q 419 468 496 468 q 339 458 372 468 q 253 417 306 447 q 194 400 224 400 q 138 421 160 400 q 119 474 117 442 l 153 878 q 184 953 156 926 q 261 979 213 979 l 708 979 q 804 903 804 979 q 775 838 804 861 q 696 814 746 814 l 358 814 l 342 601 q 486 633 404 633 z "},"6":{"ha":833,"x_min":60,"x_max":825,"o":"m 506 822 q 351 747 408 822 q 278 525 293 671 q 369 604 313 575 q 492 633 426 633 q 642 595 576 633 q 745 489 708 557 q 782 333 782 421 q 738 156 782 235 q 617 32 694 76 q 443 -12 540 -12 q 160 101 260 -12 q 60 422 60 214 q 113 724 60 596 q 267 922 167 853 q 507 992 368 992 q 669 969 590 992 q 782 913 747 946 q 825 831 825 883 q 804 771 825 796 q 751 746 783 746 q 703 760 729 746 q 506 822 600 822 m 438 468 q 330 423 371 468 q 289 304 289 378 q 329 197 289 239 q 435 156 369 156 q 539 202 499 156 q 579 322 579 249 q 540 428 579 388 q 438 468 501 468 z "},"7":{"ha":833,"x_min":90,"x_max":831,"o":"m 749 979 q 810 958 789 979 q 831 901 831 936 q 803 811 831 858 l 350 53 q 303 3 331 19 q 246 -14 275 -14 q 181 11 207 -14 q 154 75 154 36 q 174 140 154 107 l 572 806 l 186 806 q 113 826 135 806 q 90 888 90 847 q 197 979 90 979 l 749 979 z "},"8":{"ha":833,"x_min":33,"x_max":800,"o":"m 631 501 q 789 278 789 449 q 741 126 789 192 q 606 25 693 61 q 403 -11 518 -11 q 132 62 231 -11 q 33 261 33 135 q 85 416 33 351 q 228 506 138 481 q 128 588 163 535 q 94 714 94 642 q 192 917 94 842 q 454 992 289 992 q 710 925 619 992 q 800 736 800 858 q 753 593 800 657 q 631 501 707 529 m 454 826 q 338 794 378 826 q 299 699 299 763 q 337 610 299 642 q 443 578 375 578 q 556 612 517 578 q 596 710 596 646 q 454 826 596 826 m 406 154 q 540 189 494 154 q 586 290 586 224 q 546 382 586 351 q 421 413 506 413 q 236 278 236 413 q 279 187 236 219 q 406 154 322 154 z "},"9":{"ha":833,"x_min":32,"x_max":797,"o":"m 414 992 q 697 878 597 992 q 797 557 797 765 q 744 255 797 383 q 590 57 690 126 q 350 -12 489 -12 q 189 11 267 -12 q 75 67 111 35 q 32 147 32 96 q 53 208 32 182 q 106 235 74 235 q 154 219 126 235 q 351 157 257 157 q 507 233 449 157 q 579 454 565 308 q 488 375 544 404 q 365 346 431 346 q 215 384 281 346 q 112 490 149 422 q 75 646 75 558 q 119 824 75 744 q 240 947 163 903 q 414 992 317 992 m 419 511 q 527 556 486 511 q 568 675 568 601 q 528 782 568 740 q 422 824 488 824 q 318 777 358 824 q 278 657 278 731 q 317 551 278 592 q 419 511 356 511 z "},"\u0000":{"ha":0,"x_min":0,"x_max":0,"o":""},"\r":{"ha":388,"x_min":0,"x_max":0,"o":""}," ":{"ha":388,"x_min":0,"x_max":0,"o":""},"A":{"ha":1043,"x_min":15,"x_max":994,"o":"m 988 122 q 994 88 994 101 q 962 20 994 47 q 888 -7 929 -7 q 838 8 860 -7 q 804 53 815 22 l 746 217 l 289 217 l 206 53 q 166 9 190 24 q 114 -6 142 -6 q 45 19 75 -6 q 15 83 15 44 q 29 132 15 106 l 454 919 q 504 971 472 953 q 572 989 536 989 q 639 971 608 989 q 682 919 669 953 l 988 122 m 689 381 l 558 747 l 372 381 l 689 381 z "},"Á":{"ha":1043,"x_min":15,"x_max":994,"o":"m 988 122 q 994 88 994 101 q 962 20 994 47 q 888 -7 929 -7 q 838 8 860 -7 q 804 53 815 22 l 746 217 l 289 217 l 206 53 q 166 9 190 24 q 114 -6 142 -6 q 45 19 75 -6 q 15 83 15 44 q 29 132 15 106 l 454 919 q 504 971 472 953 q 572 989 536 989 q 639 971 608 989 q 682 919 669 953 l 988 122 m 689 381 l 558 747 l 372 381 l 689 381 m 653 1076 q 607 1057 632 1057 q 572 1070 586 1057 q 557 1103 557 1083 q 569 1138 557 1119 l 650 1254 q 710 1288 674 1288 q 760 1267 738 1288 q 782 1219 782 1246 q 757 1169 782 1193 l 653 1076 z "},"Ă":{"ha":1043,"x_min":15,"x_max":994,"o":"m 988 122 q 994 88 994 101 q 962 20 994 47 q 888 -7 929 -7 q 838 8 860 -7 q 804 53 815 22 l 746 217 l 289 217 l 206 53 q 166 9 190 24 q 114 -6 142 -6 q 45 19 75 -6 q 15 83 15 44 q 29 132 15 106 l 454 919 q 504 971 472 953 q 572 989 536 989 q 639 971 608 989 q 682 919 669 953 l 988 122 m 689 381 l 558 747 l 372 381 l 689 381 m 588 1075 q 453 1103 510 1075 q 365 1181 396 1131 q 354 1215 354 1197 q 371 1252 354 1238 q 410 1267 388 1267 q 460 1244 438 1267 q 592 1199 508 1199 q 665 1210 629 1199 q 724 1244 700 1222 q 778 1267 750 1267 q 813 1254 799 1267 q 826 1222 826 1242 q 811 1181 826 1201 q 718 1103 775 1132 q 588 1075 661 1075 z "},"Ắ":{"ha":1043,"x_min":15,"x_max":994,"o":"m 988 122 q 994 88 994 101 q 962 20 994 47 q 888 -7 929 -7 q 838 8 860 -7 q 804 53 815 22 l 746 217 l 289 217 l 206 53 q 166 9 190 24 q 114 -6 142 -6 q 45 19 75 -6 q 15 83 15 44 q 29 132 15 106 l 454 919 q 504 971 472 953 q 572 989 536 989 q 639 971 608 989 q 682 919 669 953 l 988 122 m 689 381 l 558 747 l 372 381 l 689 381 m 653 1217 q 617 1203 635 1203 q 585 1215 597 1203 q 572 1244 572 1226 q 582 1272 572 1258 l 665 1389 q 718 1419 688 1419 q 765 1400 744 1419 q 786 1354 786 1381 q 761 1308 786 1329 l 653 1217 m 588 1056 q 450 1084 507 1056 q 364 1163 393 1113 q 354 1194 354 1178 q 367 1227 354 1214 q 399 1240 381 1240 q 433 1224 418 1240 q 500 1178 458 1194 q 594 1161 542 1161 q 679 1178 639 1161 q 749 1224 719 1194 q 788 1243 768 1243 q 815 1231 804 1243 q 826 1203 826 1219 q 811 1163 826 1182 q 718 1085 776 1114 q 588 1056 660 1056 z "},"Ặ":{"ha":1043,"x_min":15,"x_max":994,"o":"m 988 122 q 994 88 994 101 q 962 20 994 47 q 888 -7 929 -7 q 838 8 860 -7 q 804 53 815 22 l 746 217 l 289 217 l 206 53 q 166 9 190 24 q 114 -6 142 -6 q 45 19 75 -6 q 15 83 15 44 q 29 132 15 106 l 454 919 q 504 971 472 953 q 572 989 536 989 q 639 971 608 989 q 682 919 669 953 l 988 122 m 689 381 l 558 747 l 372 381 l 689 381 m 481 -283 q 406 -256 435 -283 q 378 -183 378 -228 q 406 -112 378 -139 q 481 -86 435 -86 q 555 -112 526 -86 q 583 -183 583 -139 q 555 -256 583 -228 q 481 -283 526 -283 m 588 1075 q 453 1103 510 1075 q 365 1181 396 1131 q 354 1215 354 1197 q 371 1252 354 1238 q 410 1267 388 1267 q 460 1244 438 1267 q 592 1199 508 1199 q 665 1210 629 1199 q 724 1244 700 1222 q 778 1267 750 1267 q 813 1254 799 1267 q 826 1222 826 1242 q 811 1181 826 1201 q 718 1103 775 1132 q 588 1075 661 1075 z "},"Ằ":{"ha":1043,"x_min":15,"x_max":994,"o":"m 988 122 q 994 88 994 101 q 962 20 994 47 q 888 -7 929 -7 q 838 8 860 -7 q 804 53 815 22 l 746 217 l 289 217 l 206 53 q 166 9 190 24 q 114 -6 142 -6 q 45 19 75 -6 q 15 83 15 44 q 29 132 15 106 l 454 919 q 504 971 472 953 q 572 989 536 989 q 639 971 608 989 q 682 919 669 953 l 988 122 m 689 381 l 558 747 l 372 381 l 689 381 m 433 1313 q 414 1354 414 1331 q 435 1398 414 1379 q 482 1417 457 1417 q 533 1388 514 1417 l 607 1272 q 615 1246 615 1260 q 601 1215 615 1228 q 569 1203 588 1203 q 533 1218 549 1203 l 433 1313 m 588 1056 q 450 1084 507 1056 q 364 1163 393 1113 q 354 1194 354 1178 q 367 1227 354 1214 q 399 1240 381 1240 q 433 1224 418 1240 q 500 1178 458 1194 q 594 1161 542 1161 q 679 1178 639 1161 q 749 1224 719 1194 q 788 1243 768 1243 q 815 1231 804 1243 q 826 1203 826 1219 q 811 1163 826 1182 q 718 1085 776 1114 q 588 1056 660 1056 z "},"Ẳ":{"ha":1043,"x_min":15,"x_max":994,"o":"m 988 122 q 994 88 994 101 q 962 20 994 47 q 888 -7 929 -7 q 838 8 860 -7 q 804 53 815 22 l 746 217 l 289 217 l 206 53 q 166 9 190 24 q 114 -6 142 -6 q 45 19 75 -6 q 15 83 15 44 q 29 132 15 106 l 454 919 q 504 971 472 953 q 572 989 536 989 q 639 971 608 989 q 682 919 669 953 l 988 122 m 689 381 l 558 747 l 372 381 l 689 381 m 642 1229 q 623 1212 638 1218 q 590 1206 608 1206 q 555 1214 569 1206 q 540 1239 540 1222 q 559 1281 540 1267 q 607 1306 578 1296 q 623 1313 611 1307 q 635 1324 635 1318 q 626 1333 635 1331 q 596 1335 618 1335 q 558 1332 583 1335 q 521 1329 533 1329 q 491 1340 503 1329 q 479 1365 479 1351 q 486 1384 479 1375 q 507 1399 493 1393 q 622 1415 553 1415 q 726 1394 688 1415 q 764 1338 764 1372 q 746 1294 764 1308 q 694 1265 728 1279 q 658 1249 669 1256 q 642 1229 646 1242 m 585 1056 q 447 1084 504 1056 q 361 1163 390 1113 q 351 1194 351 1178 q 365 1227 351 1214 q 396 1240 378 1240 q 431 1224 415 1240 q 497 1178 456 1194 q 593 1161 539 1161 q 676 1178 636 1161 q 746 1224 717 1194 q 785 1243 765 1243 q 813 1231 801 1243 q 824 1203 824 1219 q 808 1163 824 1182 q 715 1085 774 1114 q 585 1056 657 1056 z "},"Ẵ":{"ha":1043,"x_min":15,"x_max":994,"o":"m 988 122 q 994 88 994 101 q 962 20 994 47 q 888 -7 929 -7 q 838 8 860 -7 q 804 53 815 22 l 746 217 l 289 217 l 206 53 q 166 9 190 24 q 114 -6 142 -6 q 45 19 75 -6 q 15 83 15 44 q 29 132 15 106 l 454 919 q 504 971 472 953 q 572 989 536 989 q 639 971 608 989 q 682 919 669 953 l 988 122 m 689 381 l 558 747 l 372 381 l 689 381 m 699 1264 q 627 1275 665 1264 q 581 1289 589 1286 q 494 1310 521 1310 q 470 1304 479 1310 q 446 1288 461 1299 q 424 1270 435 1276 q 399 1264 414 1264 q 360 1307 360 1264 q 379 1352 360 1326 q 431 1396 399 1378 q 501 1414 464 1414 q 573 1403 535 1414 q 619 1389 611 1392 q 706 1368 679 1368 q 731 1374 721 1368 q 753 1392 742 1381 q 775 1408 765 1403 q 800 1414 785 1414 q 840 1371 840 1414 q 821 1326 840 1351 q 769 1282 801 1300 q 699 1264 736 1264 m 586 1056 q 449 1084 506 1056 q 363 1163 392 1113 q 353 1194 353 1178 q 365 1228 353 1214 q 396 1243 378 1243 q 432 1224 417 1243 q 498 1178 456 1194 q 594 1161 540 1161 q 678 1178 638 1161 q 747 1224 718 1194 q 786 1243 767 1243 q 814 1231 803 1243 q 825 1203 825 1219 q 810 1163 825 1182 q 717 1085 775 1114 q 586 1056 658 1056 z "},"Â":{"ha":1043,"x_min":15,"x_max":994,"o":"m 988 122 q 994 88 994 101 q 962 20 994 47 q 888 -7 929 -7 q 838 8 860 -7 q 804 53 815 22 l 746 217 l 289 217 l 206 53 q 166 9 190 24 q 114 -6 142 -6 q 45 19 75 -6 q 15 83 15 44 q 29 132 15 106 l 454 919 q 504 971 472 953 q 572 989 536 989 q 639 971 608 989 q 682 919 669 953 l 988 122 m 689 381 l 558 747 l 372 381 l 689 381 m 515 1090 q 450 1057 486 1057 q 410 1070 426 1057 q 394 1104 394 1083 q 415 1150 394 1125 l 515 1257 q 596 1288 546 1288 q 671 1257 646 1288 l 753 1150 q 768 1113 768 1131 q 749 1073 768 1089 q 703 1057 729 1057 q 644 1092 665 1057 l 592 1181 l 515 1090 z "},"Ấ":{"ha":1043,"x_min":15,"x_max":994,"o":"m 988 122 q 994 88 994 101 q 962 20 994 47 q 888 -7 929 -7 q 838 8 860 -7 q 804 53 815 22 l 746 217 l 289 217 l 206 53 q 166 9 190 24 q 114 -6 142 -6 q 45 19 75 -6 q 15 83 15 44 q 29 132 15 106 l 454 919 q 504 971 472 953 q 572 989 536 989 q 639 971 608 989 q 682 919 669 953 l 988 122 m 689 381 l 558 747 l 372 381 l 689 381 m 818 1217 q 783 1203 803 1203 q 751 1215 764 1203 q 738 1246 738 1228 q 747 1274 738 1260 l 831 1389 q 885 1419 851 1419 q 931 1400 910 1419 q 951 1356 951 1381 q 926 1308 951 1332 l 818 1217 m 504 1076 q 460 1056 483 1056 q 423 1071 438 1056 q 408 1108 408 1086 q 431 1154 408 1133 l 519 1238 q 597 1268 554 1268 q 668 1238 639 1268 l 750 1144 q 765 1108 765 1128 q 747 1069 765 1086 q 703 1053 728 1053 q 656 1078 675 1053 l 590 1161 l 504 1076 z "},"Ậ":{"ha":1043,"x_min":15,"x_max":994,"o":"m 988 122 q 994 88 994 101 q 962 20 994 47 q 888 -7 929 -7 q 838 8 860 -7 q 804 53 815 22 l 746 217 l 289 217 l 206 53 q 166 9 190 24 q 114 -6 142 -6 q 45 19 75 -6 q 15 83 15 44 q 29 132 15 106 l 454 919 q 504 971 472 953 q 572 989 536 989 q 639 971 608 989 q 682 919 669 953 l 988 122 m 689 381 l 558 747 l 372 381 l 689 381 m 481 -283 q 406 -256 435 -283 q 378 -183 378 -228 q 406 -112 378 -139 q 481 -86 435 -86 q 555 -112 526 -86 q 583 -183 583 -139 q 555 -256 583 -228 q 481 -283 526 -283 m 515 1090 q 450 1057 486 1057 q 410 1070 426 1057 q 394 1104 394 1083 q 415 1150 394 1125 l 515 1257 q 596 1288 546 1288 q 671 1257 646 1288 l 753 1150 q 768 1113 768 1131 q 749 1073 768 1089 q 703 1057 729 1057 q 644 1092 665 1057 l 592 1181 l 515 1090 z "},"Ầ":{"ha":1043,"x_min":15,"x_max":994,"o":"m 988 122 q 994 88 994 101 q 962 20 994 47 q 888 -7 929 -7 q 838 8 860 -7 q 804 53 815 22 l 746 217 l 289 217 l 206 53 q 166 9 190 24 q 114 -6 142 -6 q 45 19 75 -6 q 15 83 15 44 q 29 132 15 106 l 454 919 q 504 971 472 953 q 572 989 536 989 q 639 971 608 989 q 682 919 669 953 l 988 122 m 689 381 l 558 747 l 372 381 l 689 381 m 819 1218 q 783 1204 804 1204 q 753 1216 765 1204 q 740 1246 740 1228 q 749 1272 740 1260 l 822 1386 q 876 1418 844 1418 q 921 1399 901 1418 q 940 1356 940 1381 q 918 1311 940 1329 l 819 1218 m 504 1076 q 460 1056 483 1056 q 423 1071 438 1056 q 408 1108 408 1086 q 431 1154 408 1133 l 519 1238 q 597 1268 554 1268 q 668 1238 639 1268 l 750 1144 q 765 1108 765 1128 q 747 1069 765 1086 q 703 1053 728 1053 q 656 1078 675 1053 l 590 1161 l 504 1076 z "},"Ẩ":{"ha":1043,"x_min":15,"x_max":994,"o":"m 988 122 q 994 88 994 101 q 962 20 994 47 q 888 -7 929 -7 q 838 8 860 -7 q 804 53 815 22 l 746 217 l 289 217 l 206 53 q 166 9 190 24 q 114 -6 142 -6 q 45 19 75 -6 q 15 83 15 44 q 29 132 15 106 l 454 919 q 504 971 472 953 q 572 989 536 989 q 639 971 608 989 q 682 919 669 953 l 988 122 m 689 381 l 558 747 l 372 381 l 689 381 m 826 1229 q 808 1212 822 1218 q 775 1206 793 1206 q 738 1214 753 1206 q 724 1239 724 1222 q 742 1279 724 1265 q 792 1306 760 1293 q 808 1313 796 1307 q 819 1324 819 1318 q 811 1333 819 1331 q 781 1335 803 1335 q 742 1333 765 1335 q 706 1329 718 1331 q 675 1340 686 1329 q 664 1365 664 1351 q 671 1384 664 1375 q 692 1399 678 1393 q 807 1415 738 1415 q 910 1394 872 1415 q 947 1338 947 1372 q 929 1294 947 1308 q 878 1265 911 1279 q 842 1249 854 1256 q 826 1229 831 1242 m 504 1076 q 460 1056 483 1056 q 423 1071 438 1056 q 408 1108 408 1086 q 431 1154 408 1133 l 519 1238 q 597 1268 554 1268 q 668 1238 639 1268 l 750 1144 q 765 1108 765 1128 q 747 1069 765 1086 q 703 1053 728 1053 q 656 1078 675 1053 l 590 1161 l 504 1076 z "},"Ẫ":{"ha":1043,"x_min":15,"x_max":994,"o":"m 988 122 q 994 88 994 101 q 962 20 994 47 q 888 -7 929 -7 q 838 8 860 -7 q 804 53 815 22 l 746 217 l 289 217 l 206 53 q 166 9 190 24 q 114 -6 142 -6 q 45 19 75 -6 q 15 83 15 44 q 29 132 15 106 l 454 919 q 504 971 472 953 q 572 989 536 989 q 639 971 608 989 q 682 919 669 953 l 988 122 m 689 381 l 558 747 l 372 381 l 689 381 m 400 1276 q 371 1288 381 1276 q 361 1318 361 1299 q 381 1363 361 1338 q 433 1407 400 1389 q 503 1425 465 1425 q 574 1414 536 1425 q 621 1400 613 1403 q 707 1379 681 1379 q 733 1385 722 1379 q 754 1403 743 1392 q 776 1419 767 1414 q 801 1425 786 1425 q 842 1382 842 1425 q 822 1338 842 1363 q 770 1294 803 1313 q 700 1276 738 1276 q 647 1283 674 1276 q 582 1301 619 1289 q 535 1315 558 1308 q 496 1321 511 1321 q 472 1315 481 1321 q 447 1299 463 1310 q 425 1282 435 1288 q 400 1276 415 1276 m 504 1076 q 460 1056 483 1056 q 423 1071 438 1056 q 408 1108 408 1086 q 431 1154 408 1133 l 519 1238 q 597 1268 554 1268 q 668 1238 639 1268 l 750 1144 q 765 1108 765 1128 q 747 1069 765 1086 q 703 1053 728 1053 q 656 1078 675 1053 l 590 1161 l 504 1076 z "},"Ȁ":{"ha":1043,"x_min":15,"x_max":994,"o":"m 988 122 q 994 88 994 101 q 962 20 994 47 q 888 -7 929 -7 q 838 8 860 -7 q 804 53 815 22 l 746 217 l 289 217 l 206 53 q 166 9 190 24 q 114 -6 142 -6 q 45 19 75 -6 q 15 83 15 44 q 29 132 15 106 l 454 919 q 504 971 472 953 q 572 989 536 989 q 639 971 608 989 q 682 919 669 953 l 988 122 m 689 381 l 558 747 l 372 381 l 689 381 m 356 1197 q 346 1232 346 1215 q 363 1272 346 1256 q 404 1288 381 1288 q 437 1277 422 1288 q 460 1244 451 1267 l 506 1124 q 510 1103 510 1114 q 496 1070 510 1083 q 464 1057 482 1057 q 422 1083 439 1057 l 356 1197 m 549 1197 q 538 1232 538 1217 q 556 1271 538 1256 q 596 1286 574 1286 q 628 1276 614 1286 q 651 1244 643 1265 l 699 1124 q 703 1104 703 1114 q 689 1070 703 1083 q 657 1057 675 1057 q 615 1083 629 1057 l 549 1197 z "},"Ä":{"ha":1043,"x_min":15,"x_max":994,"o":"m 988 122 q 994 88 994 101 q 962 20 994 47 q 888 -7 929 -7 q 838 8 860 -7 q 804 53 815 22 l 746 217 l 289 217 l 206 53 q 166 9 190 24 q 114 -6 142 -6 q 45 19 75 -6 q 15 83 15 44 q 29 132 15 106 l 454 919 q 504 971 472 953 q 572 989 536 989 q 639 971 608 989 q 682 919 669 953 l 988 122 m 689 381 l 558 747 l 372 381 l 689 381 m 456 1074 q 381 1101 410 1074 q 351 1172 351 1128 q 381 1243 351 1217 q 456 1269 410 1269 q 531 1243 501 1269 q 560 1172 560 1217 q 531 1101 560 1128 q 456 1074 503 1074 m 719 1074 q 645 1101 674 1074 q 617 1172 617 1128 q 645 1243 617 1217 q 719 1269 674 1269 q 794 1243 765 1269 q 824 1172 824 1217 q 794 1101 824 1128 q 719 1074 765 1074 z "},"Ạ":{"ha":1043,"x_min":15,"x_max":994,"o":"m 988 122 q 994 88 994 101 q 962 20 994 47 q 888 -7 929 -7 q 838 8 860 -7 q 804 53 815 22 l 746 217 l 289 217 l 206 53 q 166 9 190 24 q 114 -6 142 -6 q 45 19 75 -6 q 15 83 15 44 q 29 132 15 106 l 454 919 q 504 971 472 953 q 572 989 536 989 q 639 971 608 989 q 682 919 669 953 l 988 122 m 689 381 l 558 747 l 372 381 l 689 381 m 481 -283 q 406 -256 435 -283 q 378 -183 378 -228 q 406 -112 378 -139 q 481 -86 435 -86 q 555 -112 526 -86 q 583 -183 583 -139 q 555 -256 583 -228 q 481 -283 526 -283 z "},"À":{"ha":1043,"x_min":15,"x_max":994,"o":"m 988 122 q 994 88 994 101 q 962 20 994 47 q 888 -7 929 -7 q 838 8 860 -7 q 804 53 815 22 l 746 217 l 289 217 l 206 53 q 166 9 190 24 q 114 -6 142 -6 q 45 19 75 -6 q 15 83 15 44 q 29 132 15 106 l 454 919 q 504 971 472 953 q 572 989 536 989 q 639 971 608 989 q 682 919 669 953 l 988 122 m 689 381 l 558 747 l 372 381 l 689 381 m 415 1178 q 396 1222 396 1199 q 418 1268 396 1249 q 469 1288 440 1288 q 529 1251 508 1288 l 599 1131 q 606 1104 606 1118 q 590 1069 606 1083 q 553 1056 574 1056 q 506 1078 526 1056 l 415 1178 z "},"Ả":{"ha":1043,"x_min":15,"x_max":994,"o":"m 988 122 q 994 88 994 101 q 962 20 994 47 q 888 -7 929 -7 q 838 8 860 -7 q 804 53 815 22 l 746 217 l 289 217 l 206 53 q 166 9 190 24 q 114 -6 142 -6 q 45 19 75 -6 q 15 83 15 44 q 29 132 15 106 l 454 919 q 504 971 472 953 q 572 989 536 989 q 639 971 608 989 q 682 919 669 953 l 988 122 m 689 381 l 558 747 l 372 381 l 689 381 m 633 1086 q 614 1063 628 1071 q 582 1056 600 1056 q 546 1065 561 1056 q 531 1093 531 1075 q 547 1133 531 1119 q 593 1158 564 1147 q 618 1171 610 1165 q 626 1183 626 1176 q 586 1203 626 1203 q 513 1192 560 1203 q 483 1200 494 1189 q 472 1228 472 1211 q 479 1252 472 1242 q 500 1268 486 1263 q 611 1285 544 1285 q 717 1261 678 1285 q 756 1201 756 1238 q 738 1157 756 1172 q 686 1126 719 1142 q 650 1107 663 1115 q 633 1086 638 1099 z "},"Ȃ":{"ha":1043,"x_min":15,"x_max":994,"o":"m 988 122 q 994 88 994 101 q 962 20 994 47 q 888 -7 929 -7 q 838 8 860 -7 q 804 53 815 22 l 746 217 l 289 217 l 206 53 q 166 9 190 24 q 114 -6 142 -6 q 45 19 75 -6 q 15 83 15 44 q 29 132 15 106 l 454 919 q 504 971 472 953 q 572 989 536 989 q 639 971 608 989 q 682 919 669 953 l 988 122 m 689 381 l 558 747 l 372 381 l 689 381 m 585 1268 q 719 1240 663 1268 q 807 1163 776 1213 q 818 1126 818 1146 q 801 1091 818 1106 q 763 1076 785 1076 q 713 1097 733 1076 q 581 1144 663 1144 q 508 1132 543 1144 q 449 1097 472 1119 q 396 1076 424 1076 q 360 1088 375 1076 q 346 1119 346 1100 q 363 1163 346 1140 q 454 1240 397 1211 q 585 1268 511 1268 z "},"Ā":{"ha":1043,"x_min":15,"x_max":994,"o":"m 988 122 q 994 88 994 101 q 962 20 994 47 q 888 -7 929 -7 q 838 8 860 -7 q 804 53 815 22 l 746 217 l 289 217 l 206 53 q 166 9 190 24 q 114 -6 142 -6 q 45 19 75 -6 q 15 83 15 44 q 29 132 15 106 l 454 919 q 504 971 472 953 q 572 989 536 989 q 639 971 608 989 q 682 919 669 953 l 988 122 m 689 381 l 558 747 l 372 381 l 689 381 m 414 1106 q 368 1123 386 1106 q 350 1167 350 1140 q 371 1219 350 1201 q 425 1236 392 1236 l 761 1236 q 807 1219 789 1236 q 825 1172 825 1201 q 804 1122 825 1139 q 750 1106 783 1106 l 414 1106 z "},"Ą":{"ha":1043,"x_min":15,"x_max":1028,"o":"m 981 -153 q 994 -150 992 -150 q 1019 -162 1010 -150 q 1028 -190 1028 -174 q 999 -242 1028 -226 q 885 -274 944 -274 q 758 -233 806 -274 q 710 -126 710 -192 q 811 31 710 -25 l 746 217 l 289 217 l 206 53 q 166 9 190 24 q 114 -6 142 -6 q 45 19 75 -6 q 15 83 15 44 q 29 132 15 106 l 454 919 q 504 971 472 953 q 572 989 536 989 q 639 971 608 989 q 682 919 669 953 l 982 132 q 990 90 990 110 q 974 39 990 61 q 933 6 958 17 q 847 -94 847 -33 q 867 -147 847 -128 q 917 -165 886 -165 q 981 -153 943 -165 m 688 381 l 558 747 l 372 381 l 688 381 z "},"Å":{"ha":1043,"x_min":15,"x_max":994,"o":"m 988 122 q 994 88 994 101 q 962 20 994 47 q 888 -7 929 -7 q 838 8 860 -7 q 804 53 815 22 l 746 217 l 289 217 l 206 53 q 166 8 190 24 q 114 -7 142 -7 q 45 18 75 -7 q 15 82 15 43 q 29 132 15 106 l 479 968 q 442 1018 456 989 q 429 1081 429 1047 q 473 1186 429 1143 q 581 1229 517 1229 q 688 1186 644 1229 q 732 1081 732 1143 q 715 1010 732 1043 q 668 957 697 976 l 988 122 m 581 1143 q 538 1125 554 1143 q 521 1081 521 1107 q 538 1035 521 1053 q 581 1017 554 1017 q 624 1035 607 1017 q 640 1081 640 1053 q 624 1125 640 1107 q 581 1143 607 1143 m 689 381 l 558 747 l 372 381 l 689 381 z "},"Ǻ":{"ha":1043,"x_min":15,"x_max":994,"o":"m 988 122 q 994 88 994 101 q 962 20 994 47 q 888 -7 929 -7 q 838 8 860 -7 q 804 53 815 22 l 746 217 l 289 217 l 206 53 q 166 8 190 24 q 114 -7 142 -7 q 45 18 75 -7 q 15 82 15 43 q 29 132 15 106 l 479 968 q 442 1018 456 989 q 429 1081 429 1047 q 473 1186 429 1143 q 581 1229 517 1229 q 658 1208 625 1229 l 796 1300 q 857 1321 829 1321 q 909 1299 889 1321 q 929 1249 929 1278 q 910 1201 929 1224 q 856 1168 892 1179 l 724 1131 q 732 1081 732 1106 q 715 1010 732 1043 q 668 957 697 976 l 988 122 m 581 1143 q 538 1125 554 1143 q 521 1081 521 1107 q 538 1035 521 1053 q 581 1017 554 1017 q 624 1035 607 1017 q 640 1081 640 1053 q 624 1125 640 1107 q 581 1143 607 1143 m 689 381 l 558 747 l 372 381 l 689 381 z "},"Ã":{"ha":1043,"x_min":15,"x_max":994,"o":"m 988 122 q 994 88 994 101 q 962 20 994 47 q 888 -7 929 -7 q 838 8 860 -7 q 804 53 815 22 l 746 217 l 289 217 l 206 53 q 166 9 190 24 q 114 -6 142 -6 q 45 19 75 -6 q 15 83 15 44 q 29 132 15 106 l 454 919 q 504 971 472 953 q 572 989 536 989 q 639 971 608 989 q 682 919 669 953 l 988 122 m 689 381 l 558 747 l 372 381 l 689 381 m 685 1074 q 635 1082 660 1074 q 576 1107 610 1090 q 488 1136 518 1136 q 456 1128 468 1136 q 431 1106 444 1121 q 408 1086 417 1092 q 386 1081 400 1081 q 357 1094 367 1081 q 347 1129 347 1107 q 365 1194 347 1161 q 415 1249 382 1228 q 490 1271 447 1271 q 540 1263 515 1271 q 599 1238 565 1254 q 688 1208 657 1208 q 718 1215 707 1208 q 744 1238 729 1222 q 767 1257 758 1251 q 789 1263 775 1263 q 828 1215 828 1263 q 810 1150 828 1183 q 760 1095 793 1117 q 685 1074 728 1074 z "},"Æ":{"ha":1389,"x_min":7,"x_max":1403,"o":"m 838 811 l 871 582 l 1247 582 q 1319 562 1294 582 q 1343 504 1343 542 q 1317 436 1343 458 q 1236 414 1290 414 l 894 414 l 931 168 l 1243 168 q 1315 147 1290 168 q 1339 89 1339 126 q 1231 0 1339 0 l 840 0 q 778 17 803 0 q 750 61 754 33 l 728 217 l 314 217 l 204 53 q 153 3 182 19 q 96 -12 125 -12 q 33 11 58 -12 q 7 71 7 35 q 36 150 7 110 l 581 919 q 634 963 600 947 q 707 979 668 979 l 1307 979 q 1378 959 1354 979 q 1403 901 1403 939 q 1294 811 1403 811 l 838 811 m 704 381 l 656 725 l 424 381 l 704 381 z "},"Ǽ":{"ha":1389,"x_min":7,"x_max":1403,"o":"m 838 811 l 871 582 l 1247 582 q 1319 562 1294 582 q 1343 504 1343 542 q 1317 436 1343 458 q 1236 414 1290 414 l 894 414 l 931 168 l 1243 168 q 1315 147 1290 168 q 1339 89 1339 126 q 1231 0 1339 0 l 840 0 q 778 17 803 0 q 750 61 754 33 l 728 217 l 314 217 l 204 53 q 153 3 182 19 q 96 -12 125 -12 q 33 11 58 -12 q 7 71 7 35 q 36 150 7 110 l 581 919 q 634 963 600 947 q 707 979 668 979 l 1307 979 q 1378 959 1354 979 q 1403 901 1403 939 q 1294 811 1403 811 l 838 811 m 704 381 l 656 725 l 424 381 l 704 381 m 833 1076 q 788 1057 813 1057 q 752 1070 767 1057 q 738 1103 738 1083 q 750 1138 738 1119 l 831 1254 q 890 1288 854 1288 q 940 1267 918 1288 q 963 1219 963 1246 q 938 1169 963 1193 l 833 1076 z "},"B":{"ha":957,"x_min":75,"x_max":913,"o":"m 739 504 q 858 422 815 483 q 900 279 900 361 q 803 73 900 146 q 543 0 707 0 l 172 0 q 99 26 124 0 q 79 101 75 53 l 140 878 q 173 953 144 926 q 250 979 201 979 l 585 979 q 828 913 744 979 q 913 733 913 846 q 739 504 913 569 m 533 581 q 662 609 621 581 q 703 701 703 638 q 550 814 703 814 l 346 814 l 328 581 l 533 581 m 525 165 q 656 195 614 165 q 699 293 699 225 q 660 385 699 354 q 542 415 622 415 l 315 415 l 296 165 l 525 165 z "},"C":{"ha":942,"x_min":81,"x_max":943,"o":"m 543 -12 q 297 44 401 -12 q 137 208 193 101 q 81 457 81 314 q 144 739 81 618 q 322 926 207 860 q 592 992 438 992 q 763 969 685 992 q 892 913 842 946 q 943 826 943 879 q 919 765 943 792 q 863 739 896 739 q 810 756 833 739 q 600 818 715 818 q 380 722 458 818 q 301 457 301 625 q 365 237 301 313 q 551 161 429 161 q 767 226 656 161 q 817 240 793 240 q 869 217 849 240 q 889 163 889 194 q 844 78 889 111 q 716 14 797 40 q 543 -12 635 -12 z "},"Ć":{"ha":942,"x_min":81,"x_max":943,"o":"m 543 -12 q 297 44 401 -12 q 137 208 193 101 q 81 457 81 314 q 144 739 81 618 q 322 926 207 860 q 592 992 438 992 q 763 969 685 992 q 892 913 842 946 q 943 826 943 879 q 919 765 943 792 q 863 739 896 739 q 810 756 833 739 q 600 818 715 818 q 380 722 458 818 q 301 457 301 625 q 365 237 301 313 q 551 161 429 161 q 767 226 656 161 q 817 240 793 240 q 869 217 849 240 q 889 163 889 194 q 844 78 889 111 q 716 14 797 40 q 543 -12 635 -12 m 679 1076 q 633 1057 658 1057 q 598 1070 613 1057 q 583 1103 583 1083 q 596 1138 583 1119 l 676 1254 q 736 1288 700 1288 q 786 1267 764 1288 q 808 1219 808 1246 q 783 1169 808 1193 l 679 1076 z "},"Č":{"ha":942,"x_min":81,"x_max":943,"o":"m 543 -12 q 297 44 401 -12 q 137 208 193 101 q 81 457 81 314 q 144 739 81 618 q 322 926 207 860 q 592 992 438 992 q 763 969 685 992 q 892 913 842 946 q 943 826 943 879 q 919 765 943 792 q 863 739 896 739 q 810 756 833 739 q 600 818 715 818 q 380 722 458 818 q 301 457 301 625 q 365 237 301 313 q 551 161 429 161 q 767 226 656 161 q 817 240 793 240 q 869 217 849 240 q 889 163 889 194 q 844 78 889 111 q 716 14 797 40 q 543 -12 635 -12 m 683 1251 q 749 1285 713 1285 q 788 1272 772 1285 q 804 1238 804 1258 q 783 1192 804 1214 l 683 1085 q 648 1061 669 1069 q 604 1053 626 1053 q 560 1061 581 1053 q 528 1085 540 1069 l 446 1192 q 431 1229 431 1211 q 450 1268 431 1251 q 494 1285 469 1285 q 554 1249 532 1285 l 607 1160 l 683 1251 z "},"Ç":{"ha":942,"x_min":81,"x_max":943,"o":"m 600 818 q 380 722 458 818 q 301 457 301 625 q 365 237 301 313 q 551 161 429 161 q 767 226 656 161 q 817 240 793 240 q 869 217 849 240 q 889 163 889 194 q 844 78 889 111 q 724 16 800 42 q 561 -12 649 -10 l 551 -56 l 561 -56 q 645 -81 614 -56 q 676 -150 676 -107 q 625 -240 676 -206 q 490 -274 574 -274 q 388 -261 432 -274 q 365 -246 372 -257 q 358 -221 358 -235 q 372 -185 358 -200 q 404 -176 385 -171 q 481 -187 444 -187 q 547 -151 547 -187 q 508 -125 547 -125 q 476 -129 493 -125 q 454 -133 460 -133 q 433 -125 440 -133 q 429 -104 426 -117 l 450 -6 q 178 144 276 22 q 81 457 81 265 q 144 739 81 618 q 322 926 207 860 q 592 992 438 992 q 763 969 685 992 q 892 913 842 946 q 943 826 943 879 q 919 765 943 792 q 863 739 896 739 q 810 756 833 739 q 600 818 715 818 z "},"Ḉ":{"ha":942,"x_min":81,"x_max":943,"o":"m 679 1076 q 633 1057 658 1057 q 598 1070 613 1057 q 583 1103 583 1083 q 596 1138 583 1119 l 676 1254 q 736 1288 700 1288 q 786 1267 764 1288 q 808 1219 808 1246 q 783 1169 808 1193 l 679 1076 m 600 818 q 380 722 458 818 q 301 457 301 625 q 365 237 301 313 q 551 161 429 161 q 767 226 656 161 q 817 240 793 240 q 869 217 849 240 q 889 163 889 194 q 844 78 889 111 q 724 16 800 42 q 561 -12 649 -10 l 551 -56 l 561 -56 q 645 -81 614 -56 q 676 -150 676 -107 q 625 -240 676 -206 q 490 -274 574 -274 q 388 -261 432 -274 q 365 -246 372 -257 q 358 -221 358 -235 q 372 -185 358 -200 q 404 -176 385 -171 q 481 -187 444 -187 q 547 -151 547 -187 q 508 -125 547 -125 q 476 -129 493 -125 q 454 -133 460 -133 q 433 -125 440 -133 q 429 -104 426 -117 l 450 -6 q 178 144 276 22 q 81 457 81 265 q 144 739 81 618 q 322 926 207 860 q 592 992 438 992 q 763 969 685 992 q 892 913 842 946 q 943 826 943 879 q 919 765 943 792 q 863 739 896 739 q 810 756 833 739 q 600 818 715 818 z "},"Ĉ":{"ha":942,"x_min":81,"x_max":943,"o":"m 543 -12 q 297 44 401 -12 q 137 208 193 101 q 81 457 81 314 q 144 739 81 618 q 322 926 207 860 q 592 992 438 992 q 763 969 685 992 q 892 913 842 946 q 943 826 943 879 q 919 765 943 792 q 863 739 896 739 q 810 756 833 739 q 600 818 715 818 q 380 722 458 818 q 301 457 301 625 q 365 237 301 313 q 551 161 429 161 q 767 226 656 161 q 817 240 793 240 q 869 217 849 240 q 889 163 889 194 q 844 78 889 111 q 716 14 797 40 q 543 -12 635 -12 m 542 1090 q 476 1057 513 1057 q 437 1070 453 1057 q 421 1104 421 1083 q 442 1150 421 1125 l 542 1257 q 622 1288 572 1288 q 697 1257 672 1288 l 779 1150 q 794 1113 794 1131 q 775 1073 794 1089 q 729 1057 756 1057 q 671 1092 692 1057 l 618 1181 l 542 1090 z "},"Ċ":{"ha":942,"x_min":81,"x_max":943,"o":"m 543 -12 q 297 44 401 -12 q 137 208 193 101 q 81 457 81 314 q 144 739 81 618 q 322 926 207 860 q 592 992 438 992 q 763 969 685 992 q 892 913 842 946 q 943 826 943 879 q 919 765 943 792 q 863 739 896 739 q 810 756 833 739 q 600 818 715 818 q 380 722 458 818 q 301 457 301 625 q 365 237 301 313 q 551 161 429 161 q 767 226 656 161 q 817 240 793 240 q 869 217 849 240 q 889 163 889 194 q 844 78 889 111 q 716 14 797 40 q 543 -12 635 -12 m 614 1067 q 526 1095 558 1067 q 494 1172 494 1124 q 526 1249 494 1221 q 614 1276 558 1276 q 701 1248 668 1276 q 733 1172 733 1219 q 701 1095 733 1124 q 614 1067 669 1067 z "},"D":{"ha":1060,"x_min":75,"x_max":1003,"o":"m 172 0 q 99 26 124 0 q 79 101 75 53 l 140 878 q 173 953 144 926 q 250 979 201 979 l 525 979 q 780 924 672 979 q 945 765 888 868 q 1003 522 1003 663 q 940 241 1003 358 q 756 62 876 124 q 468 0 636 0 l 172 0 m 450 175 q 704 261 621 175 q 788 524 788 347 q 714 733 788 661 q 497 804 640 804 l 350 804 l 301 175 l 450 175 z "},"Ǆ":{"ha":1886,"x_min":79,"x_max":1883,"o":"m 172 0 q 99 26 124 0 q 79 101 75 53 l 140 878 q 173 953 144 926 q 250 979 201 979 l 525 979 q 780 924 672 979 q 945 765 888 868 q 1003 522 1003 663 q 940 241 1003 358 q 756 62 876 124 q 468 0 636 0 l 172 0 m 450 175 q 704 261 621 175 q 788 524 788 347 q 714 733 788 661 q 497 804 640 804 l 350 804 l 301 175 l 450 175 m 1796 979 q 1860 956 1838 979 q 1883 896 1883 932 q 1850 811 1883 853 l 1343 171 l 1743 171 q 1839 92 1839 171 q 1813 22 1839 43 q 1731 0 1786 0 l 1156 0 q 1091 23 1114 0 q 1068 82 1068 46 q 1101 168 1068 126 l 1608 808 l 1229 808 q 1158 828 1182 808 q 1133 885 1133 847 q 1160 957 1133 935 q 1242 979 1186 979 l 1796 979 m 1600 1251 q 1665 1285 1629 1285 q 1705 1272 1689 1285 q 1721 1238 1721 1258 q 1700 1192 1721 1214 l 1600 1085 q 1565 1061 1586 1069 q 1521 1053 1543 1053 q 1477 1061 1497 1053 q 1444 1085 1457 1069 l 1363 1192 q 1347 1229 1347 1211 q 1367 1268 1347 1251 q 1411 1285 1386 1285 q 1471 1249 1449 1285 l 1524 1160 l 1600 1251 z "},"Ð":{"ha":1101,"x_min":13,"x_max":1043,"o":"m 565 979 q 820 924 713 979 q 985 765 928 868 q 1043 522 1043 663 q 980 241 1043 358 q 797 62 917 124 q 508 0 676 0 l 213 0 q 140 26 164 0 q 119 101 115 53 l 144 413 l 103 413 q 36 433 60 413 q 13 490 13 454 q 40 555 13 533 q 117 576 67 576 l 157 576 l 181 878 q 213 953 185 926 q 290 979 242 979 l 565 979 m 490 175 q 743 261 660 175 q 826 524 826 347 q 753 733 826 661 q 538 804 681 804 l 390 804 l 372 576 l 556 576 q 622 556 599 576 q 646 499 646 535 q 619 434 646 456 q 542 413 592 413 l 360 413 l 342 175 l 490 175 z "},"Ď":{"ha":1060,"x_min":79,"x_max":1003,"o":"m 172 0 q 99 26 124 0 q 79 101 75 53 l 140 878 q 173 953 144 926 q 250 979 201 979 l 525 979 q 780 924 672 979 q 945 765 888 868 q 1003 522 1003 663 q 940 241 1003 358 q 756 62 876 124 q 468 0 636 0 l 172 0 m 450 175 q 704 261 621 175 q 788 524 788 347 q 714 733 788 661 q 497 804 640 804 l 350 804 l 301 175 l 450 175 m 665 1251 q 731 1285 694 1285 q 770 1272 754 1285 q 786 1238 786 1258 q 765 1192 786 1214 l 665 1085 q 630 1061 651 1069 q 586 1053 608 1053 q 542 1061 563 1053 q 510 1085 522 1069 l 428 1192 q 413 1229 413 1211 q 432 1268 413 1251 q 476 1285 451 1285 q 536 1249 514 1285 l 589 1160 l 665 1251 z "},"Đ":{"ha":1101,"x_min":13,"x_max":1043,"o":"m 565 979 q 820 924 713 979 q 985 765 928 868 q 1043 522 1043 663 q 980 241 1043 358 q 797 62 917 124 q 508 0 676 0 l 213 0 q 140 26 164 0 q 119 101 115 53 l 144 413 l 103 413 q 36 433 60 413 q 13 490 13 454 q 40 555 13 533 q 117 576 67 576 l 157 576 l 181 878 q 213 953 185 926 q 290 979 242 979 l 565 979 m 490 175 q 743 261 660 175 q 826 524 826 347 q 753 733 826 661 q 538 804 681 804 l 390 804 l 372 576 l 556 576 q 622 556 599 576 q 646 499 646 535 q 619 434 646 456 q 542 413 592 413 l 360 413 l 342 175 l 490 175 z "},"Ḍ":{"ha":1060,"x_min":79,"x_max":1003,"o":"m 172 0 q 99 26 124 0 q 79 101 75 53 l 140 878 q 173 953 144 926 q 250 979 201 979 l 525 979 q 780 924 672 979 q 945 765 888 868 q 1003 522 1003 663 q 940 241 1003 358 q 756 62 876 124 q 468 0 636 0 l 172 0 m 450 175 q 704 261 621 175 q 788 524 788 347 q 714 733 788 661 q 497 804 640 804 l 350 804 l 301 175 l 450 175 m 488 -283 q 413 -256 442 -283 q 385 -183 385 -228 q 413 -112 385 -139 q 488 -86 442 -86 q 562 -112 533 -86 q 590 -183 590 -139 q 562 -256 590 -228 q 488 -283 533 -283 z "},"Ḏ":{"ha":1060,"x_min":79,"x_max":1003,"o":"m 172 0 q 99 26 124 0 q 79 101 75 53 l 140 878 q 173 953 144 926 q 250 979 201 979 l 525 979 q 780 924 672 979 q 945 765 888 868 q 1003 522 1003 663 q 940 241 1003 358 q 756 62 876 124 q 468 0 636 0 l 172 0 m 450 175 q 704 261 621 175 q 788 524 788 347 q 714 733 788 661 q 497 804 640 804 l 350 804 l 301 175 l 450 175 m 315 -246 q 268 -230 286 -246 q 250 -187 250 -214 q 272 -140 250 -157 q 325 -124 293 -124 l 661 -124 q 707 -140 689 -124 q 725 -181 725 -156 q 705 -229 725 -212 q 651 -246 685 -246 l 315 -246 z "},"ǅ":{"ha":1774,"x_min":79,"x_max":1743,"o":"m 172 0 q 99 26 124 0 q 79 101 75 53 l 140 878 q 173 953 144 926 q 250 979 201 979 l 525 979 q 780 924 672 979 q 945 765 888 868 q 1003 522 1003 663 q 940 241 1003 358 q 756 62 876 124 q 468 0 636 0 l 172 0 m 450 175 q 704 261 621 175 q 788 524 788 347 q 714 733 788 661 q 497 804 640 804 l 350 804 l 301 175 l 450 175 m 1639 157 q 1706 138 1683 157 q 1728 85 1728 119 q 1703 21 1728 42 q 1626 0 1678 0 l 1175 0 q 1113 24 1136 0 q 1090 82 1090 47 q 1124 161 1090 126 l 1472 525 l 1211 525 q 1146 544 1168 525 q 1124 597 1124 563 q 1224 682 1124 682 l 1658 682 q 1720 658 1697 682 q 1743 600 1743 635 q 1708 519 1743 556 l 1361 157 l 1639 157 m 1542 1018 q 1572 1051 1554 1040 q 1610 1061 1590 1061 q 1656 1044 1636 1061 q 1675 1001 1675 1026 q 1660 958 1675 979 l 1554 813 q 1511 776 1536 789 q 1461 763 1486 763 q 1412 776 1435 763 q 1376 813 1389 789 l 1289 968 q 1279 1001 1279 986 q 1300 1043 1279 1026 q 1349 1060 1321 1060 q 1389 1048 1369 1060 q 1419 1013 1408 1036 l 1472 894 l 1542 1018 z "},"E":{"ha":824,"x_min":75,"x_max":838,"o":"m 346 811 l 328 582 l 682 582 q 753 562 729 582 q 778 504 778 542 q 671 414 778 414 l 315 414 l 296 168 l 678 168 q 749 147 724 168 q 774 89 774 126 q 664 0 774 0 l 172 0 q 99 26 124 0 q 79 101 75 53 l 140 878 q 173 953 144 926 q 250 979 201 979 l 742 979 q 813 958 789 979 q 838 901 838 938 q 729 811 838 811 l 346 811 z "},"É":{"ha":824,"x_min":79,"x_max":838,"o":"m 346 811 l 328 582 l 682 582 q 753 562 729 582 q 778 504 778 542 q 671 414 778 414 l 315 414 l 296 168 l 678 168 q 749 147 724 168 q 774 89 774 126 q 664 0 774 0 l 172 0 q 99 26 124 0 q 79 101 75 53 l 140 878 q 173 953 144 926 q 250 979 201 979 l 742 979 q 813 958 789 979 q 838 901 838 938 q 729 811 838 811 l 346 811 m 592 1076 q 546 1057 571 1057 q 510 1070 525 1057 q 496 1103 496 1083 q 508 1138 496 1119 l 589 1254 q 649 1288 613 1288 q 699 1267 676 1288 q 721 1219 721 1246 q 696 1169 721 1193 l 592 1076 z "},"Ĕ":{"ha":824,"x_min":79,"x_max":838,"o":"m 346 811 l 328 582 l 682 582 q 753 562 729 582 q 778 504 778 542 q 671 414 778 414 l 315 414 l 296 168 l 678 168 q 749 147 724 168 q 774 89 774 126 q 664 0 774 0 l 172 0 q 99 26 124 0 q 79 101 75 53 l 140 878 q 173 953 144 926 q 250 979 201 979 l 742 979 q 813 958 789 979 q 838 901 838 938 q 729 811 838 811 l 346 811 m 526 1075 q 392 1103 449 1075 q 304 1181 335 1131 q 293 1215 293 1197 q 310 1252 293 1238 q 349 1267 326 1267 q 399 1244 376 1267 q 531 1199 447 1199 q 603 1210 568 1199 q 663 1244 639 1222 q 717 1267 689 1267 q 751 1254 738 1267 q 765 1222 765 1242 q 750 1181 765 1201 q 657 1103 714 1132 q 526 1075 600 1075 z "},"Ě":{"ha":824,"x_min":79,"x_max":838,"o":"m 346 811 l 328 582 l 682 582 q 753 562 729 582 q 778 504 778 542 q 671 414 778 414 l 315 414 l 296 168 l 678 168 q 749 147 724 168 q 774 89 774 126 q 664 0 774 0 l 172 0 q 99 26 124 0 q 79 101 75 53 l 140 878 q 173 953 144 926 q 250 979 201 979 l 742 979 q 813 958 789 979 q 838 901 838 938 q 729 811 838 811 l 346 811 m 596 1251 q 661 1285 625 1285 q 701 1272 685 1285 q 717 1238 717 1258 q 696 1192 717 1214 l 596 1085 q 560 1061 582 1069 q 517 1053 539 1053 q 473 1061 493 1053 q 440 1085 453 1069 l 358 1192 q 343 1229 343 1211 q 363 1268 343 1251 q 407 1285 382 1285 q 467 1249 444 1285 l 519 1160 l 596 1251 z "},"Ȩ":{"ha":824,"x_min":75,"x_max":838,"o":"m 346 811 l 328 582 l 682 582 q 753 562 729 582 q 778 504 778 542 q 671 414 778 414 l 315 414 l 296 168 l 678 168 q 749 147 724 168 q 774 89 774 126 q 664 0 774 0 l 476 0 l 464 -56 l 474 -56 q 558 -81 526 -56 q 589 -150 589 -107 q 538 -240 589 -206 q 403 -274 486 -274 q 300 -261 344 -274 q 278 -246 285 -257 q 271 -221 271 -235 q 284 -185 271 -200 q 317 -176 297 -171 q 393 -187 357 -187 q 460 -151 460 -187 q 421 -125 460 -125 q 389 -129 406 -125 q 367 -133 372 -133 q 346 -125 353 -133 q 342 -104 339 -117 l 364 0 l 172 0 q 99 26 124 0 q 79 101 75 53 l 140 878 q 173 953 144 926 q 250 979 201 979 l 742 979 q 813 958 789 979 q 838 901 838 938 q 729 811 838 811 l 346 811 z "},"Ḝ":{"ha":824,"x_min":75,"x_max":838,"o":"m 526 1075 q 392 1103 449 1075 q 304 1181 335 1131 q 293 1215 293 1197 q 310 1252 293 1238 q 349 1267 326 1267 q 399 1244 376 1267 q 531 1199 447 1199 q 603 1210 568 1199 q 663 1244 639 1222 q 717 1267 689 1267 q 751 1254 738 1267 q 765 1222 765 1242 q 750 1181 765 1201 q 657 1103 714 1132 q 526 1075 600 1075 m 346 811 l 328 582 l 682 582 q 753 562 729 582 q 778 504 778 542 q 671 414 778 414 l 315 414 l 296 168 l 678 168 q 749 147 724 168 q 774 89 774 126 q 664 0 774 0 l 476 0 l 464 -56 l 474 -56 q 558 -81 526 -56 q 589 -150 589 -107 q 538 -240 589 -206 q 403 -274 486 -274 q 300 -261 344 -274 q 278 -246 285 -257 q 271 -221 271 -235 q 284 -185 271 -200 q 317 -176 297 -171 q 393 -187 357 -187 q 460 -151 460 -187 q 421 -125 460 -125 q 389 -129 406 -125 q 367 -133 372 -133 q 346 -125 353 -133 q 342 -104 339 -117 l 364 0 l 172 0 q 99 26 124 0 q 79 101 75 53 l 140 878 q 173 953 144 926 q 250 979 201 979 l 742 979 q 813 958 789 979 q 838 901 838 938 q 729 811 838 811 l 346 811 z "},"Ê":{"ha":824,"x_min":79,"x_max":838,"o":"m 346 811 l 328 582 l 682 582 q 753 562 729 582 q 778 504 778 542 q 671 414 778 414 l 315 414 l 296 168 l 678 168 q 749 147 724 168 q 774 89 774 126 q 664 0 774 0 l 172 0 q 99 26 124 0 q 79 101 75 53 l 140 878 q 173 953 144 926 q 250 979 201 979 l 742 979 q 813 958 789 979 q 838 901 838 938 q 729 811 838 811 l 346 811 m 454 1090 q 389 1057 425 1057 q 349 1070 365 1057 q 333 1104 333 1083 q 354 1150 333 1125 l 454 1257 q 535 1288 485 1288 q 610 1257 585 1288 l 692 1150 q 707 1113 707 1131 q 688 1073 707 1089 q 642 1057 668 1057 q 583 1092 604 1057 l 531 1181 l 454 1090 z "},"Ế":{"ha":824,"x_min":79,"x_max":890,"o":"m 346 811 l 328 582 l 682 582 q 753 562 729 582 q 778 504 778 542 q 671 414 778 414 l 315 414 l 296 168 l 678 168 q 749 147 724 168 q 774 89 774 126 q 664 0 774 0 l 172 0 q 99 26 124 0 q 79 101 75 53 l 140 878 q 173 953 144 926 q 250 979 201 979 l 742 979 q 813 958 789 979 q 838 901 838 938 q 729 811 838 811 l 346 811 m 757 1217 q 722 1203 742 1203 q 690 1215 703 1203 q 676 1246 676 1228 q 686 1274 676 1260 l 769 1389 q 824 1419 790 1419 q 869 1400 849 1419 q 890 1356 890 1381 q 865 1308 890 1332 l 757 1217 m 443 1076 q 399 1056 422 1056 q 362 1071 376 1056 q 347 1108 347 1086 q 369 1154 347 1133 l 458 1238 q 536 1268 493 1268 q 607 1238 578 1268 l 689 1144 q 704 1108 704 1128 q 685 1069 704 1086 q 642 1053 667 1053 q 594 1078 614 1053 l 529 1161 l 443 1076 z "},"Ệ":{"ha":824,"x_min":79,"x_max":838,"o":"m 346 811 l 328 582 l 682 582 q 753 562 729 582 q 778 504 778 542 q 671 414 778 414 l 315 414 l 296 168 l 678 168 q 749 147 724 168 q 774 89 774 126 q 664 0 774 0 l 172 0 q 99 26 124 0 q 79 101 75 53 l 140 878 q 173 953 144 926 q 250 979 201 979 l 742 979 q 813 958 789 979 q 838 901 838 938 q 729 811 838 811 l 346 811 m 418 -283 q 344 -256 372 -283 q 315 -183 315 -228 q 344 -112 315 -139 q 418 -86 372 -86 q 492 -112 464 -86 q 521 -183 521 -139 q 492 -256 521 -228 q 418 -283 464 -283 m 454 1090 q 389 1057 425 1057 q 349 1070 365 1057 q 333 1104 333 1083 q 354 1150 333 1125 l 454 1257 q 535 1288 485 1288 q 610 1257 585 1288 l 692 1150 q 707 1113 707 1131 q 688 1073 707 1089 q 642 1057 668 1057 q 583 1092 604 1057 l 531 1181 l 454 1090 z "},"Ề":{"ha":824,"x_min":79,"x_max":879,"o":"m 346 811 l 328 582 l 682 582 q 753 562 729 582 q 778 504 778 542 q 671 414 778 414 l 315 414 l 296 168 l 678 168 q 749 147 724 168 q 774 89 774 126 q 664 0 774 0 l 172 0 q 99 26 124 0 q 79 101 75 53 l 140 878 q 173 953 144 926 q 250 979 201 979 l 742 979 q 813 958 789 979 q 838 901 838 938 q 729 811 838 811 l 346 811 m 758 1218 q 722 1204 743 1204 q 692 1216 704 1204 q 679 1246 679 1228 q 688 1272 679 1260 l 761 1386 q 815 1418 783 1418 q 860 1399 840 1418 q 879 1356 879 1381 q 857 1311 879 1329 l 758 1218 m 443 1076 q 399 1056 422 1056 q 362 1071 376 1056 q 347 1108 347 1086 q 369 1154 347 1133 l 458 1238 q 536 1268 493 1268 q 607 1238 578 1268 l 689 1144 q 704 1108 704 1128 q 685 1069 704 1086 q 642 1053 667 1053 q 594 1078 614 1053 l 529 1161 l 443 1076 z "},"Ể":{"ha":824,"x_min":79,"x_max":886,"o":"m 346 811 l 328 582 l 682 582 q 753 562 729 582 q 778 504 778 542 q 671 414 778 414 l 315 414 l 296 168 l 678 168 q 749 147 724 168 q 774 89 774 126 q 664 0 774 0 l 172 0 q 99 26 124 0 q 79 101 75 53 l 140 878 q 173 953 144 926 q 250 979 201 979 l 742 979 q 813 958 789 979 q 838 901 838 938 q 729 811 838 811 l 346 811 m 765 1229 q 747 1212 761 1218 q 714 1206 732 1206 q 677 1214 692 1206 q 663 1239 663 1222 q 681 1279 663 1265 q 731 1306 699 1293 q 747 1313 735 1307 q 758 1324 758 1318 q 750 1333 758 1331 q 719 1335 742 1335 q 681 1333 704 1335 q 644 1329 657 1331 q 614 1340 625 1329 q 603 1365 603 1351 q 610 1384 603 1375 q 631 1399 617 1393 q 746 1415 676 1415 q 849 1394 811 1415 q 886 1338 886 1372 q 868 1294 886 1308 q 817 1265 850 1279 q 781 1249 793 1256 q 765 1229 769 1242 m 443 1076 q 399 1056 422 1056 q 362 1071 376 1056 q 347 1108 347 1086 q 369 1154 347 1133 l 458 1238 q 536 1268 493 1268 q 607 1238 578 1268 l 689 1144 q 704 1108 704 1128 q 685 1069 704 1086 q 642 1053 667 1053 q 594 1078 614 1053 l 529 1161 l 443 1076 z "},"Ễ":{"ha":824,"x_min":79,"x_max":838,"o":"m 346 811 l 328 582 l 682 582 q 753 562 729 582 q 778 504 778 542 q 671 414 778 414 l 315 414 l 296 168 l 678 168 q 749 147 724 168 q 774 89 774 126 q 664 0 774 0 l 172 0 q 99 26 124 0 q 79 101 75 53 l 140 878 q 173 953 144 926 q 250 979 201 979 l 742 979 q 813 958 789 979 q 838 901 838 938 q 729 811 838 811 l 346 811 m 339 1276 q 310 1288 319 1276 q 300 1318 300 1299 q 319 1363 300 1338 q 372 1407 339 1389 q 442 1425 404 1425 q 513 1414 475 1425 q 560 1400 551 1403 q 646 1379 619 1379 q 672 1385 661 1379 q 693 1403 682 1392 q 715 1419 706 1414 q 740 1425 725 1425 q 781 1382 781 1425 q 761 1338 781 1363 q 709 1294 742 1313 q 639 1276 676 1276 q 585 1283 613 1276 q 521 1301 558 1289 q 474 1315 497 1308 q 435 1321 450 1321 q 410 1315 419 1321 q 386 1299 401 1310 q 364 1282 374 1288 q 339 1276 354 1276 m 443 1076 q 399 1056 422 1056 q 362 1071 376 1056 q 347 1108 347 1086 q 369 1154 347 1133 l 458 1238 q 536 1268 493 1268 q 607 1238 578 1268 l 689 1144 q 704 1108 704 1128 q 685 1069 704 1086 q 642 1053 667 1053 q 594 1078 614 1053 l 529 1161 l 443 1076 z "},"Ȅ":{"ha":824,"x_min":79,"x_max":838,"o":"m 346 811 l 328 582 l 682 582 q 753 562 729 582 q 778 504 778 542 q 671 414 778 414 l 315 414 l 296 168 l 678 168 q 749 147 724 168 q 774 89 774 126 q 664 0 774 0 l 172 0 q 99 26 124 0 q 79 101 75 53 l 140 878 q 173 953 144 926 q 250 979 201 979 l 742 979 q 813 958 789 979 q 838 901 838 938 q 729 811 838 811 l 346 811 m 294 1197 q 285 1232 285 1215 q 302 1272 285 1256 q 343 1288 319 1288 q 376 1277 361 1288 q 399 1244 390 1267 l 444 1124 q 449 1103 449 1114 q 435 1070 449 1083 q 403 1057 421 1057 q 361 1083 378 1057 l 294 1197 m 488 1197 q 476 1232 476 1217 q 494 1271 476 1256 q 535 1286 513 1286 q 567 1276 553 1286 q 590 1244 582 1265 l 638 1124 q 642 1104 642 1114 q 628 1070 642 1083 q 596 1057 614 1057 q 554 1083 568 1057 l 488 1197 z "},"Ë":{"ha":824,"x_min":79,"x_max":838,"o":"m 346 811 l 328 582 l 682 582 q 753 562 729 582 q 778 504 778 542 q 671 414 778 414 l 315 414 l 296 168 l 678 168 q 749 147 724 168 q 774 89 774 126 q 664 0 774 0 l 172 0 q 99 26 124 0 q 79 101 75 53 l 140 878 q 173 953 144 926 q 250 979 201 979 l 742 979 q 813 958 789 979 q 838 901 838 938 q 729 811 838 811 l 346 811 m 394 1074 q 319 1101 349 1074 q 290 1172 290 1128 q 319 1243 290 1217 q 394 1269 349 1269 q 469 1243 440 1269 q 499 1172 499 1217 q 470 1101 499 1128 q 394 1074 442 1074 m 658 1074 q 584 1101 613 1074 q 556 1172 556 1128 q 584 1243 556 1217 q 658 1269 613 1269 q 733 1243 704 1269 q 763 1172 763 1217 q 733 1101 763 1128 q 658 1074 704 1074 z "},"Ė":{"ha":824,"x_min":79,"x_max":838,"o":"m 346 811 l 328 582 l 682 582 q 753 562 729 582 q 778 504 778 542 q 671 414 778 414 l 315 414 l 296 168 l 678 168 q 749 147 724 168 q 774 89 774 126 q 664 0 774 0 l 172 0 q 99 26 124 0 q 79 101 75 53 l 140 878 q 173 953 144 926 q 250 979 201 979 l 742 979 q 813 958 789 979 q 838 901 838 938 q 729 811 838 811 l 346 811 m 526 1067 q 439 1095 471 1067 q 407 1172 407 1124 q 439 1249 407 1221 q 526 1276 471 1276 q 613 1248 581 1276 q 646 1172 646 1219 q 614 1095 646 1124 q 526 1067 582 1067 z "},"Ẹ":{"ha":824,"x_min":79,"x_max":838,"o":"m 346 811 l 328 582 l 682 582 q 753 562 729 582 q 778 504 778 542 q 671 414 778 414 l 315 414 l 296 168 l 678 168 q 749 147 724 168 q 774 89 774 126 q 664 0 774 0 l 172 0 q 99 26 124 0 q 79 101 75 53 l 140 878 q 173 953 144 926 q 250 979 201 979 l 742 979 q 813 958 789 979 q 838 901 838 938 q 729 811 838 811 l 346 811 m 418 -283 q 344 -256 372 -283 q 315 -183 315 -228 q 344 -112 315 -139 q 418 -86 372 -86 q 492 -112 464 -86 q 521 -183 521 -139 q 492 -256 521 -228 q 418 -283 464 -283 z "},"È":{"ha":824,"x_min":79,"x_max":838,"o":"m 346 811 l 328 582 l 682 582 q 753 562 729 582 q 778 504 778 542 q 671 414 778 414 l 315 414 l 296 168 l 678 168 q 749 147 724 168 q 774 89 774 126 q 664 0 774 0 l 172 0 q 99 26 124 0 q 79 101 75 53 l 140 878 q 173 953 144 926 q 250 979 201 979 l 742 979 q 813 958 789 979 q 838 901 838 938 q 729 811 838 811 l 346 811 m 354 1178 q 335 1222 335 1199 q 357 1268 335 1249 q 408 1288 379 1288 q 468 1251 447 1288 l 538 1131 q 544 1104 544 1118 q 528 1069 544 1083 q 492 1056 513 1056 q 444 1078 465 1056 l 354 1178 z "},"Ẻ":{"ha":824,"x_min":79,"x_max":838,"o":"m 346 811 l 328 582 l 682 582 q 753 562 729 582 q 778 504 778 542 q 671 414 778 414 l 315 414 l 296 168 l 678 168 q 749 147 724 168 q 774 89 774 126 q 664 0 774 0 l 172 0 q 99 26 124 0 q 79 101 75 53 l 140 878 q 173 953 144 926 q 250 979 201 979 l 742 979 q 813 958 789 979 q 838 901 838 938 q 729 811 838 811 l 346 811 m 572 1086 q 553 1063 567 1071 q 521 1056 539 1056 q 485 1065 500 1056 q 469 1093 469 1075 q 486 1133 469 1119 q 532 1158 503 1147 q 557 1171 549 1165 q 565 1183 565 1176 q 525 1203 565 1203 q 451 1192 499 1203 q 422 1200 433 1189 q 411 1228 411 1211 q 418 1252 411 1242 q 439 1268 425 1263 q 550 1285 483 1285 q 656 1261 617 1285 q 694 1201 694 1238 q 676 1157 694 1172 q 625 1126 658 1142 q 589 1107 601 1115 q 572 1086 576 1099 z "},"Ȇ":{"ha":824,"x_min":79,"x_max":838,"o":"m 346 811 l 328 582 l 682 582 q 753 562 729 582 q 778 504 778 542 q 671 414 778 414 l 315 414 l 296 168 l 678 168 q 749 147 724 168 q 774 89 774 126 q 664 0 774 0 l 172 0 q 99 26 124 0 q 79 101 75 53 l 140 878 q 173 953 144 926 q 250 979 201 979 l 742 979 q 813 958 789 979 q 838 901 838 938 q 729 811 838 811 l 346 811 m 524 1268 q 658 1240 601 1268 q 746 1163 715 1213 q 757 1126 757 1146 q 740 1091 757 1106 q 701 1076 724 1076 q 651 1097 672 1076 q 519 1144 601 1144 q 447 1132 482 1144 q 388 1097 411 1119 q 335 1076 363 1076 q 299 1088 314 1076 q 285 1119 285 1100 q 301 1163 285 1140 q 393 1240 336 1211 q 524 1268 450 1268 z "},"Ē":{"ha":824,"x_min":79,"x_max":838,"o":"m 346 811 l 328 582 l 682 582 q 753 562 729 582 q 778 504 778 542 q 671 414 778 414 l 315 414 l 296 168 l 678 168 q 749 147 724 168 q 774 89 774 126 q 664 0 774 0 l 172 0 q 99 26 124 0 q 79 101 75 53 l 140 878 q 173 953 144 926 q 250 979 201 979 l 742 979 q 813 958 789 979 q 838 901 838 938 q 729 811 838 811 l 346 811 m 353 1106 q 307 1123 325 1106 q 289 1167 289 1140 q 310 1219 289 1201 q 364 1236 331 1236 l 700 1236 q 746 1219 728 1236 q 764 1172 764 1201 q 743 1122 764 1139 q 689 1106 722 1106 l 353 1106 z "},"Ḗ":{"ha":824,"x_min":79,"x_max":838,"o":"m 346 811 l 328 582 l 682 582 q 753 562 729 582 q 778 504 778 542 q 671 414 778 414 l 315 414 l 296 168 l 678 168 q 749 147 724 168 q 774 89 774 126 q 664 0 774 0 l 172 0 q 99 26 124 0 q 79 101 75 53 l 140 878 q 173 953 144 926 q 250 979 201 979 l 742 979 q 813 958 789 979 q 838 901 838 938 q 729 811 838 811 l 346 811 m 353 1106 q 307 1123 325 1106 q 289 1167 289 1140 q 310 1219 289 1201 q 364 1236 331 1236 l 700 1236 q 746 1219 728 1236 q 764 1172 764 1201 q 743 1122 764 1139 q 689 1106 722 1106 l 353 1106 m 610 1299 q 564 1279 589 1279 q 528 1292 543 1279 q 514 1325 514 1306 q 526 1360 514 1342 l 607 1476 q 667 1510 631 1510 q 717 1489 694 1510 q 739 1442 739 1468 q 714 1392 739 1415 l 610 1299 z "},"Ḕ":{"ha":824,"x_min":79,"x_max":838,"o":"m 346 811 l 328 582 l 682 582 q 753 562 729 582 q 778 504 778 542 q 671 414 778 414 l 315 414 l 296 168 l 678 168 q 749 147 724 168 q 774 89 774 126 q 664 0 774 0 l 172 0 q 99 26 124 0 q 79 101 75 53 l 140 878 q 173 953 144 926 q 250 979 201 979 l 742 979 q 813 958 789 979 q 838 901 838 938 q 729 811 838 811 l 346 811 m 353 1106 q 307 1123 325 1106 q 289 1167 289 1140 q 310 1219 289 1201 q 364 1236 331 1236 l 700 1236 q 746 1219 728 1236 q 764 1172 764 1201 q 743 1122 764 1139 q 689 1106 722 1106 l 353 1106 m 372 1400 q 353 1444 353 1421 q 375 1490 353 1471 q 426 1510 397 1510 q 486 1474 465 1510 l 556 1353 q 563 1326 563 1340 q 547 1292 563 1306 q 510 1278 531 1278 q 463 1300 483 1278 l 372 1400 z "},"Ę":{"ha":824,"x_min":75,"x_max":838,"o":"m 346 811 l 328 582 l 682 582 q 753 562 729 582 q 778 504 778 542 q 671 414 778 414 l 315 414 l 296 168 l 678 168 q 749 147 724 168 q 774 89 774 126 q 754 31 774 50 q 692 0 735 11 q 633 -34 656 -8 q 611 -94 611 -60 q 631 -147 611 -128 q 679 -165 650 -165 q 709 -162 694 -165 q 746 -153 724 -160 q 758 -151 750 -151 q 783 -164 774 -151 q 793 -193 793 -176 q 764 -242 793 -226 q 649 -274 708 -274 q 522 -233 569 -274 q 475 -126 475 -192 q 490 -58 475 -90 q 536 0 506 -25 l 172 0 q 99 26 124 0 q 79 101 75 53 l 140 878 q 173 953 144 926 q 250 979 201 979 l 742 979 q 813 958 789 979 q 838 901 838 938 q 729 811 838 811 l 346 811 z "},"Ẽ":{"ha":824,"x_min":79,"x_max":838,"o":"m 346 811 l 328 582 l 682 582 q 753 562 729 582 q 778 504 778 542 q 671 414 778 414 l 315 414 l 296 168 l 678 168 q 749 147 724 168 q 774 89 774 126 q 664 0 774 0 l 172 0 q 99 26 124 0 q 79 101 75 53 l 140 878 q 173 953 144 926 q 250 979 201 979 l 742 979 q 813 958 789 979 q 838 901 838 938 q 729 811 838 811 l 346 811 m 624 1074 q 574 1082 599 1074 q 515 1107 549 1090 q 426 1136 457 1136 q 395 1128 407 1136 q 369 1106 383 1121 q 347 1086 356 1092 q 325 1081 339 1081 q 296 1094 306 1081 q 286 1129 286 1107 q 303 1194 286 1161 q 353 1249 321 1228 q 429 1271 386 1271 q 479 1263 454 1271 q 538 1238 504 1254 q 626 1208 596 1208 q 657 1215 646 1208 q 683 1238 668 1222 q 706 1257 697 1251 q 728 1263 714 1263 q 767 1215 767 1263 q 749 1150 767 1183 q 699 1095 732 1117 q 624 1074 667 1074 z "},"F":{"ha":794,"x_min":75,"x_max":824,"o":"m 349 808 l 331 583 l 669 583 q 764 506 764 583 q 738 434 764 456 q 656 413 711 413 l 318 413 l 293 99 q 258 21 289 50 q 179 -8 228 -8 q 103 22 131 -8 q 79 100 75 51 l 140 878 q 173 953 144 926 q 250 979 201 979 l 728 979 q 824 899 824 979 q 797 829 824 850 q 715 808 771 808 l 349 808 z "},"G":{"ha":1025,"x_min":81,"x_max":964,"o":"m 869 540 q 930 519 908 540 q 949 460 951 497 l 928 189 q 913 101 924 132 q 877 53 901 71 q 807 24 853 36 q 682 -3 751 7 q 551 -12 613 -12 q 299 44 406 -12 q 137 207 193 101 q 81 456 81 313 q 144 739 81 618 q 325 926 207 860 q 600 992 443 992 q 781 969 701 992 q 911 913 861 946 q 964 826 964 879 q 940 765 964 792 q 882 739 917 739 q 829 756 857 739 q 728 803 779 788 q 603 819 676 819 q 380 722 460 819 q 300 456 300 625 q 369 232 300 310 q 579 154 439 154 q 732 178 653 154 l 750 390 l 629 390 q 543 463 543 390 q 568 519 543 499 q 632 540 593 540 l 869 540 z "},"Ğ":{"ha":1025,"x_min":81,"x_max":964,"o":"m 869 540 q 930 519 908 540 q 949 460 951 497 l 928 189 q 913 101 924 132 q 877 53 901 71 q 807 24 853 36 q 682 -3 751 7 q 551 -12 613 -12 q 299 44 406 -12 q 137 207 193 101 q 81 456 81 313 q 144 739 81 618 q 325 926 207 860 q 600 992 443 992 q 781 969 701 992 q 911 913 861 946 q 964 826 964 879 q 940 765 964 792 q 882 739 917 739 q 829 756 857 739 q 728 803 779 788 q 603 819 676 819 q 380 722 460 819 q 300 456 300 625 q 369 232 300 310 q 579 154 439 154 q 732 178 653 154 l 750 390 l 629 390 q 543 463 543 390 q 568 519 543 499 q 632 540 593 540 l 869 540 m 632 1075 q 497 1103 554 1075 q 410 1181 440 1131 q 399 1215 399 1197 q 415 1252 399 1238 q 454 1267 432 1267 q 504 1244 482 1267 q 636 1199 553 1199 q 709 1210 674 1199 q 768 1244 744 1222 q 822 1267 794 1267 q 857 1254 843 1267 q 871 1222 871 1242 q 856 1181 871 1201 q 763 1103 819 1132 q 632 1075 706 1075 z "},"Ǧ":{"ha":1025,"x_min":81,"x_max":964,"o":"m 869 540 q 930 519 908 540 q 949 460 951 497 l 928 189 q 913 101 924 132 q 877 53 901 71 q 807 24 853 36 q 682 -3 751 7 q 551 -12 613 -12 q 299 44 406 -12 q 137 207 193 101 q 81 456 81 313 q 144 739 81 618 q 325 926 207 860 q 600 992 443 992 q 781 969 701 992 q 911 913 861 946 q 964 826 964 879 q 940 765 964 792 q 882 739 917 739 q 829 756 857 739 q 728 803 779 788 q 603 819 676 819 q 380 722 460 819 q 300 456 300 625 q 369 232 300 310 q 579 154 439 154 q 732 178 653 154 l 750 390 l 629 390 q 543 463 543 390 q 568 519 543 499 q 632 540 593 540 l 869 540 m 701 1251 q 767 1285 731 1285 q 806 1272 790 1285 q 822 1238 822 1258 q 801 1192 822 1214 l 701 1085 q 666 1061 688 1069 q 622 1053 644 1053 q 578 1061 599 1053 q 546 1085 558 1069 l 464 1192 q 449 1229 449 1211 q 468 1268 449 1251 q 513 1285 488 1285 q 572 1249 550 1285 l 625 1160 l 701 1251 z "},"Ĝ":{"ha":1025,"x_min":81,"x_max":964,"o":"m 869 540 q 930 519 908 540 q 949 460 951 497 l 928 189 q 913 101 924 132 q 877 53 901 71 q 807 24 853 36 q 682 -3 751 7 q 551 -12 613 -12 q 299 44 406 -12 q 137 207 193 101 q 81 456 81 313 q 144 739 81 618 q 325 926 207 860 q 600 992 443 992 q 781 969 701 992 q 911 913 861 946 q 964 826 964 879 q 940 765 964 792 q 882 739 917 739 q 829 756 857 739 q 728 803 779 788 q 603 819 676 819 q 380 722 460 819 q 300 456 300 625 q 369 232 300 310 q 579 154 439 154 q 732 178 653 154 l 750 390 l 629 390 q 543 463 543 390 q 568 519 543 499 q 632 540 593 540 l 869 540 m 560 1090 q 494 1057 531 1057 q 455 1070 471 1057 q 439 1104 439 1083 q 460 1150 439 1125 l 560 1257 q 640 1288 590 1288 q 715 1257 690 1288 l 797 1150 q 813 1113 813 1131 q 793 1073 813 1089 q 747 1057 774 1057 q 689 1092 710 1057 l 636 1181 l 560 1090 z "},"Ģ":{"ha":1025,"x_min":81,"x_max":964,"o":"m 869 540 q 930 519 908 540 q 949 460 951 497 l 928 189 q 913 101 924 132 q 877 53 901 71 q 807 24 853 36 q 682 -3 751 7 q 551 -12 613 -12 q 299 44 406 -12 q 137 207 193 101 q 81 456 81 313 q 144 739 81 618 q 325 926 207 860 q 600 992 443 992 q 781 969 701 992 q 911 913 861 946 q 964 826 964 879 q 940 765 964 792 q 882 739 917 739 q 829 756 857 739 q 728 803 779 788 q 603 819 676 819 q 380 722 460 819 q 300 456 300 625 q 369 232 300 310 q 579 154 439 154 q 732 178 653 154 l 750 390 l 629 390 q 543 463 543 390 q 568 519 543 499 q 632 540 593 540 l 869 540 m 531 -83 q 615 -114 585 -83 q 644 -193 644 -144 q 627 -282 644 -240 q 582 -353 610 -324 q 525 -379 557 -379 q 494 -370 507 -379 q 481 -346 481 -361 q 493 -315 481 -332 q 526 -257 517 -283 l 519 -257 q 456 -237 482 -257 q 431 -178 431 -217 q 460 -110 431 -137 q 531 -83 490 -83 z "},"Ġ":{"ha":1025,"x_min":81,"x_max":964,"o":"m 869 540 q 930 519 908 540 q 949 460 951 497 l 928 189 q 913 101 924 132 q 877 53 901 71 q 807 24 853 36 q 682 -3 751 7 q 551 -12 613 -12 q 299 44 406 -12 q 137 207 193 101 q 81 456 81 313 q 144 739 81 618 q 325 926 207 860 q 600 992 443 992 q 781 969 701 992 q 911 913 861 946 q 964 826 964 879 q 940 765 964 792 q 882 739 917 739 q 829 756 857 739 q 728 803 779 788 q 603 819 676 819 q 380 722 460 819 q 300 456 300 625 q 369 232 300 310 q 579 154 439 154 q 732 178 653 154 l 750 390 l 629 390 q 543 463 543 390 q 568 519 543 499 q 632 540 593 540 l 869 540 m 632 1067 q 544 1095 576 1067 q 513 1172 513 1124 q 544 1249 513 1221 q 632 1276 576 1276 q 719 1248 686 1276 q 751 1172 751 1219 q 719 1095 751 1124 q 632 1067 688 1067 z "},"Ḡ":{"ha":1025,"x_min":81,"x_max":964,"o":"m 869 540 q 930 519 908 540 q 949 460 951 497 l 928 189 q 913 101 924 132 q 877 53 901 71 q 807 24 853 36 q 682 -3 751 7 q 551 -12 613 -12 q 299 44 406 -12 q 137 207 193 101 q 81 456 81 313 q 144 739 81 618 q 325 926 207 860 q 600 992 443 992 q 781 969 701 992 q 911 913 861 946 q 964 826 964 879 q 940 765 964 792 q 882 739 917 739 q 829 756 857 739 q 728 803 779 788 q 603 819 676 819 q 380 722 460 819 q 300 456 300 625 q 369 232 300 310 q 579 154 439 154 q 732 178 653 154 l 750 390 l 629 390 q 543 463 543 390 q 568 519 543 499 q 632 540 593 540 l 869 540 m 458 1106 q 413 1123 431 1106 q 394 1167 394 1140 q 415 1219 394 1201 q 469 1236 436 1236 l 806 1236 q 851 1219 833 1236 q 869 1172 869 1201 q 849 1122 869 1139 q 794 1106 828 1106 l 458 1106 z "},"H":{"ha":1071,"x_min":75,"x_max":1019,"o":"m 917 986 q 992 957 965 986 q 1015 879 1019 928 l 954 99 q 919 21 950 50 q 840 -8 888 -8 q 765 21 792 -8 q 742 100 738 50 l 767 411 l 317 411 l 292 99 q 256 21 288 50 q 178 -8 225 -8 q 102 21 129 -8 q 79 100 75 50 l 140 881 q 176 958 144 929 q 256 986 207 986 q 331 957 304 986 q 353 879 357 928 l 329 583 l 779 583 l 803 881 q 838 958 807 929 q 917 986 869 986 z "},"Ħ":{"ha":1154,"x_min":36,"x_max":1190,"o":"m 1099 861 q 1166 840 1142 861 q 1190 786 1190 819 q 1163 725 1190 747 q 1086 703 1136 703 l 1043 703 l 996 99 q 960 21 992 50 q 881 -8 929 -8 q 806 21 832 -8 q 783 100 779 50 l 808 411 l 358 411 l 333 99 q 298 21 329 50 q 219 -8 267 -8 q 144 21 171 -8 q 121 100 117 50 l 168 703 l 126 703 q 59 724 82 703 q 36 778 36 744 q 62 839 36 817 q 138 861 88 861 l 181 861 l 182 881 q 217 958 186 929 q 296 986 249 986 q 372 957 344 986 q 394 879 399 928 l 393 861 l 843 861 l 844 881 q 880 958 849 929 q 958 986 911 986 q 1034 957 1007 986 q 1057 879 1061 928 l 1056 861 l 1099 861 m 831 703 l 381 703 l 371 583 l 821 583 l 831 703 z "},"Ḫ":{"ha":1071,"x_min":79,"x_max":1015,"o":"m 917 986 q 992 957 965 986 q 1015 879 1019 928 l 954 99 q 919 21 950 50 q 840 -8 888 -8 q 765 21 792 -8 q 742 100 738 50 l 767 411 l 317 411 l 292 99 q 256 21 288 50 q 178 -8 225 -8 q 102 21 129 -8 q 79 100 75 50 l 140 881 q 176 958 144 929 q 256 986 207 986 q 331 957 304 986 q 353 879 357 928 l 329 583 l 779 583 l 803 881 q 838 958 807 929 q 917 986 869 986 m 492 -315 q 347 -273 408 -315 q 256 -160 285 -231 q 250 -135 250 -143 q 269 -94 250 -111 q 311 -78 288 -78 q 363 -108 344 -78 q 419 -162 383 -142 q 500 -183 456 -183 q 638 -108 583 -183 q 693 -76 660 -76 q 731 -92 715 -76 q 746 -131 746 -107 q 740 -160 746 -144 q 642 -273 708 -231 q 492 -315 575 -315 z "},"Ĥ":{"ha":1071,"x_min":79,"x_max":1015,"o":"m 917 986 q 992 957 965 986 q 1015 879 1019 928 l 954 99 q 919 21 950 50 q 840 -8 888 -8 q 765 21 792 -8 q 742 100 738 50 l 767 411 l 317 411 l 292 99 q 256 21 288 50 q 178 -8 225 -8 q 102 21 129 -8 q 79 100 75 50 l 140 881 q 176 958 144 929 q 256 986 207 986 q 331 957 304 986 q 353 879 357 928 l 329 583 l 779 583 l 803 881 q 838 958 807 929 q 917 986 869 986 m 531 1090 q 465 1057 501 1057 q 426 1070 442 1057 q 410 1104 410 1083 q 431 1150 410 1125 l 531 1257 q 611 1288 561 1288 q 686 1257 661 1288 l 768 1150 q 783 1113 783 1131 q 764 1073 783 1089 q 718 1057 744 1057 q 660 1092 681 1057 l 607 1181 l 531 1090 z "},"Ḥ":{"ha":1071,"x_min":79,"x_max":1015,"o":"m 917 986 q 992 957 965 986 q 1015 879 1019 928 l 954 99 q 919 21 950 50 q 840 -8 888 -8 q 765 21 792 -8 q 742 100 738 50 l 767 411 l 317 411 l 292 99 q 256 21 288 50 q 178 -8 225 -8 q 102 21 129 -8 q 79 100 75 50 l 140 881 q 176 958 144 929 q 256 986 207 986 q 331 957 304 986 q 353 879 357 928 l 329 583 l 779 583 l 803 881 q 838 958 807 929 q 917 986 869 986 m 494 -283 q 420 -256 449 -283 q 392 -183 392 -228 q 420 -112 392 -139 q 494 -86 449 -86 q 569 -112 540 -86 q 597 -183 597 -139 q 569 -256 597 -228 q 494 -283 540 -283 z "},"I":{"ha":411,"x_min":75,"x_max":361,"o":"m 179 -8 q 102 21 129 -8 q 79 100 75 50 l 140 881 q 176 958 144 929 q 256 986 207 986 q 334 957 307 986 q 357 879 361 928 l 296 99 q 260 21 292 50 q 179 -8 229 -8 z "},"Í":{"ha":411,"x_min":79,"x_max":468,"o":"m 179 -8 q 102 21 129 -8 q 79 100 75 50 l 140 881 q 176 958 144 929 q 256 986 207 986 q 334 957 307 986 q 357 879 361 928 l 296 99 q 260 21 292 50 q 179 -8 229 -8 m 339 1076 q 293 1057 318 1057 q 258 1070 272 1057 q 243 1103 243 1083 q 256 1138 243 1119 l 336 1254 q 396 1288 360 1288 q 446 1267 424 1288 q 468 1219 468 1246 q 443 1169 468 1193 l 339 1076 z "},"Ĭ":{"ha":411,"x_min":40,"x_max":513,"o":"m 179 -8 q 102 21 129 -8 q 79 100 75 50 l 140 881 q 176 958 144 929 q 256 986 207 986 q 334 957 307 986 q 357 879 361 928 l 296 99 q 260 21 292 50 q 179 -8 229 -8 m 274 1075 q 139 1103 196 1075 q 51 1181 82 1131 q 40 1215 40 1197 q 57 1252 40 1238 q 96 1267 74 1267 q 146 1244 124 1267 q 278 1199 194 1199 q 351 1210 315 1199 q 410 1244 386 1222 q 464 1267 436 1267 q 499 1254 485 1267 q 513 1222 513 1242 q 497 1181 513 1201 q 404 1103 461 1132 q 274 1075 347 1075 z "},"Î":{"ha":411,"x_min":79,"x_max":454,"o":"m 179 -8 q 102 21 129 -8 q 79 100 75 50 l 140 881 q 176 958 144 929 q 256 986 207 986 q 334 957 307 986 q 357 879 361 928 l 296 99 q 260 21 292 50 q 179 -8 229 -8 m 201 1090 q 136 1057 172 1057 q 97 1070 113 1057 q 81 1104 81 1083 q 101 1150 81 1125 l 201 1257 q 282 1288 232 1288 q 357 1257 332 1288 l 439 1150 q 454 1113 454 1131 q 435 1073 454 1089 q 389 1057 415 1057 q 331 1092 351 1057 l 278 1181 l 201 1090 z "},"Ȉ":{"ha":411,"x_min":32,"x_max":389,"o":"m 179 -8 q 102 21 129 -8 q 79 100 75 50 l 140 881 q 176 958 144 929 q 256 986 207 986 q 334 957 307 986 q 357 879 361 928 l 296 99 q 260 21 292 50 q 179 -8 229 -8 m 42 1197 q 32 1232 32 1215 q 49 1272 32 1256 q 90 1288 67 1288 q 123 1277 108 1288 q 146 1244 138 1267 l 192 1124 q 196 1103 196 1114 q 182 1070 196 1083 q 150 1057 168 1057 q 108 1083 125 1057 l 42 1197 m 235 1197 q 224 1232 224 1217 q 242 1271 224 1256 q 282 1286 260 1286 q 315 1276 300 1286 q 338 1244 329 1265 l 385 1124 q 389 1104 389 1114 q 375 1070 389 1083 q 343 1057 361 1057 q 301 1083 315 1057 l 235 1197 z "},"Ï":{"ha":411,"x_min":38,"x_max":510,"o":"m 179 -8 q 102 21 129 -8 q 79 100 75 50 l 140 881 q 176 958 144 929 q 256 986 207 986 q 334 957 307 986 q 357 879 361 928 l 296 99 q 260 21 292 50 q 179 -8 229 -8 m 142 1074 q 67 1101 96 1074 q 38 1172 38 1128 q 67 1243 38 1217 q 142 1269 96 1269 q 217 1243 188 1269 q 246 1172 246 1217 q 217 1101 246 1128 q 142 1074 189 1074 m 406 1074 q 331 1101 360 1074 q 303 1172 303 1128 q 331 1243 303 1217 q 406 1269 360 1269 q 481 1243 451 1269 q 510 1172 510 1217 q 481 1101 510 1128 q 406 1074 451 1074 z "},"Ḯ":{"ha":411,"x_min":38,"x_max":510,"o":"m 179 -8 q 102 21 129 -8 q 79 100 75 50 l 140 881 q 176 958 144 929 q 256 986 207 986 q 334 957 307 986 q 357 879 361 928 l 296 99 q 260 21 292 50 q 179 -8 229 -8 m 142 1074 q 67 1101 96 1074 q 38 1172 38 1128 q 67 1243 38 1217 q 142 1269 96 1269 q 217 1243 188 1269 q 246 1172 246 1217 q 217 1101 246 1128 q 142 1074 189 1074 m 406 1074 q 331 1101 360 1074 q 303 1172 303 1128 q 331 1243 303 1217 q 406 1269 360 1269 q 481 1243 451 1269 q 510 1172 510 1217 q 481 1101 510 1128 q 406 1074 451 1074 m 357 1299 q 311 1279 336 1279 q 276 1292 290 1279 q 261 1325 261 1306 q 274 1360 261 1342 l 354 1476 q 414 1510 378 1510 q 464 1489 442 1510 q 486 1442 486 1468 q 461 1392 486 1415 l 357 1299 z "},"İ":{"ha":411,"x_min":79,"x_max":393,"o":"m 179 -8 q 102 21 129 -8 q 79 100 75 50 l 140 881 q 176 958 144 929 q 256 986 207 986 q 334 957 307 986 q 357 879 361 928 l 296 99 q 260 21 292 50 q 179 -8 229 -8 m 274 1067 q 186 1095 218 1067 q 154 1172 154 1124 q 186 1249 154 1221 q 274 1276 218 1276 q 360 1248 328 1276 q 393 1172 393 1219 q 361 1095 393 1124 q 274 1067 329 1067 z "},"Ị":{"ha":411,"x_min":63,"x_max":357,"o":"m 179 -8 q 102 21 129 -8 q 79 100 75 50 l 140 881 q 176 958 144 929 q 256 986 207 986 q 334 957 307 986 q 357 879 361 928 l 296 99 q 260 21 292 50 q 179 -8 229 -8 m 165 -283 q 91 -256 119 -283 q 63 -183 63 -228 q 91 -112 63 -139 q 165 -86 119 -86 q 240 -112 211 -86 q 268 -183 268 -139 q 240 -256 268 -228 q 165 -283 211 -283 z "},"Ì":{"ha":411,"x_min":79,"x_max":357,"o":"m 179 -8 q 102 21 129 -8 q 79 100 75 50 l 140 881 q 176 958 144 929 q 256 986 207 986 q 334 957 307 986 q 357 879 361 928 l 296 99 q 260 21 292 50 q 179 -8 229 -8 m 101 1178 q 82 1222 82 1199 q 104 1268 82 1249 q 156 1288 126 1288 q 215 1251 194 1288 l 285 1131 q 292 1104 292 1118 q 276 1069 292 1083 q 239 1056 260 1056 q 192 1078 213 1056 l 101 1178 z "},"Ỉ":{"ha":411,"x_min":79,"x_max":442,"o":"m 179 -8 q 102 21 129 -8 q 79 100 75 50 l 140 881 q 176 958 144 929 q 256 986 207 986 q 334 957 307 986 q 357 879 361 928 l 296 99 q 260 21 292 50 q 179 -8 229 -8 m 319 1086 q 300 1063 314 1071 q 268 1056 286 1056 q 232 1065 247 1056 q 217 1093 217 1075 q 233 1133 217 1119 q 279 1158 250 1147 q 304 1171 296 1165 q 313 1183 313 1176 q 272 1203 313 1203 q 199 1192 246 1203 q 169 1200 181 1189 q 158 1228 158 1211 q 165 1252 158 1242 q 186 1268 172 1263 q 297 1285 231 1285 q 403 1261 364 1285 q 442 1201 442 1238 q 424 1157 442 1172 q 372 1126 406 1142 q 336 1107 349 1115 q 319 1086 324 1099 z "},"Ȋ":{"ha":411,"x_min":32,"x_max":504,"o":"m 179 -8 q 102 21 129 -8 q 79 100 75 50 l 140 881 q 176 958 144 929 q 256 986 207 986 q 334 957 307 986 q 357 879 361 928 l 296 99 q 260 21 292 50 q 179 -8 229 -8 m 271 1268 q 406 1240 349 1268 q 493 1163 463 1213 q 504 1126 504 1146 q 488 1091 504 1106 q 449 1076 471 1076 q 399 1097 419 1076 q 267 1144 349 1144 q 194 1132 229 1144 q 135 1097 158 1119 q 82 1076 110 1076 q 47 1088 61 1076 q 32 1119 32 1100 q 49 1163 32 1140 q 140 1240 83 1211 q 271 1268 197 1268 z "},"Ī":{"ha":411,"x_min":36,"x_max":511,"o":"m 179 -8 q 102 21 129 -8 q 79 100 75 50 l 140 881 q 176 958 144 929 q 256 986 207 986 q 334 957 307 986 q 357 879 361 928 l 296 99 q 260 21 292 50 q 179 -8 229 -8 m 100 1106 q 54 1123 72 1106 q 36 1167 36 1140 q 57 1219 36 1201 q 111 1236 78 1236 l 447 1236 q 493 1219 475 1236 q 511 1172 511 1201 q 490 1122 511 1139 q 436 1106 469 1106 l 100 1106 z "},"Į":{"ha":411,"x_min":7,"x_max":361,"o":"m 238 7 q 168 -35 192 -12 q 144 -94 144 -58 q 165 -147 144 -128 q 218 -165 185 -165 q 285 -153 246 -165 q 299 -151 289 -151 q 323 -162 314 -151 q 332 -190 332 -174 q 324 -219 332 -204 q 303 -242 317 -233 q 183 -274 254 -274 q 55 -232 103 -274 q 7 -124 7 -190 q 99 25 7 -28 q 79 100 75 53 l 140 881 q 176 958 144 929 q 256 986 207 986 q 334 957 307 986 q 357 879 361 928 l 296 99 q 277 42 293 67 q 238 7 261 18 z "},"Ĩ":{"ha":411,"x_min":33,"x_max":514,"o":"m 179 -8 q 102 21 129 -8 q 79 100 75 50 l 140 881 q 176 958 144 929 q 256 986 207 986 q 334 957 307 986 q 357 879 361 928 l 296 99 q 260 21 292 50 q 179 -8 229 -8 m 371 1074 q 321 1082 346 1074 q 263 1107 296 1090 q 174 1136 204 1136 q 142 1128 154 1136 q 117 1106 131 1121 q 94 1086 103 1092 q 72 1081 86 1081 q 43 1094 53 1081 q 33 1129 33 1107 q 51 1194 33 1161 q 101 1249 68 1228 q 176 1271 133 1271 q 226 1263 201 1271 q 285 1238 251 1254 q 374 1208 343 1208 q 404 1215 393 1208 q 431 1238 415 1222 q 453 1257 444 1251 q 475 1263 461 1263 q 514 1215 514 1263 q 497 1150 514 1183 q 447 1095 479 1117 q 371 1074 414 1074 z "},"J":{"ha":524,"x_min":-42,"x_max":474,"o":"m 81 -8 q -42 76 -42 -17 q -19 140 -42 119 q 50 164 3 161 l 96 167 q 204 285 196 174 l 253 881 q 288 958 256 929 q 369 986 319 986 q 446 957 418 986 q 469 881 474 928 l 424 288 q 338 77 413 151 q 125 -6 263 3 l 81 -8 z "},"Ĵ":{"ha":524,"x_min":-42,"x_max":565,"o":"m 81 -8 q -42 76 -42 -17 q -19 140 -42 119 q 50 164 3 161 l 96 167 q 204 285 196 174 l 253 881 q 288 958 256 929 q 369 986 319 986 q 446 957 418 986 q 469 881 474 928 l 424 288 q 338 77 413 151 q 125 -6 263 3 l 81 -8 m 313 1090 q 247 1057 283 1057 q 208 1070 224 1057 q 192 1104 192 1083 q 213 1150 192 1125 l 313 1257 q 393 1288 343 1288 q 468 1257 443 1288 l 550 1150 q 565 1113 565 1131 q 546 1073 565 1089 q 500 1057 526 1057 q 442 1092 463 1057 l 389 1181 l 313 1090 z "},"K":{"ha":942,"x_min":75,"x_max":901,"o":"m 849 146 q 868 94 868 125 q 838 25 868 56 q 768 -6 808 -6 q 693 32 725 -6 l 324 449 l 296 99 q 260 21 292 50 q 179 -8 229 -8 q 102 21 129 -8 q 79 100 75 50 l 140 881 q 176 958 144 929 q 256 986 207 986 q 334 957 307 986 q 357 879 361 928 l 331 547 l 742 954 q 814 988 775 988 q 876 961 850 988 q 901 897 901 935 q 864 817 901 854 l 538 501 l 849 146 z "},"Ķ":{"ha":942,"x_min":79,"x_max":901,"o":"m 849 146 q 868 94 868 125 q 838 25 868 56 q 768 -6 808 -6 q 693 32 725 -6 l 324 449 l 296 99 q 260 21 292 50 q 179 -8 229 -8 q 102 21 129 -8 q 79 100 75 50 l 140 881 q 176 958 144 929 q 256 986 207 986 q 334 957 307 986 q 357 879 361 928 l 331 547 l 742 954 q 814 988 775 988 q 876 961 850 988 q 901 897 901 935 q 864 817 901 854 l 538 501 l 849 146 m 429 -83 q 513 -114 483 -83 q 543 -193 543 -144 q 526 -282 543 -240 q 481 -353 508 -324 q 424 -379 456 -379 q 392 -370 406 -379 q 379 -346 379 -361 q 392 -315 379 -332 q 425 -257 415 -283 l 418 -257 q 355 -237 381 -257 q 329 -178 329 -217 q 359 -110 329 -137 q 429 -83 389 -83 z "},"L":{"ha":782,"x_min":75,"x_max":751,"o":"m 172 0 q 99 26 124 0 q 79 101 75 53 l 140 881 q 176 958 144 929 q 257 986 207 986 q 334 957 307 986 q 357 879 361 928 l 301 176 l 656 176 q 727 156 703 176 q 751 96 751 135 q 724 23 751 46 q 643 0 697 0 l 172 0 z "},"Ǉ":{"ha":1310,"x_min":75,"x_max":1260,"o":"m 172 0 q 99 26 124 0 q 79 101 75 53 l 140 881 q 176 958 144 929 q 257 986 207 986 q 334 957 307 986 q 357 879 361 928 l 301 176 l 614 176 q 685 156 661 176 q 710 96 710 135 q 683 23 710 46 q 601 0 656 0 l 172 0 m 867 -8 q 775 8 806 -12 q 744 71 744 29 q 767 139 744 117 q 836 164 789 161 l 882 167 q 990 285 982 174 l 1039 881 q 1075 958 1043 929 q 1156 986 1107 986 q 1232 957 1204 986 q 1256 881 1260 928 l 1210 288 q 1124 77 1199 151 q 911 -6 1049 3 l 867 -8 z "},"Ĺ":{"ha":782,"x_min":79,"x_max":751,"o":"m 172 0 q 99 26 124 0 q 79 101 75 53 l 140 881 q 176 958 144 929 q 257 986 207 986 q 334 957 307 986 q 357 879 361 928 l 301 176 l 656 176 q 727 156 703 176 q 751 96 751 135 q 724 23 751 46 q 643 0 697 0 l 172 0 m 338 1076 q 292 1057 317 1057 q 256 1070 271 1057 q 242 1103 242 1083 q 254 1138 242 1119 l 335 1254 q 394 1288 358 1288 q 444 1267 422 1288 q 467 1219 467 1246 q 442 1169 467 1193 l 338 1076 z "},"Ľ":{"ha":782,"x_min":79,"x_max":751,"o":"m 172 0 q 99 26 124 0 q 79 101 75 53 l 140 881 q 176 958 144 929 q 257 986 207 986 q 334 957 307 986 q 357 879 361 928 l 301 176 l 656 176 q 727 156 703 176 q 751 96 751 135 q 724 23 751 46 q 643 0 697 0 l 172 0 m 564 728 q 545 698 558 708 q 514 688 532 688 q 479 700 493 688 q 467 733 465 713 l 482 935 q 503 977 483 963 q 547 992 522 992 q 590 977 572 992 q 608 938 608 963 q 607 921 608 926 l 564 728 z "},"Ļ":{"ha":782,"x_min":79,"x_max":751,"o":"m 172 0 q 99 26 124 0 q 79 101 75 53 l 140 881 q 176 958 144 929 q 257 986 207 986 q 334 957 307 986 q 357 879 361 928 l 301 176 l 656 176 q 727 156 703 176 q 751 96 751 135 q 724 23 751 46 q 643 0 697 0 l 172 0 m 390 -83 q 474 -114 444 -83 q 504 -193 504 -144 q 487 -282 504 -240 q 442 -353 469 -324 q 385 -379 417 -379 q 353 -370 367 -379 q 340 -346 340 -361 q 353 -315 340 -332 q 386 -257 376 -283 l 379 -257 q 316 -237 342 -257 q 290 -178 290 -217 q 320 -110 290 -137 q 390 -83 350 -83 z "},"Ŀ":{"ha":782,"x_min":79,"x_max":751,"o":"m 172 0 q 99 26 124 0 q 79 101 75 53 l 140 881 q 176 958 144 929 q 257 986 207 986 q 334 957 307 986 q 357 879 361 928 l 301 176 l 656 176 q 727 156 703 176 q 751 96 751 135 q 724 23 751 46 q 643 0 697 0 l 172 0 m 556 386 q 468 415 500 386 q 436 492 436 443 q 468 568 436 540 q 556 596 500 596 q 642 567 610 596 q 675 492 675 539 q 643 415 675 443 q 556 386 611 386 z "},"Ḷ":{"ha":782,"x_min":79,"x_max":751,"o":"m 172 0 q 99 26 124 0 q 79 101 75 53 l 140 881 q 176 958 144 929 q 257 986 207 986 q 334 957 307 986 q 357 879 361 928 l 301 176 l 656 176 q 727 156 703 176 q 751 96 751 135 q 724 23 751 46 q 643 0 697 0 l 172 0 m 393 -283 q 319 -256 347 -283 q 290 -183 290 -228 q 319 -112 290 -139 q 393 -86 347 -86 q 467 -112 439 -86 q 496 -183 496 -139 q 467 -256 496 -228 q 393 -283 439 -283 z "},"ǈ":{"ha":1153,"x_min":79,"x_max":1132,"o":"m 172 0 q 99 26 124 0 q 79 101 75 53 l 140 881 q 176 958 144 929 q 257 986 207 986 q 334 957 307 986 q 357 879 361 928 l 301 176 l 656 176 q 727 156 703 176 q 751 96 751 135 q 724 23 751 46 q 643 0 697 0 l 172 0 m 743 -253 q 657 -239 688 -257 q 626 -182 626 -221 q 713 -101 626 -107 l 753 -99 q 810 -74 789 -96 q 835 -10 832 -51 l 883 597 q 920 671 888 646 q 997 696 953 696 q 1069 671 1042 696 q 1093 597 1097 646 l 1046 6 q 782 -250 1029 -232 l 743 -253 m 1013 807 q 925 835 957 807 q 893 913 893 864 q 925 989 893 961 q 1013 1017 957 1017 q 1099 988 1067 1017 q 1132 913 1132 960 q 1100 835 1132 864 q 1013 807 1068 807 z "},"Ḻ":{"ha":782,"x_min":79,"x_max":751,"o":"m 172 0 q 99 26 124 0 q 79 101 75 53 l 140 881 q 176 958 144 929 q 257 986 207 986 q 334 957 307 986 q 357 879 361 928 l 301 176 l 656 176 q 727 156 703 176 q 751 96 751 135 q 724 23 751 46 q 643 0 697 0 l 172 0 m 221 -246 q 174 -230 192 -246 q 156 -187 156 -214 q 177 -140 156 -157 q 231 -124 199 -124 l 567 -124 q 613 -140 594 -124 q 631 -181 631 -156 q 610 -229 631 -212 q 557 -246 590 -246 l 221 -246 z "},"Ł":{"ha":824,"x_min":3,"x_max":793,"o":"m 697 176 q 769 156 744 176 q 793 96 793 135 q 766 23 793 46 q 685 0 739 0 l 214 0 q 141 26 165 0 q 121 101 117 53 l 139 340 l 118 328 q 74 315 96 315 q 23 338 43 315 q 3 392 3 361 q 15 433 3 413 q 50 465 26 453 l 154 522 l 182 881 q 217 958 186 929 q 297 986 249 986 q 376 957 349 986 q 399 879 403 928 l 379 647 l 538 735 q 581 747 561 747 q 632 724 611 747 q 653 671 653 701 q 641 631 653 650 q 606 599 629 611 l 365 465 l 342 176 l 697 176 z "},"M":{"ha":1169,"x_min":78,"x_max":1115,"o":"m 1018 986 q 1090 957 1064 986 q 1111 881 1115 928 l 1049 90 q 1017 18 1044 44 q 947 -8 990 -8 q 879 19 904 -8 q 858 90 854 46 l 897 579 l 672 211 q 626 157 650 174 q 569 140 601 140 q 516 157 538 140 q 478 211 494 174 l 308 569 l 271 90 q 240 19 268 46 q 168 -8 211 -8 q 102 18 126 -8 q 81 90 78 44 l 143 881 q 178 957 147 928 q 254 986 208 986 q 350 915 318 986 l 588 389 l 911 915 q 1018 986 956 986 z "},"Ṃ":{"ha":1169,"x_min":81,"x_max":1111,"o":"m 1018 986 q 1090 957 1064 986 q 1111 881 1115 928 l 1049 90 q 1017 18 1044 44 q 947 -8 990 -8 q 879 19 904 -8 q 858 90 854 46 l 897 579 l 672 211 q 626 157 650 174 q 569 140 601 140 q 516 157 538 140 q 478 211 494 174 l 308 569 l 271 90 q 240 19 268 46 q 168 -8 211 -8 q 102 18 126 -8 q 81 90 78 44 l 143 881 q 178 957 147 928 q 254 986 208 986 q 350 915 318 986 l 588 389 l 911 915 q 1018 986 956 986 m 543 -283 q 469 -256 497 -283 q 440 -183 440 -228 q 469 -112 440 -139 q 543 -86 497 -86 q 617 -112 589 -86 q 646 -183 646 -139 q 617 -256 646 -228 q 543 -283 589 -283 z "},"N":{"ha":1044,"x_min":75,"x_max":993,"o":"m 894 986 q 967 957 940 986 q 989 881 993 928 l 928 99 q 894 21 924 50 q 819 -8 864 -8 q 738 29 763 -8 l 322 614 l 281 99 q 247 21 276 50 q 172 -8 218 -8 q 101 22 126 -8 q 79 100 75 51 l 140 881 q 175 957 144 928 q 251 986 206 986 q 329 950 303 986 l 746 364 l 786 881 q 820 957 790 928 q 894 986 850 986 z "},"Ǌ":{"ha":1568,"x_min":79,"x_max":1514,"o":"m 894 986 q 967 957 940 986 q 989 881 993 928 l 928 99 q 894 21 924 50 q 819 -8 864 -8 q 738 29 763 -8 l 322 614 l 281 99 q 247 21 276 50 q 172 -8 218 -8 q 101 22 126 -8 q 79 100 75 51 l 140 881 q 175 957 144 928 q 251 986 206 986 q 329 950 303 986 l 746 364 l 786 881 q 820 957 790 928 q 894 986 850 986 m 1125 -8 q 1003 76 1003 -17 q 1025 140 1003 119 q 1094 164 1047 161 l 1140 167 q 1249 285 1240 174 l 1297 881 q 1332 958 1300 929 q 1414 986 1364 986 q 1490 957 1463 986 q 1514 881 1518 928 l 1468 288 q 1382 77 1457 151 q 1169 -6 1307 3 l 1125 -8 z "},"Ń":{"ha":1044,"x_min":79,"x_max":989,"o":"m 894 986 q 967 957 940 986 q 989 881 993 928 l 928 99 q 894 21 924 50 q 819 -8 864 -8 q 738 29 763 -8 l 322 614 l 281 99 q 247 21 276 50 q 172 -8 218 -8 q 101 22 126 -8 q 79 100 75 51 l 140 881 q 175 957 144 928 q 251 986 206 986 q 329 950 303 986 l 746 364 l 786 881 q 820 957 790 928 q 894 986 850 986 m 654 1076 q 608 1057 633 1057 q 573 1070 588 1057 q 558 1103 558 1083 q 571 1138 558 1119 l 651 1254 q 711 1288 675 1288 q 761 1267 739 1288 q 783 1219 783 1246 q 758 1169 783 1193 l 654 1076 z "},"Ň":{"ha":1044,"x_min":79,"x_max":989,"o":"m 894 986 q 967 957 940 986 q 989 881 993 928 l 928 99 q 894 21 924 50 q 819 -8 864 -8 q 738 29 763 -8 l 322 614 l 281 99 q 247 21 276 50 q 172 -8 218 -8 q 101 22 126 -8 q 79 100 75 51 l 140 881 q 175 957 144 928 q 251 986 206 986 q 329 950 303 986 l 746 364 l 786 881 q 820 957 790 928 q 894 986 850 986 m 658 1251 q 724 1285 688 1285 q 763 1272 747 1285 q 779 1238 779 1258 q 758 1192 779 1214 l 658 1085 q 623 1061 644 1069 q 579 1053 601 1053 q 535 1061 556 1053 q 503 1085 515 1069 l 421 1192 q 406 1229 406 1211 q 425 1268 406 1251 q 469 1285 444 1285 q 529 1249 507 1285 l 582 1160 l 658 1251 z "},"Ņ":{"ha":1044,"x_min":79,"x_max":989,"o":"m 894 986 q 967 957 940 986 q 989 881 993 928 l 928 99 q 894 21 924 50 q 819 -8 864 -8 q 738 29 763 -8 l 322 614 l 281 99 q 247 21 276 50 q 172 -8 218 -8 q 101 22 126 -8 q 79 100 75 51 l 140 881 q 175 957 144 928 q 251 986 206 986 q 329 950 303 986 l 746 364 l 786 881 q 820 957 790 928 q 894 986 850 986 m 479 -83 q 563 -114 533 -83 q 593 -193 593 -144 q 576 -282 593 -240 q 531 -353 558 -324 q 474 -379 506 -379 q 442 -370 456 -379 q 429 -346 429 -361 q 442 -315 429 -332 q 475 -257 465 -283 l 468 -257 q 405 -237 431 -257 q 379 -178 379 -217 q 409 -110 379 -137 q 479 -83 439 -83 z "},"Ṅ":{"ha":1044,"x_min":79,"x_max":989,"o":"m 894 986 q 967 957 940 986 q 989 881 993 928 l 928 99 q 894 21 924 50 q 819 -8 864 -8 q 738 29 763 -8 l 322 614 l 281 99 q 247 21 276 50 q 172 -8 218 -8 q 101 22 126 -8 q 79 100 75 51 l 140 881 q 175 957 144 928 q 251 986 206 986 q 329 950 303 986 l 746 364 l 786 881 q 820 957 790 928 q 894 986 850 986 m 589 1067 q 501 1095 533 1067 q 469 1172 469 1124 q 501 1249 469 1221 q 589 1276 533 1276 q 676 1248 643 1276 q 708 1172 708 1219 q 676 1095 708 1124 q 589 1067 644 1067 z "},"Ṇ":{"ha":1044,"x_min":79,"x_max":989,"o":"m 894 986 q 967 957 940 986 q 989 881 993 928 l 928 99 q 894 21 924 50 q 819 -8 864 -8 q 738 29 763 -8 l 322 614 l 281 99 q 247 21 276 50 q 172 -8 218 -8 q 101 22 126 -8 q 79 100 75 51 l 140 881 q 175 957 144 928 q 251 986 206 986 q 329 950 303 986 l 746 364 l 786 881 q 820 957 790 928 q 894 986 850 986 m 482 -283 q 408 -256 436 -283 q 379 -183 379 -228 q 408 -112 379 -139 q 482 -86 436 -86 q 556 -112 528 -86 q 585 -183 585 -139 q 556 -256 585 -228 q 482 -283 528 -283 z "},"Ŋ":{"ha":1044,"x_min":75,"x_max":993,"o":"m 894 986 q 967 957 940 986 q 989 881 993 928 l 924 40 q 838 -169 914 -96 q 626 -253 763 -243 l 581 -256 q 489 -238 519 -260 q 458 -174 458 -217 q 482 -117 458 -136 q 550 -94 506 -97 l 596 -92 q 682 -57 649 -89 q 719 26 715 -25 l 721 51 l 322 614 l 281 99 q 247 21 276 50 q 172 -8 217 -8 q 101 22 126 -8 q 79 100 75 51 l 140 881 q 175 957 144 928 q 251 986 206 986 q 329 950 301 986 l 746 364 l 786 881 q 820 957 790 928 q 894 986 850 986 z "},"ǋ":{"ha":1415,"x_min":79,"x_max":1394,"o":"m 894 986 q 967 957 940 986 q 989 881 993 928 l 928 99 q 894 21 924 50 q 819 -8 864 -8 q 738 29 763 -8 l 322 614 l 281 99 q 247 21 276 50 q 172 -8 218 -8 q 101 22 126 -8 q 79 100 75 51 l 140 881 q 175 957 144 928 q 251 986 206 986 q 329 950 303 986 l 746 364 l 786 881 q 820 957 790 928 q 894 986 850 986 m 1006 -253 q 919 -239 950 -257 q 889 -182 889 -221 q 975 -101 889 -107 l 1015 -99 q 1073 -74 1051 -96 q 1097 -10 1094 -51 l 1146 597 q 1183 671 1150 646 q 1260 696 1215 696 q 1332 671 1304 696 q 1356 597 1360 646 l 1308 6 q 1044 -250 1292 -232 l 1006 -253 m 1275 807 q 1188 835 1219 807 q 1156 913 1156 864 q 1188 989 1156 961 q 1275 1017 1219 1017 q 1362 988 1329 1017 q 1394 913 1394 960 q 1363 835 1394 864 q 1275 807 1331 807 z "},"Ṉ":{"ha":1044,"x_min":79,"x_max":989,"o":"m 894 986 q 967 957 940 986 q 989 881 993 928 l 928 99 q 894 21 924 50 q 819 -8 864 -8 q 738 29 763 -8 l 322 614 l 281 99 q 247 21 276 50 q 172 -8 218 -8 q 101 22 126 -8 q 79 100 75 51 l 140 881 q 175 957 144 928 q 251 986 206 986 q 329 950 303 986 l 746 364 l 786 881 q 820 957 790 928 q 894 986 850 986 m 310 -246 q 263 -230 281 -246 q 244 -187 244 -214 q 266 -140 244 -157 q 319 -124 288 -124 l 656 -124 q 701 -140 683 -124 q 719 -181 719 -156 q 699 -229 719 -212 q 646 -246 679 -246 l 310 -246 z "},"Ñ":{"ha":1044,"x_min":79,"x_max":989,"o":"m 894 986 q 967 957 940 986 q 989 881 993 928 l 928 99 q 894 21 924 50 q 819 -8 864 -8 q 738 29 763 -8 l 322 614 l 281 99 q 247 21 276 50 q 172 -8 218 -8 q 101 22 126 -8 q 79 100 75 51 l 140 881 q 175 957 144 928 q 251 986 206 986 q 329 950 303 986 l 746 364 l 786 881 q 820 957 790 928 q 894 986 850 986 m 686 1074 q 636 1082 661 1074 q 578 1107 611 1090 q 489 1136 519 1136 q 458 1128 469 1136 q 432 1106 446 1121 q 410 1086 418 1092 q 388 1081 401 1081 q 358 1094 368 1081 q 349 1129 349 1107 q 366 1194 349 1161 q 416 1249 383 1228 q 492 1271 449 1271 q 542 1263 517 1271 q 600 1238 567 1254 q 689 1208 658 1208 q 719 1215 708 1208 q 746 1238 731 1222 q 768 1257 760 1251 q 790 1263 776 1263 q 829 1215 829 1263 q 812 1150 829 1183 q 762 1095 794 1117 q 686 1074 729 1074 z "},"O":{"ha":1093,"x_min":81,"x_max":1038,"o":"m 551 -14 q 302 43 408 -14 q 138 206 196 100 q 81 457 81 313 q 140 738 81 617 q 310 926 200 860 q 565 993 421 993 q 815 936 708 993 q 980 773 922 879 q 1038 522 1038 667 q 977 241 1038 363 q 807 53 917 119 q 551 -14 697 -14 m 550 156 q 748 253 675 156 q 821 522 821 350 q 755 745 821 667 q 568 824 689 824 q 369 726 442 824 q 297 457 297 628 q 363 234 297 313 q 550 156 428 156 z "},"Ó":{"ha":1093,"x_min":81,"x_max":1038,"o":"m 551 -14 q 302 43 408 -14 q 138 206 196 100 q 81 457 81 313 q 140 738 81 617 q 310 926 200 860 q 565 993 421 993 q 815 936 708 993 q 980 773 922 879 q 1038 522 1038 667 q 977 241 1038 363 q 807 53 917 119 q 551 -14 697 -14 m 550 156 q 748 253 675 156 q 821 522 821 350 q 755 745 821 667 q 568 824 689 824 q 369 726 442 824 q 297 457 297 628 q 363 234 297 313 q 550 156 428 156 m 678 1076 q 632 1057 657 1057 q 597 1070 611 1057 q 582 1103 582 1083 q 594 1138 582 1119 l 675 1254 q 735 1288 699 1288 q 785 1267 763 1288 q 807 1219 807 1246 q 782 1169 807 1193 l 678 1076 z "},"Ŏ":{"ha":1093,"x_min":81,"x_max":1038,"o":"m 551 -14 q 302 43 408 -14 q 138 206 196 100 q 81 457 81 313 q 140 738 81 617 q 310 926 200 860 q 565 993 421 993 q 815 936 708 993 q 980 773 922 879 q 1038 522 1038 667 q 977 241 1038 363 q 807 53 917 119 q 551 -14 697 -14 m 550 156 q 748 253 675 156 q 821 522 821 350 q 755 745 821 667 q 568 824 689 824 q 369 726 442 824 q 297 457 297 628 q 363 234 297 313 q 550 156 428 156 m 613 1075 q 478 1103 535 1075 q 390 1181 421 1131 q 379 1215 379 1197 q 396 1252 379 1238 q 435 1267 413 1267 q 485 1244 463 1267 q 617 1199 533 1199 q 690 1210 654 1199 q 749 1244 725 1222 q 803 1267 775 1267 q 838 1254 824 1267 q 851 1222 851 1242 q 836 1181 851 1201 q 743 1103 800 1132 q 613 1075 686 1075 z "},"Ô":{"ha":1093,"x_min":81,"x_max":1038,"o":"m 551 -14 q 302 43 408 -14 q 138 206 196 100 q 81 457 81 313 q 140 738 81 617 q 310 926 200 860 q 565 993 421 993 q 815 936 708 993 q 980 773 922 879 q 1038 522 1038 667 q 977 241 1038 363 q 807 53 917 119 q 551 -14 697 -14 m 550 156 q 748 253 675 156 q 821 522 821 350 q 755 745 821 667 q 568 824 689 824 q 369 726 442 824 q 297 457 297 628 q 363 234 297 313 q 550 156 428 156 m 540 1090 q 475 1057 511 1057 q 435 1070 451 1057 q 419 1104 419 1083 q 440 1150 419 1125 l 540 1257 q 621 1288 571 1288 q 696 1257 671 1288 l 778 1150 q 793 1113 793 1131 q 774 1073 793 1089 q 728 1057 754 1057 q 669 1092 690 1057 l 617 1181 l 540 1090 z "},"Ố":{"ha":1093,"x_min":81,"x_max":1038,"o":"m 551 -14 q 302 43 408 -14 q 138 206 196 100 q 81 457 81 313 q 140 738 81 617 q 310 926 200 860 q 565 993 421 993 q 815 936 708 993 q 980 773 922 879 q 1038 522 1038 667 q 977 241 1038 363 q 807 53 917 119 q 551 -14 697 -14 m 550 156 q 748 253 675 156 q 821 522 821 350 q 755 745 821 667 q 568 824 689 824 q 369 726 442 824 q 297 457 297 628 q 363 234 297 313 q 550 156 428 156 m 843 1217 q 808 1203 828 1203 q 776 1215 789 1203 q 763 1246 763 1228 q 772 1274 763 1260 l 856 1389 q 910 1419 876 1419 q 956 1400 935 1419 q 976 1356 976 1381 q 951 1308 976 1332 l 843 1217 m 529 1076 q 485 1056 508 1056 q 448 1071 463 1056 q 433 1108 433 1086 q 456 1154 433 1133 l 544 1238 q 622 1268 579 1268 q 693 1238 664 1268 l 775 1144 q 790 1108 790 1128 q 772 1069 790 1086 q 728 1053 753 1053 q 681 1078 700 1053 l 615 1161 l 529 1076 z "},"Ộ":{"ha":1093,"x_min":81,"x_max":1038,"o":"m 551 -14 q 302 43 408 -14 q 138 206 196 100 q 81 457 81 313 q 140 738 81 617 q 310 926 200 860 q 565 993 421 993 q 815 936 708 993 q 980 773 922 879 q 1038 522 1038 667 q 977 241 1038 363 q 807 53 917 119 q 551 -14 697 -14 m 550 156 q 748 253 675 156 q 821 522 821 350 q 755 745 821 667 q 568 824 689 824 q 369 726 442 824 q 297 457 297 628 q 363 234 297 313 q 550 156 428 156 m 506 -283 q 431 -256 460 -283 q 403 -183 403 -228 q 431 -112 403 -139 q 506 -86 460 -86 q 580 -112 551 -86 q 608 -183 608 -139 q 580 -256 608 -228 q 506 -283 551 -283 m 540 1090 q 475 1057 511 1057 q 435 1070 451 1057 q 419 1104 419 1083 q 440 1150 419 1125 l 540 1257 q 621 1288 571 1288 q 696 1257 671 1288 l 778 1150 q 793 1113 793 1131 q 774 1073 793 1089 q 728 1057 754 1057 q 669 1092 690 1057 l 617 1181 l 540 1090 z "},"Ồ":{"ha":1093,"x_min":81,"x_max":1038,"o":"m 551 -14 q 302 43 408 -14 q 138 206 196 100 q 81 457 81 313 q 140 738 81 617 q 310 926 200 860 q 565 993 421 993 q 815 936 708 993 q 980 773 922 879 q 1038 522 1038 667 q 977 241 1038 363 q 807 53 917 119 q 551 -14 697 -14 m 550 156 q 748 253 675 156 q 821 522 821 350 q 755 745 821 667 q 568 824 689 824 q 369 726 442 824 q 297 457 297 628 q 363 234 297 313 q 550 156 428 156 m 844 1218 q 808 1204 829 1204 q 778 1216 790 1204 q 765 1246 765 1228 q 774 1272 765 1260 l 847 1386 q 901 1418 869 1418 q 946 1399 926 1418 q 965 1356 965 1381 q 943 1311 965 1329 l 844 1218 m 529 1076 q 485 1056 508 1056 q 448 1071 463 1056 q 433 1108 433 1086 q 456 1154 433 1133 l 544 1238 q 622 1268 579 1268 q 693 1238 664 1268 l 775 1144 q 790 1108 790 1128 q 772 1069 790 1086 q 728 1053 753 1053 q 681 1078 700 1053 l 615 1161 l 529 1076 z "},"Ổ":{"ha":1093,"x_min":81,"x_max":1038,"o":"m 551 -14 q 302 43 408 -14 q 138 206 196 100 q 81 457 81 313 q 140 738 81 617 q 310 926 200 860 q 565 993 421 993 q 815 936 708 993 q 980 773 922 879 q 1038 522 1038 667 q 977 241 1038 363 q 807 53 917 119 q 551 -14 697 -14 m 550 156 q 748 253 675 156 q 821 522 821 350 q 755 745 821 667 q 568 824 689 824 q 369 726 442 824 q 297 457 297 628 q 363 234 297 313 q 550 156 428 156 m 851 1229 q 833 1212 847 1218 q 800 1206 818 1206 q 763 1214 778 1206 q 749 1239 749 1222 q 767 1279 749 1265 q 817 1306 785 1293 q 833 1313 821 1307 q 844 1324 844 1318 q 836 1333 844 1331 q 806 1335 828 1335 q 767 1333 790 1335 q 731 1329 743 1331 q 700 1340 711 1329 q 689 1365 689 1351 q 696 1384 689 1375 q 717 1399 703 1393 q 832 1415 763 1415 q 935 1394 897 1415 q 972 1338 972 1372 q 954 1294 972 1308 q 903 1265 936 1279 q 867 1249 879 1256 q 851 1229 856 1242 m 529 1076 q 485 1056 508 1056 q 448 1071 463 1056 q 433 1108 433 1086 q 456 1154 433 1133 l 544 1238 q 622 1268 579 1268 q 693 1238 664 1268 l 775 1144 q 790 1108 790 1128 q 772 1069 790 1086 q 728 1053 753 1053 q 681 1078 700 1053 l 615 1161 l 529 1076 z "},"Ỗ":{"ha":1093,"x_min":81,"x_max":1038,"o":"m 551 -14 q 302 43 408 -14 q 138 206 196 100 q 81 457 81 313 q 140 738 81 617 q 310 926 200 860 q 565 993 421 993 q 815 936 708 993 q 980 773 922 879 q 1038 522 1038 667 q 977 241 1038 363 q 807 53 917 119 q 551 -14 697 -14 m 550 156 q 748 253 675 156 q 821 522 821 350 q 755 745 821 667 q 568 824 689 824 q 369 726 442 824 q 297 457 297 628 q 363 234 297 313 q 550 156 428 156 m 425 1276 q 396 1288 406 1276 q 386 1318 386 1299 q 406 1363 386 1338 q 458 1407 425 1389 q 528 1425 490 1425 q 599 1414 561 1425 q 646 1400 638 1403 q 732 1379 706 1379 q 758 1385 747 1379 q 779 1403 768 1392 q 801 1419 792 1414 q 826 1425 811 1425 q 867 1382 867 1425 q 847 1338 867 1363 q 795 1294 828 1313 q 725 1276 763 1276 q 672 1283 699 1276 q 607 1301 644 1289 q 560 1315 583 1308 q 521 1321 536 1321 q 497 1315 506 1321 q 472 1299 488 1310 q 450 1282 460 1288 q 425 1276 440 1276 m 529 1076 q 485 1056 508 1056 q 448 1071 463 1056 q 433 1108 433 1086 q 456 1154 433 1133 l 544 1238 q 622 1268 579 1268 q 693 1238 664 1268 l 775 1144 q 790 1108 790 1128 q 772 1069 790 1086 q 728 1053 753 1053 q 681 1078 700 1053 l 615 1161 l 529 1076 z "},"Ȍ":{"ha":1093,"x_min":81,"x_max":1038,"o":"m 551 -14 q 302 43 408 -14 q 138 206 196 100 q 81 457 81 313 q 140 738 81 617 q 310 926 200 860 q 565 993 421 993 q 815 936 708 993 q 980 773 922 879 q 1038 522 1038 667 q 977 241 1038 363 q 807 53 917 119 q 551 -14 697 -14 m 550 156 q 748 253 675 156 q 821 522 821 350 q 755 745 821 667 q 568 824 689 824 q 369 726 442 824 q 297 457 297 628 q 363 234 297 313 q 550 156 428 156 m 381 1197 q 371 1232 371 1215 q 388 1272 371 1256 q 429 1288 406 1288 q 462 1277 447 1288 q 485 1244 476 1267 l 531 1124 q 535 1103 535 1114 q 521 1070 535 1083 q 489 1057 507 1057 q 447 1083 464 1057 l 381 1197 m 574 1197 q 563 1232 563 1217 q 581 1271 563 1256 q 621 1286 599 1286 q 653 1276 639 1286 q 676 1244 668 1265 l 724 1124 q 728 1104 728 1114 q 714 1070 728 1083 q 682 1057 700 1057 q 640 1083 654 1057 l 574 1197 z "},"Ö":{"ha":1093,"x_min":81,"x_max":1038,"o":"m 551 -14 q 302 43 408 -14 q 138 206 196 100 q 81 457 81 313 q 140 738 81 617 q 310 926 200 860 q 565 993 421 993 q 815 936 708 993 q 980 773 922 879 q 1038 522 1038 667 q 977 241 1038 363 q 807 53 917 119 q 551 -14 697 -14 m 550 156 q 748 253 675 156 q 821 522 821 350 q 755 745 821 667 q 568 824 689 824 q 369 726 442 824 q 297 457 297 628 q 363 234 297 313 q 550 156 428 156 m 481 1074 q 406 1101 435 1074 q 376 1172 376 1128 q 406 1243 376 1217 q 481 1269 435 1269 q 556 1243 526 1269 q 585 1172 585 1217 q 556 1101 585 1128 q 481 1074 528 1074 m 744 1074 q 670 1101 699 1074 q 642 1172 642 1128 q 670 1243 642 1217 q 744 1269 699 1269 q 819 1243 790 1269 q 849 1172 849 1217 q 819 1101 849 1128 q 744 1074 790 1074 z "},"Ȫ":{"ha":1093,"x_min":81,"x_max":1038,"o":"m 551 -14 q 302 43 408 -14 q 138 206 196 100 q 81 457 81 313 q 140 738 81 617 q 310 926 200 860 q 565 993 421 993 q 815 936 708 993 q 980 773 922 879 q 1038 522 1038 667 q 977 241 1038 363 q 807 53 917 119 q 551 -14 697 -14 m 550 156 q 748 253 675 156 q 821 522 821 350 q 755 745 821 667 q 568 824 689 824 q 369 726 442 824 q 297 457 297 628 q 363 234 297 313 q 550 156 428 156 m 481 1074 q 406 1101 435 1074 q 376 1172 376 1128 q 406 1243 376 1217 q 481 1269 435 1269 q 556 1243 526 1269 q 585 1172 585 1217 q 556 1101 585 1128 q 481 1074 528 1074 m 744 1074 q 670 1101 699 1074 q 642 1172 642 1128 q 670 1243 642 1217 q 744 1269 699 1269 q 819 1243 790 1269 q 849 1172 849 1217 q 819 1101 849 1128 q 744 1074 790 1074 m 457 1328 q 411 1345 429 1328 q 393 1389 393 1363 q 414 1441 393 1424 q 468 1458 435 1458 l 804 1458 q 850 1441 832 1458 q 868 1394 868 1424 q 847 1344 868 1361 q 793 1328 826 1328 l 457 1328 z "},"Ȱ":{"ha":1093,"x_min":81,"x_max":1038,"o":"m 551 -14 q 302 43 408 -14 q 138 206 196 100 q 81 457 81 313 q 140 738 81 617 q 310 926 200 860 q 565 993 421 993 q 815 936 708 993 q 980 773 922 879 q 1038 522 1038 667 q 977 241 1038 363 q 807 53 917 119 q 551 -14 697 -14 m 550 156 q 748 253 675 156 q 821 522 821 350 q 755 745 821 667 q 568 824 689 824 q 369 726 442 824 q 297 457 297 628 q 363 234 297 313 q 550 156 428 156 m 613 1067 q 525 1095 557 1067 q 493 1172 493 1124 q 525 1249 493 1221 q 613 1276 557 1276 q 699 1248 667 1276 q 732 1172 732 1219 q 700 1095 732 1124 q 613 1067 668 1067 m 457 1328 q 411 1345 429 1328 q 393 1389 393 1363 q 414 1441 393 1424 q 468 1458 435 1458 l 804 1458 q 850 1441 832 1458 q 868 1394 868 1424 q 847 1344 868 1361 q 793 1328 826 1328 l 457 1328 z "},"Ọ":{"ha":1093,"x_min":81,"x_max":1038,"o":"m 551 -14 q 302 43 408 -14 q 138 206 196 100 q 81 457 81 313 q 140 738 81 617 q 310 926 200 860 q 565 993 421 993 q 815 936 708 993 q 980 773 922 879 q 1038 522 1038 667 q 977 241 1038 363 q 807 53 917 119 q 551 -14 697 -14 m 550 156 q 748 253 675 156 q 821 522 821 350 q 755 745 821 667 q 568 824 689 824 q 369 726 442 824 q 297 457 297 628 q 363 234 297 313 q 550 156 428 156 m 506 -283 q 431 -256 460 -283 q 403 -183 403 -228 q 431 -112 403 -139 q 506 -86 460 -86 q 580 -112 551 -86 q 608 -183 608 -139 q 580 -256 608 -228 q 506 -283 551 -283 z "},"Ò":{"ha":1093,"x_min":81,"x_max":1038,"o":"m 551 -14 q 302 43 408 -14 q 138 206 196 100 q 81 457 81 313 q 140 738 81 617 q 310 926 200 860 q 565 993 421 993 q 815 936 708 993 q 980 773 922 879 q 1038 522 1038 667 q 977 241 1038 363 q 807 53 917 119 q 551 -14 697 -14 m 550 156 q 748 253 675 156 q 821 522 821 350 q 755 745 821 667 q 568 824 689 824 q 369 726 442 824 q 297 457 297 628 q 363 234 297 313 q 550 156 428 156 m 440 1178 q 421 1222 421 1199 q 443 1268 421 1249 q 494 1288 465 1288 q 554 1251 533 1288 l 624 1131 q 631 1104 631 1118 q 615 1069 631 1083 q 578 1056 599 1056 q 531 1078 551 1056 l 440 1178 z "},"Ỏ":{"ha":1093,"x_min":81,"x_max":1038,"o":"m 551 -14 q 302 43 408 -14 q 138 206 196 100 q 81 457 81 313 q 140 738 81 617 q 310 926 200 860 q 565 993 421 993 q 815 936 708 993 q 980 773 922 879 q 1038 522 1038 667 q 977 241 1038 363 q 807 53 917 119 q 551 -14 697 -14 m 550 156 q 748 253 675 156 q 821 522 821 350 q 755 745 821 667 q 568 824 689 824 q 369 726 442 824 q 297 457 297 628 q 363 234 297 313 q 550 156 428 156 m 658 1086 q 639 1063 653 1071 q 607 1056 625 1056 q 571 1065 586 1056 q 556 1093 556 1075 q 572 1133 556 1119 q 618 1158 589 1147 q 643 1171 635 1165 q 651 1183 651 1176 q 611 1203 651 1203 q 538 1192 585 1203 q 508 1200 519 1189 q 497 1228 497 1211 q 504 1252 497 1242 q 525 1268 511 1263 q 636 1285 569 1285 q 742 1261 703 1285 q 781 1201 781 1238 q 763 1157 781 1172 q 711 1126 744 1142 q 675 1107 688 1115 q 658 1086 663 1099 z "},"Ơ":{"ha":1093,"x_min":81,"x_max":1085,"o":"m 897 881 q 1001 730 965 821 q 1038 522 1038 639 q 977 241 1038 363 q 807 53 917 119 q 551 -14 697 -14 q 302 43 408 -14 q 138 206 196 100 q 81 457 81 313 q 141 739 81 618 q 315 926 201 860 q 579 993 428 993 q 645 990 613 993 q 689 986 678 988 q 772 979 735 979 q 844 991 819 979 q 883 1029 869 1003 q 904 1107 896 1056 q 935 1169 911 1147 q 1001 1192 960 1192 q 1063 1169 1042 1192 q 1085 1107 1085 1147 q 1033 958 1085 1021 q 897 881 982 894 m 550 156 q 748 253 675 156 q 821 522 821 350 q 755 745 821 667 q 568 824 689 824 q 369 726 442 824 q 297 457 297 628 q 363 234 297 313 q 550 156 428 156 z "},"Ớ":{"ha":1093,"x_min":81,"x_max":1085,"o":"m 897 881 q 1001 730 965 821 q 1038 522 1038 639 q 977 241 1038 363 q 807 53 917 119 q 551 -14 697 -14 q 302 43 408 -14 q 138 206 196 100 q 81 457 81 313 q 141 739 81 618 q 315 926 201 860 q 579 993 428 993 q 645 990 613 993 q 689 986 678 988 q 772 979 735 979 q 844 991 819 979 q 883 1029 869 1003 q 904 1107 896 1056 q 935 1169 911 1147 q 1001 1192 960 1192 q 1063 1169 1042 1192 q 1085 1107 1085 1147 q 1033 958 1085 1021 q 897 881 982 894 m 550 156 q 748 253 675 156 q 821 522 821 350 q 755 745 821 667 q 568 824 689 824 q 369 726 442 824 q 297 457 297 628 q 363 234 297 313 q 550 156 428 156 m 678 1076 q 632 1057 657 1057 q 597 1070 611 1057 q 582 1103 582 1083 q 594 1138 582 1119 l 675 1254 q 735 1288 699 1288 q 785 1267 763 1288 q 807 1219 807 1246 q 782 1169 807 1193 l 678 1076 z "},"Ợ":{"ha":1093,"x_min":81,"x_max":1085,"o":"m 897 881 q 1001 730 965 821 q 1038 522 1038 639 q 977 241 1038 363 q 807 53 917 119 q 551 -14 697 -14 q 302 43 408 -14 q 138 206 196 100 q 81 457 81 313 q 141 739 81 618 q 315 926 201 860 q 579 993 428 993 q 645 990 613 993 q 689 986 678 988 q 772 979 735 979 q 844 991 819 979 q 883 1029 869 1003 q 904 1107 896 1056 q 935 1169 911 1147 q 1001 1192 960 1192 q 1063 1169 1042 1192 q 1085 1107 1085 1147 q 1033 958 1085 1021 q 897 881 982 894 m 550 156 q 748 253 675 156 q 821 522 821 350 q 755 745 821 667 q 568 824 689 824 q 369 726 442 824 q 297 457 297 628 q 363 234 297 313 q 550 156 428 156 m 506 -283 q 431 -256 460 -283 q 403 -183 403 -228 q 431 -112 403 -139 q 506 -86 460 -86 q 580 -112 551 -86 q 608 -183 608 -139 q 580 -256 608 -228 q 506 -283 551 -283 z "},"Ờ":{"ha":1093,"x_min":81,"x_max":1085,"o":"m 897 881 q 1001 730 965 821 q 1038 522 1038 639 q 977 241 1038 363 q 807 53 917 119 q 551 -14 697 -14 q 302 43 408 -14 q 138 206 196 100 q 81 457 81 313 q 141 739 81 618 q 315 926 201 860 q 579 993 428 993 q 645 990 613 993 q 689 986 678 988 q 772 979 735 979 q 844 991 819 979 q 883 1029 869 1003 q 904 1107 896 1056 q 935 1169 911 1147 q 1001 1192 960 1192 q 1063 1169 1042 1192 q 1085 1107 1085 1147 q 1033 958 1085 1021 q 897 881 982 894 m 550 156 q 748 253 675 156 q 821 522 821 350 q 755 745 821 667 q 568 824 689 824 q 369 726 442 824 q 297 457 297 628 q 363 234 297 313 q 550 156 428 156 m 440 1178 q 421 1222 421 1199 q 443 1268 421 1249 q 494 1288 465 1288 q 554 1251 533 1288 l 624 1131 q 631 1104 631 1118 q 615 1069 631 1083 q 578 1056 599 1056 q 531 1078 551 1056 l 440 1178 z "},"Ở":{"ha":1093,"x_min":81,"x_max":1085,"o":"m 897 881 q 1001 730 965 821 q 1038 522 1038 639 q 977 241 1038 363 q 807 53 917 119 q 551 -14 697 -14 q 302 43 408 -14 q 138 206 196 100 q 81 457 81 313 q 141 739 81 618 q 315 926 201 860 q 579 993 428 993 q 645 990 613 993 q 689 986 678 988 q 772 979 735 979 q 844 991 819 979 q 883 1029 869 1003 q 904 1107 896 1056 q 935 1169 911 1147 q 1001 1192 960 1192 q 1063 1169 1042 1192 q 1085 1107 1085 1147 q 1033 958 1085 1021 q 897 881 982 894 m 550 156 q 748 253 675 156 q 821 522 821 350 q 755 745 821 667 q 568 824 689 824 q 369 726 442 824 q 297 457 297 628 q 363 234 297 313 q 550 156 428 156 m 658 1086 q 639 1063 653 1071 q 607 1056 625 1056 q 571 1065 586 1056 q 556 1093 556 1075 q 572 1133 556 1119 q 618 1158 589 1147 q 643 1171 635 1165 q 651 1183 651 1176 q 611 1203 651 1203 q 538 1192 585 1203 q 508 1200 519 1189 q 497 1228 497 1211 q 504 1252 497 1242 q 525 1268 511 1263 q 636 1285 569 1285 q 742 1261 703 1285 q 781 1201 781 1238 q 763 1157 781 1172 q 711 1126 744 1142 q 675 1107 688 1115 q 658 1086 663 1099 z "},"Ỡ":{"ha":1093,"x_min":81,"x_max":1085,"o":"m 897 881 q 1001 730 965 821 q 1038 522 1038 639 q 977 241 1038 363 q 807 53 917 119 q 551 -14 697 -14 q 302 43 408 -14 q 138 206 196 100 q 81 457 81 313 q 141 739 81 618 q 315 926 201 860 q 579 993 428 993 q 645 990 613 993 q 689 986 678 988 q 772 979 735 979 q 844 991 819 979 q 883 1029 869 1003 q 904 1107 896 1056 q 935 1169 911 1147 q 1001 1192 960 1192 q 1063 1169 1042 1192 q 1085 1107 1085 1147 q 1033 958 1085 1021 q 897 881 982 894 m 550 156 q 748 253 675 156 q 821 522 821 350 q 755 745 821 667 q 568 824 689 824 q 369 726 442 824 q 297 457 297 628 q 363 234 297 313 q 550 156 428 156 m 710 1074 q 660 1082 685 1074 q 601 1107 635 1090 q 513 1136 543 1136 q 481 1128 493 1136 q 456 1106 469 1121 q 433 1086 442 1092 q 411 1081 425 1081 q 382 1094 392 1081 q 372 1129 372 1107 q 390 1194 372 1161 q 440 1249 407 1228 q 515 1271 472 1271 q 565 1263 540 1271 q 624 1238 590 1254 q 713 1208 682 1208 q 743 1215 732 1208 q 769 1238 754 1222 q 792 1257 783 1251 q 814 1263 800 1263 q 853 1215 853 1263 q 835 1150 853 1183 q 785 1095 818 1117 q 710 1074 753 1074 z "},"Ő":{"ha":1093,"x_min":81,"x_max":1038,"o":"m 551 -14 q 302 43 408 -14 q 138 206 196 100 q 81 457 81 313 q 140 738 81 617 q 310 926 200 860 q 565 993 421 993 q 815 936 708 993 q 980 773 922 879 q 1038 522 1038 667 q 977 241 1038 363 q 807 53 917 119 q 551 -14 697 -14 m 550 156 q 748 253 675 156 q 821 522 821 350 q 755 745 821 667 q 568 824 689 824 q 369 726 442 824 q 297 457 297 628 q 363 234 297 313 q 550 156 428 156 m 564 1081 q 519 1057 544 1057 q 496 1066 506 1057 q 486 1090 486 1075 q 492 1115 486 1104 l 556 1250 q 608 1286 572 1286 q 649 1271 631 1286 q 667 1232 667 1256 q 650 1189 667 1210 l 564 1081 m 757 1081 q 713 1057 738 1057 q 689 1066 699 1057 q 679 1090 679 1075 q 685 1115 679 1104 l 747 1250 q 800 1286 764 1286 q 842 1270 824 1286 q 860 1232 860 1254 q 843 1189 860 1213 l 757 1081 z "},"Ȏ":{"ha":1093,"x_min":81,"x_max":1038,"o":"m 551 -14 q 302 43 408 -14 q 138 206 196 100 q 81 457 81 313 q 140 738 81 617 q 310 926 200 860 q 565 993 421 993 q 815 936 708 993 q 980 773 922 879 q 1038 522 1038 667 q 977 241 1038 363 q 807 53 917 119 q 551 -14 697 -14 m 550 156 q 748 253 675 156 q 821 522 821 350 q 755 745 821 667 q 568 824 689 824 q 369 726 442 824 q 297 457 297 628 q 363 234 297 313 q 550 156 428 156 m 610 1268 q 744 1240 688 1268 q 832 1163 801 1213 q 843 1126 843 1146 q 826 1091 843 1106 q 788 1076 810 1076 q 738 1097 758 1076 q 606 1144 688 1144 q 533 1132 568 1144 q 474 1097 497 1119 q 421 1076 449 1076 q 385 1088 400 1076 q 371 1119 371 1100 q 388 1163 371 1140 q 479 1240 422 1211 q 610 1268 536 1268 z "},"Ō":{"ha":1093,"x_min":81,"x_max":1038,"o":"m 551 -14 q 302 43 408 -14 q 138 206 196 100 q 81 457 81 313 q 140 738 81 617 q 310 926 200 860 q 565 993 421 993 q 815 936 708 993 q 980 773 922 879 q 1038 522 1038 667 q 977 241 1038 363 q 807 53 917 119 q 551 -14 697 -14 m 550 156 q 748 253 675 156 q 821 522 821 350 q 755 745 821 667 q 568 824 689 824 q 369 726 442 824 q 297 457 297 628 q 363 234 297 313 q 550 156 428 156 m 439 1106 q 393 1123 411 1106 q 375 1167 375 1140 q 396 1219 375 1201 q 450 1236 417 1236 l 786 1236 q 832 1219 814 1236 q 850 1172 850 1201 q 829 1122 850 1139 q 775 1106 808 1106 l 439 1106 z "},"Ṓ":{"ha":1093,"x_min":81,"x_max":1038,"o":"m 551 -14 q 302 43 408 -14 q 138 206 196 100 q 81 457 81 313 q 140 738 81 617 q 310 926 200 860 q 565 993 421 993 q 815 936 708 993 q 980 773 922 879 q 1038 522 1038 667 q 977 241 1038 363 q 807 53 917 119 q 551 -14 697 -14 m 550 156 q 748 253 675 156 q 821 522 821 350 q 755 745 821 667 q 568 824 689 824 q 369 726 442 824 q 297 457 297 628 q 363 234 297 313 q 550 156 428 156 m 439 1106 q 393 1123 411 1106 q 375 1167 375 1140 q 396 1219 375 1201 q 450 1236 417 1236 l 786 1236 q 832 1219 814 1236 q 850 1172 850 1201 q 829 1122 850 1139 q 775 1106 808 1106 l 439 1106 m 696 1299 q 650 1279 675 1279 q 615 1292 629 1279 q 600 1325 600 1306 q 613 1360 600 1342 l 693 1476 q 753 1510 717 1510 q 803 1489 781 1510 q 825 1442 825 1468 q 800 1392 825 1415 l 696 1299 z "},"Ṑ":{"ha":1093,"x_min":81,"x_max":1038,"o":"m 551 -14 q 302 43 408 -14 q 138 206 196 100 q 81 457 81 313 q 140 738 81 617 q 310 926 200 860 q 565 993 421 993 q 815 936 708 993 q 980 773 922 879 q 1038 522 1038 667 q 977 241 1038 363 q 807 53 917 119 q 551 -14 697 -14 m 550 156 q 748 253 675 156 q 821 522 821 350 q 755 745 821 667 q 568 824 689 824 q 369 726 442 824 q 297 457 297 628 q 363 234 297 313 q 550 156 428 156 m 439 1106 q 393 1123 411 1106 q 375 1167 375 1140 q 396 1219 375 1201 q 450 1236 417 1236 l 786 1236 q 832 1219 814 1236 q 850 1172 850 1201 q 829 1122 850 1139 q 775 1106 808 1106 l 439 1106 m 458 1400 q 439 1444 439 1421 q 461 1490 439 1471 q 513 1510 483 1510 q 572 1474 551 1510 l 642 1353 q 649 1326 649 1340 q 633 1292 649 1306 q 596 1278 617 1278 q 549 1300 569 1278 l 458 1400 z "},"Ǫ":{"ha":1093,"x_min":81,"x_max":1038,"o":"m 679 1 q 579 -94 579 -22 q 599 -147 579 -128 q 654 -165 619 -165 q 683 -160 664 -165 q 714 -153 703 -156 q 725 -151 718 -151 q 751 -163 742 -151 q 761 -192 761 -175 q 732 -242 761 -226 q 618 -274 676 -274 q 490 -233 538 -274 q 443 -126 443 -192 q 492 -11 443 -57 q 274 58 367 -1 q 131 219 182 117 q 81 457 81 322 q 140 738 81 617 q 310 926 200 860 q 565 993 421 993 q 817 936 711 993 q 981 773 924 879 q 1038 522 1038 667 q 992 271 1038 381 q 865 93 946 161 q 679 1 785 25 m 550 156 q 748 253 675 156 q 821 522 821 350 q 755 745 821 667 q 568 824 689 824 q 369 726 442 824 q 297 457 297 628 q 363 234 297 313 q 550 156 428 156 z "},"Ø":{"ha":1093,"x_min":81,"x_max":1038,"o":"m 904 872 q 1003 722 969 810 q 1038 522 1038 633 q 977 241 1038 363 q 807 53 917 119 q 551 -14 697 -14 q 343 24 435 -14 l 300 -42 q 229 -83 272 -83 q 176 -62 199 -83 q 153 -10 153 -42 q 168 39 153 17 l 213 107 q 115 258 149 169 q 81 457 81 347 q 140 738 81 617 q 310 926 200 860 q 565 993 421 993 q 775 956 683 993 l 818 1021 q 890 1063 846 1063 q 944 1042 921 1063 q 967 990 967 1021 q 950 940 967 968 l 904 872 m 297 457 q 331 285 297 354 l 675 804 q 568 824 625 824 q 369 726 442 824 q 297 457 297 628 m 550 156 q 748 253 675 156 q 821 522 821 350 q 788 694 821 626 l 443 175 q 550 156 493 156 z "},"Ǿ":{"ha":1093,"x_min":81,"x_max":1038,"o":"m 904 872 q 1003 722 969 810 q 1038 522 1038 633 q 977 241 1038 363 q 807 53 917 119 q 551 -14 697 -14 q 343 24 435 -14 l 300 -42 q 229 -83 272 -83 q 176 -62 199 -83 q 153 -10 153 -42 q 168 39 153 17 l 213 107 q 115 258 149 169 q 81 457 81 347 q 140 738 81 617 q 310 926 200 860 q 565 993 421 993 q 775 956 683 993 l 818 1021 q 890 1063 846 1063 q 944 1042 921 1063 q 967 990 967 1021 q 950 940 967 968 l 904 872 m 297 457 q 331 285 297 354 l 675 804 q 568 824 625 824 q 369 726 442 824 q 297 457 297 628 m 550 156 q 748 253 675 156 q 821 522 821 350 q 788 694 821 626 l 443 175 q 550 156 493 156 m 678 1076 q 632 1057 657 1057 q 597 1070 611 1057 q 582 1103 582 1083 q 594 1138 582 1119 l 675 1254 q 735 1288 699 1288 q 785 1267 763 1288 q 807 1219 807 1246 q 782 1169 807 1193 l 678 1076 z "},"Õ":{"ha":1093,"x_min":81,"x_max":1038,"o":"m 551 -14 q 302 43 408 -14 q 138 206 196 100 q 81 457 81 313 q 140 738 81 617 q 310 926 200 860 q 565 993 421 993 q 815 936 708 993 q 980 773 922 879 q 1038 522 1038 667 q 977 241 1038 363 q 807 53 917 119 q 551 -14 697 -14 m 550 156 q 748 253 675 156 q 821 522 821 350 q 755 745 821 667 q 568 824 689 824 q 369 726 442 824 q 297 457 297 628 q 363 234 297 313 q 550 156 428 156 m 710 1074 q 660 1082 685 1074 q 601 1107 635 1090 q 513 1136 543 1136 q 481 1128 493 1136 q 456 1106 469 1121 q 433 1086 442 1092 q 411 1081 425 1081 q 382 1094 392 1081 q 372 1129 372 1107 q 390 1194 372 1161 q 440 1249 407 1228 q 515 1271 472 1271 q 565 1263 540 1271 q 624 1238 590 1254 q 713 1208 682 1208 q 743 1215 732 1208 q 769 1238 754 1222 q 792 1257 783 1251 q 814 1263 800 1263 q 853 1215 853 1263 q 835 1150 853 1183 q 785 1095 818 1117 q 710 1074 753 1074 z "},"Ṍ":{"ha":1093,"x_min":81,"x_max":1038,"o":"m 551 -14 q 302 43 408 -14 q 138 206 196 100 q 81 457 81 313 q 140 738 81 617 q 310 926 200 860 q 565 993 421 993 q 815 936 708 993 q 980 773 922 879 q 1038 522 1038 667 q 977 241 1038 363 q 807 53 917 119 q 551 -14 697 -14 m 550 156 q 748 253 675 156 q 821 522 821 350 q 755 745 821 667 q 568 824 689 824 q 369 726 442 824 q 297 457 297 628 q 363 234 297 313 q 550 156 428 156 m 710 1074 q 660 1082 685 1074 q 601 1107 635 1090 q 513 1136 543 1136 q 481 1128 493 1136 q 456 1106 469 1121 q 433 1086 442 1092 q 411 1081 425 1081 q 382 1094 392 1081 q 372 1129 372 1107 q 390 1194 372 1161 q 440 1249 407 1228 q 515 1271 472 1271 q 565 1263 540 1271 q 624 1238 590 1254 q 713 1208 682 1208 q 743 1215 732 1208 q 769 1238 754 1222 q 792 1257 783 1251 q 814 1263 800 1263 q 853 1215 853 1263 q 835 1150 853 1183 q 785 1095 818 1117 q 710 1074 753 1074 m 696 1299 q 650 1279 675 1279 q 615 1292 629 1279 q 600 1325 600 1306 q 613 1360 600 1342 l 693 1476 q 753 1510 717 1510 q 803 1489 781 1510 q 825 1442 825 1468 q 800 1392 825 1415 l 696 1299 z "},"Ṏ":{"ha":1093,"x_min":81,"x_max":1038,"o":"m 551 -14 q 302 43 408 -14 q 138 206 196 100 q 81 457 81 313 q 140 738 81 617 q 310 926 200 860 q 565 993 421 993 q 815 936 708 993 q 980 773 922 879 q 1038 522 1038 667 q 977 241 1038 363 q 807 53 917 119 q 551 -14 697 -14 m 550 156 q 748 253 675 156 q 821 522 821 350 q 755 745 821 667 q 568 824 689 824 q 369 726 442 824 q 297 457 297 628 q 363 234 297 313 q 550 156 428 156 m 710 1074 q 660 1082 685 1074 q 601 1107 635 1090 q 513 1136 543 1136 q 481 1128 493 1136 q 456 1106 469 1121 q 433 1086 442 1092 q 411 1081 425 1081 q 382 1094 392 1081 q 372 1129 372 1107 q 390 1194 372 1161 q 440 1249 407 1228 q 515 1271 472 1271 q 565 1263 540 1271 q 624 1238 590 1254 q 713 1208 682 1208 q 743 1215 732 1208 q 769 1238 754 1222 q 792 1257 783 1251 q 814 1263 800 1263 q 853 1215 853 1263 q 835 1150 853 1183 q 785 1095 818 1117 q 710 1074 753 1074 m 499 1296 q 424 1323 453 1296 q 394 1394 394 1350 q 424 1465 394 1439 q 499 1492 453 1492 q 574 1465 544 1492 q 603 1394 603 1439 q 574 1323 603 1350 q 499 1296 546 1296 m 763 1296 q 688 1323 717 1296 q 660 1394 660 1350 q 688 1465 660 1439 q 763 1492 717 1492 q 838 1465 808 1492 q 867 1394 867 1439 q 838 1323 867 1350 q 763 1296 808 1296 z "},"Ȭ":{"ha":1093,"x_min":81,"x_max":1038,"o":"m 551 -14 q 302 43 408 -14 q 138 206 196 100 q 81 457 81 313 q 140 738 81 617 q 310 926 200 860 q 565 993 421 993 q 815 936 708 993 q 980 773 922 879 q 1038 522 1038 667 q 977 241 1038 363 q 807 53 917 119 q 551 -14 697 -14 m 550 156 q 748 253 675 156 q 821 522 821 350 q 755 745 821 667 q 568 824 689 824 q 369 726 442 824 q 297 457 297 628 q 363 234 297 313 q 550 156 428 156 m 710 1074 q 660 1082 685 1074 q 601 1107 635 1090 q 513 1136 543 1136 q 481 1128 493 1136 q 456 1106 469 1121 q 433 1086 442 1092 q 411 1081 425 1081 q 382 1094 392 1081 q 372 1129 372 1107 q 390 1194 372 1161 q 440 1249 407 1228 q 515 1271 472 1271 q 565 1263 540 1271 q 624 1238 590 1254 q 713 1208 682 1208 q 743 1215 732 1208 q 769 1238 754 1222 q 792 1257 783 1251 q 814 1263 800 1263 q 853 1215 853 1263 q 835 1150 853 1183 q 785 1095 818 1117 q 710 1074 753 1074 m 457 1328 q 411 1345 429 1328 q 393 1389 393 1363 q 414 1441 393 1424 q 468 1458 435 1458 l 804 1458 q 850 1441 832 1458 q 868 1394 868 1424 q 847 1344 868 1361 q 793 1328 826 1328 l 457 1328 z "},"Œ":{"ha":1450,"x_min":81,"x_max":1464,"o":"m 972 811 l 954 582 l 1308 582 q 1380 562 1356 582 q 1404 504 1404 542 q 1297 414 1404 414 l 942 414 l 922 168 l 1304 168 q 1375 147 1350 168 q 1400 89 1400 126 q 1290 0 1400 0 l 558 0 q 303 56 411 0 q 138 214 196 111 q 81 457 81 317 q 144 738 81 621 q 327 917 207 856 q 615 979 447 979 l 1368 979 q 1440 958 1415 979 q 1464 901 1464 938 q 1356 811 1464 811 l 972 811 m 761 811 l 633 811 q 297 456 297 811 q 371 242 297 317 q 585 168 444 168 l 711 168 l 761 811 z "},"P":{"ha":928,"x_min":75,"x_max":911,"o":"m 583 979 q 825 902 739 979 q 911 693 911 825 q 819 452 911 536 q 554 368 726 368 l 317 368 l 296 99 q 260 21 292 50 q 179 -8 229 -8 q 102 21 129 -8 q 79 100 75 50 l 140 878 q 173 953 144 926 q 250 979 201 979 l 583 979 m 535 532 q 708 681 708 532 q 671 781 708 749 q 556 814 633 814 l 351 814 l 329 532 l 535 532 z "},"Þ":{"ha":929,"x_min":75,"x_max":897,"o":"m 592 782 q 817 712 736 782 q 897 515 897 642 q 811 291 897 369 q 565 213 725 213 l 300 213 l 292 99 q 256 21 288 50 q 178 -8 225 -8 q 102 21 129 -8 q 79 100 75 50 l 140 881 q 176 958 144 929 q 256 986 207 986 q 331 957 304 986 q 353 879 357 928 l 346 782 l 592 782 m 547 376 q 696 503 696 376 q 664 589 696 561 q 567 617 632 617 l 332 617 l 314 376 l 547 376 z "},"Q":{"ha":1093,"x_min":81,"x_max":1038,"o":"m 893 -110 q 908 -164 908 -136 q 875 -232 908 -206 q 799 -258 842 -258 q 745 -244 769 -258 q 707 -204 721 -231 l 635 -68 q 526 -12 606 -15 q 290 49 390 -10 q 135 212 189 107 q 81 457 81 317 q 140 738 81 617 q 310 926 200 860 q 565 993 421 993 q 817 937 711 993 q 981 774 924 881 q 1038 522 1038 668 q 967 221 1038 349 q 769 33 897 93 q 819 6 797 25 q 860 -49 840 -14 l 893 -110 m 550 156 q 749 253 676 156 q 821 522 821 351 q 755 745 821 667 q 568 824 689 824 q 369 726 442 824 q 297 457 297 628 q 363 234 297 313 q 550 156 428 156 z "},"R":{"ha":974,"x_min":75,"x_max":925,"o":"m 860 129 q 871 85 871 104 q 837 16 871 44 q 760 -12 803 -12 q 706 3 731 -12 q 667 49 682 18 l 538 313 q 493 365 519 349 q 425 381 467 381 l 314 381 l 293 99 q 258 21 289 50 q 179 -8 228 -8 q 102 21 129 -8 q 79 100 75 50 l 140 878 q 173 953 144 926 q 250 979 201 979 l 603 979 q 840 904 756 979 q 925 699 925 829 q 862 494 925 569 q 668 397 799 419 q 729 363 704 388 q 776 294 754 339 l 860 129 m 556 544 q 680 581 638 544 q 722 686 722 617 q 686 783 722 751 q 575 814 650 814 l 346 814 l 326 544 l 556 544 z "},"Ŕ":{"ha":974,"x_min":79,"x_max":925,"o":"m 860 129 q 871 85 871 104 q 837 16 871 44 q 760 -12 803 -12 q 706 3 731 -12 q 667 49 682 18 l 538 313 q 493 365 519 349 q 425 381 467 381 l 314 381 l 293 99 q 258 21 289 50 q 179 -8 228 -8 q 102 21 129 -8 q 79 100 75 50 l 140 878 q 173 953 144 926 q 250 979 201 979 l 603 979 q 840 904 756 979 q 925 699 925 829 q 862 494 925 569 q 668 397 799 419 q 729 363 704 388 q 776 294 754 339 l 860 129 m 556 544 q 680 581 638 544 q 722 686 722 617 q 686 783 722 751 q 575 814 650 814 l 346 814 l 326 544 l 556 544 m 621 1076 q 575 1057 600 1057 q 540 1070 554 1057 q 525 1103 525 1083 q 538 1138 525 1119 l 618 1254 q 678 1288 642 1288 q 728 1267 706 1288 q 750 1219 750 1246 q 725 1169 750 1193 l 621 1076 z "},"Ř":{"ha":974,"x_min":79,"x_max":925,"o":"m 860 129 q 871 85 871 104 q 837 16 871 44 q 760 -12 803 -12 q 706 3 731 -12 q 667 49 682 18 l 538 313 q 493 365 519 349 q 425 381 467 381 l 314 381 l 293 99 q 258 21 289 50 q 179 -8 228 -8 q 102 21 129 -8 q 79 100 75 50 l 140 878 q 173 953 144 926 q 250 979 201 979 l 603 979 q 840 904 756 979 q 925 699 925 829 q 862 494 925 569 q 668 397 799 419 q 729 363 704 388 q 776 294 754 339 l 860 129 m 556 544 q 680 581 638 544 q 722 686 722 617 q 686 783 722 751 q 575 814 650 814 l 346 814 l 326 544 l 556 544 m 625 1251 q 690 1285 654 1285 q 730 1272 714 1285 q 746 1238 746 1258 q 725 1192 746 1214 l 625 1085 q 590 1061 611 1069 q 546 1053 568 1053 q 502 1061 522 1053 q 469 1085 482 1069 l 388 1192 q 372 1229 372 1211 q 392 1268 372 1251 q 436 1285 411 1285 q 496 1249 474 1285 l 549 1160 l 625 1251 z "},"Ŗ":{"ha":974,"x_min":79,"x_max":925,"o":"m 860 129 q 871 85 871 104 q 837 16 871 44 q 760 -12 803 -12 q 706 3 731 -12 q 667 49 682 18 l 538 313 q 493 365 519 349 q 425 381 467 381 l 314 381 l 293 99 q 258 21 289 50 q 179 -8 228 -8 q 102 21 129 -8 q 79 100 75 50 l 140 878 q 173 953 144 926 q 250 979 201 979 l 603 979 q 840 904 756 979 q 925 699 925 829 q 862 494 925 569 q 668 397 799 419 q 729 363 704 388 q 776 294 754 339 l 860 129 m 556 544 q 680 581 638 544 q 722 686 722 617 q 686 783 722 751 q 575 814 650 814 l 346 814 l 326 544 l 556 544 m 446 -83 q 530 -114 500 -83 q 560 -193 560 -144 q 542 -282 560 -240 q 497 -353 525 -324 q 440 -379 472 -379 q 409 -370 422 -379 q 396 -346 396 -361 q 408 -315 396 -332 q 442 -257 432 -283 l 435 -257 q 372 -237 397 -257 q 346 -178 346 -217 q 376 -110 346 -137 q 446 -83 406 -83 z "},"Ȑ":{"ha":974,"x_min":79,"x_max":925,"o":"m 860 129 q 871 85 871 104 q 837 16 871 44 q 760 -12 803 -12 q 706 3 731 -12 q 667 49 682 18 l 538 313 q 493 365 519 349 q 425 381 467 381 l 314 381 l 293 99 q 258 21 289 50 q 179 -8 228 -8 q 102 21 129 -8 q 79 100 75 50 l 140 878 q 173 953 144 926 q 250 979 201 979 l 603 979 q 840 904 756 979 q 925 699 925 829 q 862 494 925 569 q 668 397 799 419 q 729 363 704 388 q 776 294 754 339 l 860 129 m 556 544 q 680 581 638 544 q 722 686 722 617 q 686 783 722 751 q 575 814 650 814 l 346 814 l 326 544 l 556 544 m 324 1197 q 314 1232 314 1215 q 331 1272 314 1256 q 372 1288 349 1288 q 405 1277 390 1288 q 428 1244 419 1267 l 474 1124 q 478 1103 478 1114 q 464 1070 478 1083 q 432 1057 450 1057 q 390 1083 407 1057 l 324 1197 m 517 1197 q 506 1232 506 1217 q 524 1271 506 1256 q 564 1286 542 1286 q 597 1276 582 1286 q 619 1244 611 1265 l 667 1124 q 671 1104 671 1114 q 657 1070 671 1083 q 625 1057 643 1057 q 583 1083 597 1057 l 517 1197 z "},"Ṛ":{"ha":974,"x_min":79,"x_max":925,"o":"m 860 129 q 871 85 871 104 q 837 16 871 44 q 760 -12 803 -12 q 706 3 731 -12 q 667 49 682 18 l 538 313 q 493 365 519 349 q 425 381 467 381 l 314 381 l 293 99 q 258 21 289 50 q 179 -8 228 -8 q 102 21 129 -8 q 79 100 75 50 l 140 878 q 173 953 144 926 q 250 979 201 979 l 603 979 q 840 904 756 979 q 925 699 925 829 q 862 494 925 569 q 668 397 799 419 q 729 363 704 388 q 776 294 754 339 l 860 129 m 556 544 q 680 581 638 544 q 722 686 722 617 q 686 783 722 751 q 575 814 650 814 l 346 814 l 326 544 l 556 544 m 449 -283 q 374 -256 403 -283 q 346 -183 346 -228 q 374 -112 346 -139 q 449 -86 403 -86 q 523 -112 494 -86 q 551 -183 551 -139 q 523 -256 551 -228 q 449 -283 494 -283 z "},"Ȓ":{"ha":974,"x_min":79,"x_max":925,"o":"m 860 129 q 871 85 871 104 q 837 16 871 44 q 760 -12 803 -12 q 706 3 731 -12 q 667 49 682 18 l 538 313 q 493 365 519 349 q 425 381 467 381 l 314 381 l 293 99 q 258 21 289 50 q 179 -8 228 -8 q 102 21 129 -8 q 79 100 75 50 l 140 878 q 173 953 144 926 q 250 979 201 979 l 603 979 q 840 904 756 979 q 925 699 925 829 q 862 494 925 569 q 668 397 799 419 q 729 363 704 388 q 776 294 754 339 l 860 129 m 556 544 q 680 581 638 544 q 722 686 722 617 q 686 783 722 751 q 575 814 650 814 l 346 814 l 326 544 l 556 544 m 553 1268 q 688 1240 631 1268 q 775 1163 744 1213 q 786 1126 786 1146 q 769 1091 786 1106 q 731 1076 753 1076 q 681 1097 701 1076 q 549 1144 631 1144 q 476 1132 511 1144 q 417 1097 440 1119 q 364 1076 392 1076 q 328 1088 343 1076 q 314 1119 314 1100 q 331 1163 314 1140 q 422 1240 365 1211 q 553 1268 479 1268 z "},"Ṟ":{"ha":974,"x_min":79,"x_max":925,"o":"m 860 129 q 871 85 871 104 q 837 16 871 44 q 760 -12 803 -12 q 706 3 731 -12 q 667 49 682 18 l 538 313 q 493 365 519 349 q 425 381 467 381 l 314 381 l 293 99 q 258 21 289 50 q 179 -8 228 -8 q 102 21 129 -8 q 79 100 75 50 l 140 878 q 173 953 144 926 q 250 979 201 979 l 603 979 q 840 904 756 979 q 925 699 925 829 q 862 494 925 569 q 668 397 799 419 q 729 363 704 388 q 776 294 754 339 l 860 129 m 556 544 q 680 581 638 544 q 722 686 722 617 q 686 783 722 751 q 575 814 650 814 l 346 814 l 326 544 l 556 544 m 276 -246 q 229 -230 247 -246 q 211 -187 211 -214 q 233 -140 211 -157 q 286 -124 254 -124 l 622 -124 q 668 -140 650 -124 q 686 -181 686 -156 q 666 -229 686 -212 q 613 -246 646 -246 l 276 -246 z "},"S":{"ha":904,"x_min":35,"x_max":874,"o":"m 432 -12 q 232 10 322 -12 q 83 71 142 33 q 47 110 60 88 q 35 157 35 133 q 56 217 35 192 q 110 242 76 242 q 165 225 138 242 q 285 175 214 194 q 440 156 357 156 q 578 183 531 156 q 626 263 626 211 q 601 322 626 297 q 535 361 575 346 q 425 397 494 376 q 258 456 322 428 q 147 542 193 485 q 100 689 100 599 q 150 848 100 779 q 292 954 200 917 q 506 992 383 992 q 697 967 608 992 q 839 899 786 942 q 874 826 874 872 q 851 765 874 792 q 794 739 829 739 q 736 758 765 739 q 631 805 693 786 q 501 824 568 824 q 365 793 414 824 q 315 708 315 763 q 342 646 315 671 q 410 605 369 621 q 524 568 451 589 q 688 510 624 539 q 797 428 751 482 q 842 286 842 374 q 734 66 842 144 q 432 -12 626 -12 z "},"Ś":{"ha":904,"x_min":35,"x_max":874,"o":"m 432 -12 q 232 10 322 -12 q 83 71 142 33 q 47 110 60 88 q 35 157 35 133 q 56 217 35 192 q 110 242 76 242 q 165 225 138 242 q 285 175 214 194 q 440 156 357 156 q 578 183 531 156 q 626 263 626 211 q 601 322 626 297 q 535 361 575 346 q 425 397 494 376 q 258 456 322 428 q 147 542 193 485 q 100 689 100 599 q 150 848 100 779 q 292 954 200 917 q 506 992 383 992 q 697 967 608 992 q 839 899 786 942 q 874 826 874 872 q 851 765 874 792 q 794 739 829 739 q 736 758 765 739 q 631 805 693 786 q 501 824 568 824 q 365 793 414 824 q 315 708 315 763 q 342 646 315 671 q 410 605 369 621 q 524 568 451 589 q 688 510 624 539 q 797 428 751 482 q 842 286 842 374 q 734 66 842 144 q 432 -12 626 -12 m 589 1076 q 543 1057 568 1057 q 508 1070 522 1057 q 493 1103 493 1083 q 506 1138 493 1119 l 586 1254 q 646 1288 610 1288 q 696 1267 674 1288 q 718 1219 718 1246 q 693 1169 718 1193 l 589 1076 z "},"Ṥ":{"ha":904,"x_min":35,"x_max":874,"o":"m 432 -12 q 232 10 322 -12 q 83 71 142 33 q 47 110 60 88 q 35 157 35 133 q 56 217 35 192 q 110 242 76 242 q 165 225 138 242 q 285 175 214 194 q 440 156 357 156 q 578 183 531 156 q 626 263 626 211 q 601 322 626 297 q 535 361 575 346 q 425 397 494 376 q 258 456 322 428 q 147 542 193 485 q 100 689 100 599 q 150 848 100 779 q 292 954 200 917 q 506 992 383 992 q 697 967 608 992 q 839 899 786 942 q 874 826 874 872 q 851 765 874 792 q 794 739 829 739 q 736 758 765 739 q 631 805 693 786 q 501 824 568 824 q 365 793 414 824 q 315 708 315 763 q 342 646 315 671 q 410 605 369 621 q 524 568 451 589 q 688 510 624 539 q 797 428 751 482 q 842 286 842 374 q 734 66 842 144 q 432 -12 626 -12 m 624 1076 q 578 1057 603 1057 q 542 1070 557 1057 q 528 1103 528 1083 q 540 1138 528 1119 l 621 1254 q 681 1288 644 1288 q 731 1267 708 1288 q 753 1219 753 1246 q 728 1169 753 1193 l 624 1076 m 353 1075 q 265 1103 297 1075 q 233 1181 233 1132 q 265 1257 233 1229 q 353 1285 297 1285 q 440 1256 407 1285 q 472 1181 472 1228 q 440 1103 472 1132 q 353 1075 408 1075 z "},"Š":{"ha":904,"x_min":35,"x_max":874,"o":"m 432 -12 q 232 10 322 -12 q 83 71 142 33 q 47 110 60 88 q 35 157 35 133 q 56 217 35 192 q 110 242 76 242 q 165 225 138 242 q 285 175 214 194 q 440 156 357 156 q 578 183 531 156 q 626 263 626 211 q 601 322 626 297 q 535 361 575 346 q 425 397 494 376 q 258 456 322 428 q 147 542 193 485 q 100 689 100 599 q 150 848 100 779 q 292 954 200 917 q 506 992 383 992 q 697 967 608 992 q 839 899 786 942 q 874 826 874 872 q 851 765 874 792 q 794 739 829 739 q 736 758 765 739 q 631 805 693 786 q 501 824 568 824 q 365 793 414 824 q 315 708 315 763 q 342 646 315 671 q 410 605 369 621 q 524 568 451 589 q 688 510 624 539 q 797 428 751 482 q 842 286 842 374 q 734 66 842 144 q 432 -12 626 -12 m 593 1251 q 658 1285 622 1285 q 698 1272 682 1285 q 714 1238 714 1258 q 693 1192 714 1214 l 593 1085 q 558 1061 579 1069 q 514 1053 536 1053 q 470 1061 490 1053 q 438 1085 450 1069 l 356 1192 q 340 1229 340 1211 q 360 1268 340 1251 q 404 1285 379 1285 q 464 1249 442 1285 l 517 1160 l 593 1251 z "},"Ṧ":{"ha":904,"x_min":35,"x_max":874,"o":"m 432 -12 q 232 10 322 -12 q 83 71 142 33 q 47 110 60 88 q 35 157 35 133 q 56 217 35 192 q 110 242 76 242 q 165 225 138 242 q 285 175 214 194 q 440 156 357 156 q 578 183 531 156 q 626 263 626 211 q 601 322 626 297 q 535 361 575 346 q 425 397 494 376 q 258 456 322 428 q 147 542 193 485 q 100 689 100 599 q 150 848 100 779 q 292 954 200 917 q 506 992 383 992 q 697 967 608 992 q 839 899 786 942 q 874 826 874 872 q 851 765 874 792 q 794 739 829 739 q 736 758 765 739 q 631 805 693 786 q 501 824 568 824 q 365 793 414 824 q 315 708 315 763 q 342 646 315 671 q 410 605 369 621 q 524 568 451 589 q 688 510 624 539 q 797 428 751 482 q 842 286 842 374 q 734 66 842 144 q 432 -12 626 -12 m 593 1251 q 658 1285 622 1285 q 698 1272 682 1285 q 714 1238 714 1258 q 693 1192 714 1214 l 593 1085 q 558 1061 579 1069 q 514 1053 536 1053 q 470 1061 490 1053 q 438 1085 450 1069 l 356 1192 q 340 1229 340 1211 q 360 1268 340 1251 q 404 1285 379 1285 q 464 1249 442 1285 l 517 1160 l 593 1251 m 542 1289 q 454 1317 486 1289 q 422 1394 422 1346 q 454 1471 422 1443 q 542 1499 486 1499 q 628 1470 596 1499 q 661 1394 661 1442 q 629 1317 661 1346 q 542 1289 597 1289 z "},"Ş":{"ha":904,"x_min":35,"x_max":874,"o":"m 501 824 q 365 793 414 824 q 315 708 315 763 q 342 646 315 671 q 410 605 369 621 q 524 568 451 589 q 688 510 624 539 q 797 428 751 482 q 842 286 842 374 q 743 73 842 151 q 464 -12 644 -6 l 454 -56 l 464 -56 q 548 -81 517 -56 q 579 -150 579 -107 q 528 -240 579 -206 q 393 -274 476 -274 q 290 -261 335 -274 q 268 -246 275 -257 q 261 -221 261 -235 q 274 -185 261 -200 q 307 -176 288 -171 q 383 -187 347 -187 q 450 -151 450 -187 q 411 -125 450 -125 q 379 -129 396 -125 q 357 -133 363 -133 q 336 -125 343 -133 q 332 -104 329 -117 l 351 -10 q 199 19 268 -3 q 83 71 131 40 q 47 110 60 88 q 35 157 35 133 q 56 217 35 192 q 110 242 76 242 q 165 225 138 242 q 285 175 214 194 q 440 156 357 156 q 578 183 531 156 q 626 263 626 211 q 601 322 626 297 q 535 361 575 346 q 425 397 494 376 q 258 456 322 428 q 147 542 193 485 q 100 689 100 599 q 150 848 100 779 q 292 954 200 917 q 506 992 383 992 q 697 967 608 992 q 839 899 786 942 q 874 826 874 872 q 851 765 874 792 q 794 739 829 739 q 736 758 765 739 q 631 805 693 786 q 501 824 568 824 z "},"Ŝ":{"ha":904,"x_min":35,"x_max":874,"o":"m 432 -12 q 232 10 322 -12 q 83 71 142 33 q 47 110 60 88 q 35 157 35 133 q 56 217 35 192 q 110 242 76 242 q 165 225 138 242 q 285 175 214 194 q 440 156 357 156 q 578 183 531 156 q 626 263 626 211 q 601 322 626 297 q 535 361 575 346 q 425 397 494 376 q 258 456 322 428 q 147 542 193 485 q 100 689 100 599 q 150 848 100 779 q 292 954 200 917 q 506 992 383 992 q 697 967 608 992 q 839 899 786 942 q 874 826 874 872 q 851 765 874 792 q 794 739 829 739 q 736 758 765 739 q 631 805 693 786 q 501 824 568 824 q 365 793 414 824 q 315 708 315 763 q 342 646 315 671 q 410 605 369 621 q 524 568 451 589 q 688 510 624 539 q 797 428 751 482 q 842 286 842 374 q 734 66 842 144 q 432 -12 626 -12 m 451 1090 q 386 1057 422 1057 q 347 1070 363 1057 q 331 1104 331 1083 q 351 1150 331 1125 l 451 1257 q 532 1288 482 1288 q 607 1257 582 1288 l 689 1150 q 704 1113 704 1131 q 685 1073 704 1089 q 639 1057 665 1057 q 581 1092 601 1057 l 528 1181 l 451 1090 z "},"Ș":{"ha":904,"x_min":35,"x_max":874,"o":"m 432 -12 q 232 10 322 -12 q 83 71 142 33 q 47 110 60 88 q 35 157 35 133 q 56 217 35 192 q 110 242 76 242 q 165 225 138 242 q 285 175 214 194 q 440 156 357 156 q 578 183 531 156 q 626 263 626 211 q 601 322 626 297 q 535 361 575 346 q 425 397 494 376 q 258 456 322 428 q 147 542 193 485 q 100 689 100 599 q 150 848 100 779 q 292 954 200 917 q 506 992 383 992 q 697 967 608 992 q 839 899 786 942 q 874 826 874 872 q 851 765 874 792 q 794 739 829 739 q 736 758 765 739 q 631 805 693 786 q 501 824 568 824 q 365 793 414 824 q 315 708 315 763 q 342 646 315 671 q 410 605 369 621 q 524 568 451 589 q 688 510 624 539 q 797 428 751 482 q 842 286 842 374 q 734 66 842 144 q 432 -12 626 -12 m 406 -83 q 490 -114 460 -83 q 519 -193 519 -144 q 502 -282 519 -240 q 457 -353 485 -324 q 400 -379 432 -379 q 369 -370 382 -379 q 356 -346 356 -361 q 368 -315 356 -332 q 401 -257 392 -283 l 394 -257 q 331 -237 357 -257 q 306 -178 306 -217 q 335 -110 306 -137 q 406 -83 365 -83 z "},"Ṡ":{"ha":904,"x_min":35,"x_max":874,"o":"m 432 -12 q 232 10 322 -12 q 83 71 142 33 q 47 110 60 88 q 35 157 35 133 q 56 217 35 192 q 110 242 76 242 q 165 225 138 242 q 285 175 214 194 q 440 156 357 156 q 578 183 531 156 q 626 263 626 211 q 601 322 626 297 q 535 361 575 346 q 425 397 494 376 q 258 456 322 428 q 147 542 193 485 q 100 689 100 599 q 150 848 100 779 q 292 954 200 917 q 506 992 383 992 q 697 967 608 992 q 839 899 786 942 q 874 826 874 872 q 851 765 874 792 q 794 739 829 739 q 736 758 765 739 q 631 805 693 786 q 501 824 568 824 q 365 793 414 824 q 315 708 315 763 q 342 646 315 671 q 410 605 369 621 q 524 568 451 589 q 688 510 624 539 q 797 428 751 482 q 842 286 842 374 q 734 66 842 144 q 432 -12 626 -12 m 524 1067 q 436 1095 468 1067 q 404 1172 404 1124 q 436 1249 404 1221 q 524 1276 468 1276 q 610 1248 578 1276 q 643 1172 643 1219 q 611 1095 643 1124 q 524 1067 579 1067 z "},"Ṣ":{"ha":904,"x_min":35,"x_max":874,"o":"m 432 -12 q 232 10 322 -12 q 83 71 142 33 q 47 110 60 88 q 35 157 35 133 q 56 217 35 192 q 110 242 76 242 q 165 225 138 242 q 285 175 214 194 q 440 156 357 156 q 578 183 531 156 q 626 263 626 211 q 601 322 626 297 q 535 361 575 346 q 425 397 494 376 q 258 456 322 428 q 147 542 193 485 q 100 689 100 599 q 150 848 100 779 q 292 954 200 917 q 506 992 383 992 q 697 967 608 992 q 839 899 786 942 q 874 826 874 872 q 851 765 874 792 q 794 739 829 739 q 736 758 765 739 q 631 805 693 786 q 501 824 568 824 q 365 793 414 824 q 315 708 315 763 q 342 646 315 671 q 410 605 369 621 q 524 568 451 589 q 688 510 624 539 q 797 428 751 482 q 842 286 842 374 q 734 66 842 144 q 432 -12 626 -12 m 408 -283 q 334 -256 363 -283 q 306 -183 306 -228 q 334 -112 306 -139 q 408 -86 363 -86 q 483 -112 454 -86 q 511 -183 511 -139 q 483 -256 511 -228 q 408 -283 454 -283 z "},"Ṩ":{"ha":904,"x_min":35,"x_max":874,"o":"m 432 -12 q 232 10 322 -12 q 83 71 142 33 q 47 110 60 88 q 35 157 35 133 q 56 217 35 192 q 110 242 76 242 q 165 225 138 242 q 285 175 214 194 q 440 156 357 156 q 578 183 531 156 q 626 263 626 211 q 601 322 626 297 q 535 361 575 346 q 425 397 494 376 q 258 456 322 428 q 147 542 193 485 q 100 689 100 599 q 150 848 100 779 q 292 954 200 917 q 506 992 383 992 q 697 967 608 992 q 839 899 786 942 q 874 826 874 872 q 851 765 874 792 q 794 739 829 739 q 736 758 765 739 q 631 805 693 786 q 501 824 568 824 q 365 793 414 824 q 315 708 315 763 q 342 646 315 671 q 410 605 369 621 q 524 568 451 589 q 688 510 624 539 q 797 428 751 482 q 842 286 842 374 q 734 66 842 144 q 432 -12 626 -12 m 408 -283 q 334 -256 363 -283 q 306 -183 306 -228 q 334 -112 306 -139 q 408 -86 363 -86 q 483 -112 454 -86 q 511 -183 511 -139 q 483 -256 511 -228 q 408 -283 454 -283 m 524 1067 q 436 1095 468 1067 q 404 1172 404 1124 q 436 1249 404 1221 q 524 1276 468 1276 q 610 1248 578 1276 q 643 1172 643 1219 q 611 1095 643 1124 q 524 1067 579 1067 z "},"ẞ":{"ha":986,"x_min":75,"x_max":932,"o":"m 747 510 q 883 430 835 489 q 932 281 932 371 q 890 133 932 199 q 772 29 847 67 q 601 -8 697 -8 q 383 51 465 -8 q 354 85 364 65 q 344 125 344 104 q 366 181 344 157 q 422 206 388 206 q 476 192 449 206 q 539 163 514 172 q 597 153 564 153 q 693 187 660 153 q 726 285 726 221 q 685 381 726 351 q 550 411 644 411 l 475 411 q 416 433 436 411 q 396 488 396 456 q 421 551 396 524 q 489 579 446 579 l 551 579 q 652 612 617 579 q 688 706 688 644 q 647 790 688 758 q 538 821 606 821 q 333 635 349 821 l 292 97 q 256 19 288 49 q 176 -10 224 -10 q 101 19 128 -10 q 79 97 75 49 l 121 628 q 246 895 135 801 q 549 989 357 989 q 731 956 654 989 q 850 864 808 924 q 892 726 892 804 q 856 594 892 650 q 747 510 819 539 z "},"Ə":{"ha":1065,"x_min":79,"x_max":1008,"o":"m 547 992 q 793 933 689 992 q 953 767 897 874 q 1008 522 1008 661 q 949 240 1008 361 q 780 53 889 119 q 528 -12 671 -12 q 280 46 381 -12 q 129 203 179 104 q 79 425 79 301 q 82 486 79 444 q 110 553 85 529 q 175 578 135 578 l 790 578 q 708 758 776 696 q 525 819 640 819 q 296 757 400 819 q 226 735 256 735 q 179 755 196 735 q 163 804 163 775 q 174 853 163 829 q 208 894 186 878 q 360 967 272 943 q 547 992 449 992 m 526 156 q 696 224 629 156 q 785 413 763 292 l 290 413 q 351 222 288 288 q 526 156 414 156 z "},"T":{"ha":864,"x_min":42,"x_max":913,"o":"m 406 -7 q 329 22 357 -7 q 306 100 301 51 l 361 803 l 136 803 q 66 824 90 803 q 42 883 42 844 q 69 956 42 933 q 150 979 96 979 l 817 979 q 913 897 913 979 q 886 826 913 849 q 804 803 860 803 l 579 803 l 522 99 q 486 22 518 50 q 406 -7 454 -7 z "},"Ŧ":{"ha":864,"x_min":42,"x_max":913,"o":"m 817 979 q 913 897 913 979 q 886 826 913 849 q 804 803 860 803 l 579 803 l 561 576 l 672 576 q 738 556 714 576 q 761 499 761 535 q 734 434 761 456 q 658 413 707 413 l 547 413 l 522 99 q 486 22 518 50 q 406 -7 454 -7 q 329 22 357 -7 q 306 100 301 51 l 331 413 l 218 413 q 151 433 175 413 q 128 490 128 454 q 155 555 128 533 q 231 576 182 576 l 343 576 l 361 803 l 136 803 q 66 824 90 803 q 42 883 42 844 q 69 956 42 933 q 150 979 96 979 l 817 979 z "},"Ť":{"ha":864,"x_min":42,"x_max":913,"o":"m 406 -7 q 329 22 357 -7 q 306 100 301 51 l 361 803 l 136 803 q 66 824 90 803 q 42 883 42 844 q 69 956 42 933 q 150 979 96 979 l 817 979 q 913 897 913 979 q 886 826 913 849 q 804 803 860 803 l 579 803 l 522 99 q 486 22 518 50 q 406 -7 454 -7 m 568 1251 q 633 1285 597 1285 q 673 1272 657 1285 q 689 1238 689 1258 q 668 1192 689 1214 l 568 1085 q 533 1061 554 1069 q 489 1053 511 1053 q 445 1061 465 1053 q 413 1085 425 1069 l 331 1192 q 315 1229 315 1211 q 335 1268 315 1251 q 379 1285 354 1285 q 439 1249 417 1285 l 492 1160 l 568 1251 z "},"Ţ":{"ha":864,"x_min":42,"x_max":913,"o":"m 817 979 q 913 897 913 979 q 886 826 913 849 q 804 803 860 803 l 579 803 l 522 99 q 500 37 519 63 q 449 0 481 11 l 436 -56 l 446 -56 q 530 -81 499 -56 q 561 -150 561 -107 q 510 -240 561 -206 q 375 -274 458 -274 q 272 -261 317 -274 q 250 -246 257 -257 q 243 -221 243 -235 q 256 -185 243 -200 q 289 -176 269 -171 q 365 -187 329 -187 q 432 -151 432 -187 q 393 -125 432 -125 q 361 -129 378 -125 q 339 -133 344 -133 q 318 -125 325 -133 q 314 -104 311 -117 l 339 14 q 306 100 301 43 l 361 803 l 136 803 q 66 824 90 803 q 42 883 42 844 q 69 956 42 933 q 150 979 96 979 l 817 979 z "},"Ț":{"ha":864,"x_min":42,"x_max":913,"o":"m 406 -7 q 329 22 357 -7 q 306 100 301 51 l 361 803 l 136 803 q 66 824 90 803 q 42 883 42 844 q 69 956 42 933 q 150 979 96 979 l 817 979 q 913 897 913 979 q 886 826 913 849 q 804 803 860 803 l 579 803 l 522 99 q 486 22 518 50 q 406 -7 454 -7 m 388 -83 q 472 -114 442 -83 q 501 -193 501 -144 q 484 -282 501 -240 q 439 -353 467 -324 q 382 -379 414 -379 q 351 -370 364 -379 q 338 -346 338 -361 q 350 -315 338 -332 q 383 -257 374 -283 l 376 -257 q 313 -237 339 -257 q 288 -178 288 -217 q 317 -110 288 -137 q 388 -83 347 -83 z "},"Ṭ":{"ha":864,"x_min":42,"x_max":913,"o":"m 406 -7 q 329 22 357 -7 q 306 100 301 51 l 361 803 l 136 803 q 66 824 90 803 q 42 883 42 844 q 69 956 42 933 q 150 979 96 979 l 817 979 q 913 897 913 979 q 886 826 913 849 q 804 803 860 803 l 579 803 l 522 99 q 486 22 518 50 q 406 -7 454 -7 m 390 -283 q 316 -256 344 -283 q 288 -183 288 -228 q 316 -112 288 -139 q 390 -86 344 -86 q 465 -112 436 -86 q 493 -183 493 -139 q 465 -256 493 -228 q 390 -283 436 -283 z "},"Ṯ":{"ha":864,"x_min":42,"x_max":913,"o":"m 406 -7 q 329 22 357 -7 q 306 100 301 51 l 361 803 l 136 803 q 66 824 90 803 q 42 883 42 844 q 69 956 42 933 q 150 979 96 979 l 817 979 q 913 897 913 979 q 886 826 913 849 q 804 803 860 803 l 579 803 l 522 99 q 486 22 518 50 q 406 -7 454 -7 m 218 -246 q 171 -230 189 -246 q 153 -187 153 -214 q 174 -140 153 -157 q 228 -124 196 -124 l 564 -124 q 610 -140 592 -124 q 628 -181 628 -156 q 608 -229 628 -212 q 554 -246 588 -246 l 218 -246 z "},"U":{"ha":1026,"x_min":94,"x_max":981,"o":"m 506 -12 q 198 81 301 -12 q 94 360 94 175 q 97 417 94 378 l 133 881 q 169 958 138 929 q 249 986 200 986 q 324 957 297 986 q 346 879 350 928 l 310 411 q 308 368 308 396 q 360 208 308 261 q 517 156 411 156 q 663 209 610 156 q 725 383 717 263 l 764 881 q 799 958 768 929 q 878 986 831 986 q 953 957 926 986 q 976 879 981 928 l 939 399 q 813 91 922 194 q 506 -12 704 -12 z "},"Ú":{"ha":1026,"x_min":94,"x_max":976,"o":"m 506 -12 q 198 81 301 -12 q 94 360 94 175 q 97 417 94 378 l 133 881 q 169 958 138 929 q 249 986 200 986 q 324 957 297 986 q 346 879 350 928 l 310 411 q 308 368 308 396 q 360 208 308 261 q 517 156 411 156 q 663 209 610 156 q 725 383 717 263 l 764 881 q 799 958 768 929 q 878 986 831 986 q 953 957 926 986 q 976 879 981 928 l 939 399 q 813 91 922 194 q 506 -12 704 -12 m 644 1076 q 599 1057 624 1057 q 563 1070 578 1057 q 549 1103 549 1083 q 561 1138 549 1119 l 642 1254 q 701 1288 665 1288 q 751 1267 729 1288 q 774 1219 774 1246 q 749 1169 774 1193 l 644 1076 z "},"Ŭ":{"ha":1026,"x_min":94,"x_max":976,"o":"m 506 -12 q 198 81 301 -12 q 94 360 94 175 q 97 417 94 378 l 133 881 q 169 958 138 929 q 249 986 200 986 q 324 957 297 986 q 346 879 350 928 l 310 411 q 308 368 308 396 q 360 208 308 261 q 517 156 411 156 q 663 209 610 156 q 725 383 717 263 l 764 881 q 799 958 768 929 q 878 986 831 986 q 953 957 926 986 q 976 879 981 928 l 939 399 q 813 91 922 194 q 506 -12 704 -12 m 579 1075 q 444 1103 501 1075 q 357 1181 388 1131 q 346 1215 346 1197 q 363 1252 346 1238 q 401 1267 379 1267 q 451 1244 429 1267 q 583 1199 500 1199 q 656 1210 621 1199 q 715 1244 692 1222 q 769 1267 742 1267 q 804 1254 790 1267 q 818 1222 818 1242 q 803 1181 818 1201 q 710 1103 767 1132 q 579 1075 653 1075 z "},"Û":{"ha":1026,"x_min":94,"x_max":976,"o":"m 506 -12 q 198 81 301 -12 q 94 360 94 175 q 97 417 94 378 l 133 881 q 169 958 138 929 q 249 986 200 986 q 324 957 297 986 q 346 879 350 928 l 310 411 q 308 368 308 396 q 360 208 308 261 q 517 156 411 156 q 663 209 610 156 q 725 383 717 263 l 764 881 q 799 958 768 929 q 878 986 831 986 q 953 957 926 986 q 976 879 981 928 l 939 399 q 813 91 922 194 q 506 -12 704 -12 m 507 1090 q 442 1057 478 1057 q 402 1070 418 1057 q 386 1104 386 1083 q 407 1150 386 1125 l 507 1257 q 588 1288 538 1288 q 663 1257 638 1288 l 744 1150 q 760 1113 760 1131 q 740 1073 760 1089 q 694 1057 721 1057 q 636 1092 657 1057 l 583 1181 l 507 1090 z "},"Ȕ":{"ha":1026,"x_min":94,"x_max":976,"o":"m 506 -12 q 198 81 301 -12 q 94 360 94 175 q 97 417 94 378 l 133 881 q 169 958 138 929 q 249 986 200 986 q 324 957 297 986 q 346 879 350 928 l 310 411 q 308 368 308 396 q 360 208 308 261 q 517 156 411 156 q 663 209 610 156 q 725 383 717 263 l 764 881 q 799 958 768 929 q 878 986 831 986 q 953 957 926 986 q 976 879 981 928 l 939 399 q 813 91 922 194 q 506 -12 704 -12 m 347 1197 q 338 1232 338 1215 q 355 1272 338 1256 q 396 1288 372 1288 q 428 1277 414 1288 q 451 1244 443 1267 l 497 1124 q 501 1103 501 1114 q 488 1070 501 1083 q 456 1057 474 1057 q 414 1083 431 1057 l 347 1197 m 540 1197 q 529 1232 529 1217 q 547 1271 529 1256 q 588 1286 565 1286 q 620 1276 606 1286 q 643 1244 635 1265 l 690 1124 q 694 1104 694 1114 q 681 1070 694 1083 q 649 1057 667 1057 q 607 1083 621 1057 l 540 1197 z "},"Ü":{"ha":1026,"x_min":94,"x_max":976,"o":"m 506 -12 q 198 81 301 -12 q 94 360 94 175 q 97 417 94 378 l 133 881 q 169 958 138 929 q 249 986 200 986 q 324 957 297 986 q 346 879 350 928 l 310 411 q 308 368 308 396 q 360 208 308 261 q 517 156 411 156 q 663 209 610 156 q 725 383 717 263 l 764 881 q 799 958 768 929 q 878 986 831 986 q 953 957 926 986 q 976 879 981 928 l 939 399 q 813 91 922 194 q 506 -12 704 -12 m 447 1074 q 372 1101 401 1074 q 343 1172 343 1128 q 372 1243 343 1217 q 447 1269 401 1269 q 522 1243 493 1269 q 551 1172 551 1217 q 523 1101 551 1128 q 447 1074 494 1074 m 711 1074 q 637 1101 665 1074 q 608 1172 608 1128 q 637 1243 608 1217 q 711 1269 665 1269 q 786 1243 757 1269 q 815 1172 815 1217 q 786 1101 815 1128 q 711 1074 757 1074 z "},"Ụ":{"ha":1026,"x_min":94,"x_max":976,"o":"m 506 -12 q 198 81 301 -12 q 94 360 94 175 q 97 417 94 378 l 133 881 q 169 958 138 929 q 249 986 200 986 q 324 957 297 986 q 346 879 350 928 l 310 411 q 308 368 308 396 q 360 208 308 261 q 517 156 411 156 q 663 209 610 156 q 725 383 717 263 l 764 881 q 799 958 768 929 q 878 986 831 986 q 953 957 926 986 q 976 879 981 928 l 939 399 q 813 91 922 194 q 506 -12 704 -12 m 471 -283 q 397 -256 425 -283 q 368 -183 368 -228 q 397 -112 368 -139 q 471 -86 425 -86 q 545 -112 517 -86 q 574 -183 574 -139 q 545 -256 574 -228 q 471 -283 517 -283 z "},"Ù":{"ha":1026,"x_min":94,"x_max":976,"o":"m 506 -12 q 198 81 301 -12 q 94 360 94 175 q 97 417 94 378 l 133 881 q 169 958 138 929 q 249 986 200 986 q 324 957 297 986 q 346 879 350 928 l 310 411 q 308 368 308 396 q 360 208 308 261 q 517 156 411 156 q 663 209 610 156 q 725 383 717 263 l 764 881 q 799 958 768 929 q 878 986 831 986 q 953 957 926 986 q 976 879 981 928 l 939 399 q 813 91 922 194 q 506 -12 704 -12 m 407 1178 q 388 1222 388 1199 q 410 1268 388 1249 q 461 1288 432 1288 q 521 1251 500 1288 l 590 1131 q 597 1104 597 1118 q 581 1069 597 1083 q 544 1056 565 1056 q 497 1078 518 1056 l 407 1178 z "},"Ủ":{"ha":1026,"x_min":94,"x_max":976,"o":"m 506 -12 q 198 81 301 -12 q 94 360 94 175 q 97 417 94 378 l 133 881 q 169 958 138 929 q 249 986 200 986 q 324 957 297 986 q 346 879 350 928 l 310 411 q 308 368 308 396 q 360 208 308 261 q 517 156 411 156 q 663 209 610 156 q 725 383 717 263 l 764 881 q 799 958 768 929 q 878 986 831 986 q 953 957 926 986 q 976 879 981 928 l 939 399 q 813 91 922 194 q 506 -12 704 -12 m 625 1086 q 606 1063 619 1071 q 574 1056 592 1056 q 538 1065 553 1056 q 522 1093 522 1075 q 539 1133 522 1119 q 585 1158 556 1147 q 610 1171 601 1165 q 618 1183 618 1176 q 578 1203 618 1203 q 504 1192 551 1203 q 475 1200 486 1189 q 464 1228 464 1211 q 471 1252 464 1242 q 492 1268 478 1263 q 603 1285 536 1285 q 708 1261 669 1285 q 747 1201 747 1238 q 729 1157 747 1172 q 678 1126 711 1142 q 642 1107 654 1115 q 625 1086 629 1099 z "},"Ư":{"ha":1026,"x_min":94,"x_max":1150,"o":"m 1150 1107 q 1103 961 1150 1024 q 978 883 1056 899 l 939 399 q 813 91 922 194 q 506 -12 704 -12 q 198 81 301 -12 q 94 360 94 175 q 97 417 94 378 l 133 881 q 169 958 138 929 q 249 986 200 986 q 324 957 297 986 q 346 879 350 928 l 310 394 q 308 361 308 383 q 517 156 308 156 q 666 211 617 156 q 725 383 715 267 l 764 879 q 798 956 768 926 q 874 988 828 986 q 937 1013 917 989 q 969 1107 957 1038 q 1068 1192 986 1192 q 1129 1169 1108 1192 q 1150 1107 1150 1147 z "},"Ứ":{"ha":1026,"x_min":94,"x_max":1150,"o":"m 1150 1107 q 1103 961 1150 1024 q 978 883 1056 899 l 939 399 q 813 91 922 194 q 506 -12 704 -12 q 198 81 301 -12 q 94 360 94 175 q 97 417 94 378 l 133 881 q 169 958 138 929 q 249 986 200 986 q 324 957 297 986 q 346 879 350 928 l 310 394 q 308 361 308 383 q 517 156 308 156 q 666 211 617 156 q 725 383 715 267 l 764 879 q 798 956 768 926 q 874 988 828 986 q 937 1013 917 989 q 969 1107 957 1038 q 1068 1192 986 1192 q 1129 1169 1108 1192 q 1150 1107 1150 1147 m 644 1076 q 599 1057 624 1057 q 563 1070 578 1057 q 549 1103 549 1083 q 561 1138 549 1119 l 642 1254 q 701 1288 665 1288 q 751 1267 729 1288 q 774 1219 774 1246 q 749 1169 774 1193 l 644 1076 z "},"Ự":{"ha":1026,"x_min":94,"x_max":1150,"o":"m 1150 1107 q 1103 961 1150 1024 q 978 883 1056 899 l 939 399 q 813 91 922 194 q 506 -12 704 -12 q 198 81 301 -12 q 94 360 94 175 q 97 417 94 378 l 133 881 q 169 958 138 929 q 249 986 200 986 q 324 957 297 986 q 346 879 350 928 l 310 394 q 308 361 308 383 q 517 156 308 156 q 666 211 617 156 q 725 383 715 267 l 764 879 q 798 956 768 926 q 874 988 828 986 q 937 1013 917 989 q 969 1107 957 1038 q 1068 1192 986 1192 q 1129 1169 1108 1192 q 1150 1107 1150 1147 m 471 -283 q 397 -256 425 -283 q 368 -183 368 -228 q 397 -112 368 -139 q 471 -86 425 -86 q 545 -112 517 -86 q 574 -183 574 -139 q 545 -256 574 -228 q 471 -283 517 -283 z "},"Ừ":{"ha":1026,"x_min":94,"x_max":1150,"o":"m 1150 1107 q 1103 961 1150 1024 q 978 883 1056 899 l 939 399 q 813 91 922 194 q 506 -12 704 -12 q 198 81 301 -12 q 94 360 94 175 q 97 417 94 378 l 133 881 q 169 958 138 929 q 249 986 200 986 q 324 957 297 986 q 346 879 350 928 l 310 394 q 308 361 308 383 q 517 156 308 156 q 666 211 617 156 q 725 383 715 267 l 764 879 q 798 956 768 926 q 874 988 828 986 q 937 1013 917 989 q 969 1107 957 1038 q 1068 1192 986 1192 q 1129 1169 1108 1192 q 1150 1107 1150 1147 m 407 1178 q 388 1222 388 1199 q 410 1268 388 1249 q 461 1288 432 1288 q 521 1251 500 1288 l 590 1131 q 597 1104 597 1118 q 581 1069 597 1083 q 544 1056 565 1056 q 497 1078 518 1056 l 407 1178 z "},"Ử":{"ha":1026,"x_min":94,"x_max":1150,"o":"m 1150 1107 q 1103 961 1150 1024 q 978 883 1056 899 l 939 399 q 813 91 922 194 q 506 -12 704 -12 q 198 81 301 -12 q 94 360 94 175 q 97 417 94 378 l 133 881 q 169 958 138 929 q 249 986 200 986 q 324 957 297 986 q 346 879 350 928 l 310 394 q 308 361 308 383 q 517 156 308 156 q 666 211 617 156 q 725 383 715 267 l 764 879 q 798 956 768 926 q 874 988 828 986 q 937 1013 917 989 q 969 1107 957 1038 q 1068 1192 986 1192 q 1129 1169 1108 1192 q 1150 1107 1150 1147 m 625 1086 q 606 1063 619 1071 q 574 1056 592 1056 q 538 1065 553 1056 q 522 1093 522 1075 q 539 1133 522 1119 q 585 1158 556 1147 q 610 1171 601 1165 q 618 1183 618 1176 q 578 1203 618 1203 q 504 1192 551 1203 q 475 1200 486 1189 q 464 1228 464 1211 q 471 1252 464 1242 q 492 1268 478 1263 q 603 1285 536 1285 q 708 1261 669 1285 q 747 1201 747 1238 q 729 1157 747 1172 q 678 1126 711 1142 q 642 1107 654 1115 q 625 1086 629 1099 z "},"Ữ":{"ha":1026,"x_min":94,"x_max":1150,"o":"m 1150 1107 q 1103 961 1150 1024 q 978 883 1056 899 l 939 399 q 813 91 922 194 q 506 -12 704 -12 q 198 81 301 -12 q 94 360 94 175 q 97 417 94 378 l 133 881 q 169 958 138 929 q 249 986 200 986 q 324 957 297 986 q 346 879 350 928 l 310 394 q 308 361 308 383 q 517 156 308 156 q 666 211 617 156 q 725 383 715 267 l 764 879 q 798 956 768 926 q 874 988 828 986 q 937 1013 917 989 q 969 1107 957 1038 q 1068 1192 986 1192 q 1129 1169 1108 1192 q 1150 1107 1150 1147 m 676 1074 q 626 1082 651 1074 q 568 1107 601 1090 q 479 1136 510 1136 q 448 1128 460 1136 q 422 1106 436 1121 q 400 1086 408 1092 q 378 1081 392 1081 q 349 1094 358 1081 q 339 1129 339 1107 q 356 1194 339 1161 q 406 1249 374 1228 q 482 1271 439 1271 q 532 1263 507 1271 q 590 1238 557 1254 q 679 1208 649 1208 q 710 1215 699 1208 q 736 1238 721 1222 q 758 1257 750 1251 q 781 1263 767 1263 q 819 1215 819 1263 q 802 1150 819 1183 q 752 1095 785 1117 q 676 1074 719 1074 z "},"Ű":{"ha":1026,"x_min":94,"x_max":976,"o":"m 506 -12 q 198 81 301 -12 q 94 360 94 175 q 97 417 94 378 l 133 881 q 169 958 138 929 q 249 986 200 986 q 324 957 297 986 q 346 879 350 928 l 310 411 q 308 368 308 396 q 360 208 308 261 q 517 156 411 156 q 663 209 610 156 q 725 383 717 263 l 764 881 q 799 958 768 929 q 878 986 831 986 q 953 957 926 986 q 976 879 981 928 l 939 399 q 813 91 922 194 q 506 -12 704 -12 m 531 1081 q 486 1057 511 1057 q 463 1066 472 1057 q 453 1090 453 1075 q 458 1115 453 1104 l 522 1250 q 575 1286 539 1286 q 615 1271 597 1286 q 633 1232 633 1256 q 617 1189 633 1210 l 531 1081 m 724 1081 q 679 1057 704 1057 q 656 1066 665 1057 q 646 1090 646 1075 q 651 1115 646 1104 l 714 1250 q 767 1286 731 1286 q 808 1270 790 1286 q 826 1232 826 1254 q 810 1189 826 1213 l 724 1081 z "},"Ȗ":{"ha":1026,"x_min":94,"x_max":976,"o":"m 506 -12 q 198 81 301 -12 q 94 360 94 175 q 97 417 94 378 l 133 881 q 169 958 138 929 q 249 986 200 986 q 324 957 297 986 q 346 879 350 928 l 310 411 q 308 368 308 396 q 360 208 308 261 q 517 156 411 156 q 663 209 610 156 q 725 383 717 263 l 764 881 q 799 958 768 929 q 878 986 831 986 q 953 957 926 986 q 976 879 981 928 l 939 399 q 813 91 922 194 q 506 -12 704 -12 m 576 1268 q 711 1240 654 1268 q 799 1163 768 1213 q 810 1126 810 1146 q 793 1091 810 1106 q 754 1076 776 1076 q 704 1097 725 1076 q 572 1144 654 1144 q 499 1132 535 1144 q 440 1097 464 1119 q 388 1076 415 1076 q 352 1088 367 1076 q 338 1119 338 1100 q 354 1163 338 1140 q 446 1240 389 1211 q 576 1268 503 1268 z "},"Ū":{"ha":1026,"x_min":94,"x_max":976,"o":"m 506 -12 q 198 81 301 -12 q 94 360 94 175 q 97 417 94 378 l 133 881 q 169 958 138 929 q 249 986 200 986 q 324 957 297 986 q 346 879 350 928 l 310 411 q 308 368 308 396 q 360 208 308 261 q 517 156 411 156 q 663 209 610 156 q 725 383 717 263 l 764 881 q 799 958 768 929 q 878 986 831 986 q 953 957 926 986 q 976 879 981 928 l 939 399 q 813 91 922 194 q 506 -12 704 -12 m 406 1106 q 360 1123 378 1106 q 342 1167 342 1140 q 363 1219 342 1201 q 417 1236 383 1236 l 753 1236 q 799 1219 781 1236 q 817 1172 817 1201 q 796 1122 817 1139 q 742 1106 775 1106 l 406 1106 z "},"Ṻ":{"ha":1026,"x_min":94,"x_max":976,"o":"m 506 -12 q 198 81 301 -12 q 94 360 94 175 q 97 417 94 378 l 133 881 q 169 958 138 929 q 249 986 200 986 q 324 957 297 986 q 346 879 350 928 l 310 411 q 308 368 308 396 q 360 208 308 261 q 517 156 411 156 q 663 209 610 156 q 725 383 717 263 l 764 881 q 799 958 768 929 q 878 986 831 986 q 953 957 926 986 q 976 879 981 928 l 939 399 q 813 91 922 194 q 506 -12 704 -12 m 406 1106 q 360 1123 378 1106 q 342 1167 342 1140 q 363 1219 342 1201 q 417 1236 383 1236 l 753 1236 q 799 1219 781 1236 q 817 1172 817 1201 q 796 1122 817 1139 q 742 1106 775 1106 l 406 1106 m 465 1296 q 390 1323 419 1296 q 361 1394 361 1350 q 390 1465 361 1439 q 465 1492 419 1492 q 540 1465 511 1492 q 569 1394 569 1439 q 541 1323 569 1350 q 465 1296 513 1296 m 729 1296 q 655 1323 683 1296 q 626 1394 626 1350 q 655 1465 626 1439 q 729 1492 683 1492 q 804 1465 775 1492 q 833 1394 833 1439 q 804 1323 833 1350 q 729 1296 775 1296 z "},"Ų":{"ha":1026,"x_min":94,"x_max":981,"o":"m 878 986 q 953 957 926 986 q 976 879 981 928 l 939 399 q 854 136 926 236 q 643 0 782 36 q 551 -94 551 -24 q 572 -147 551 -128 q 625 -165 592 -165 q 686 -153 647 -165 q 700 -150 694 -150 q 724 -162 715 -150 q 733 -192 733 -175 q 726 -219 733 -206 q 704 -242 718 -233 q 589 -274 649 -274 q 462 -233 510 -274 q 414 -126 414 -192 q 465 -11 414 -54 q 188 90 282 -4 q 94 360 94 183 q 97 417 94 378 l 133 881 q 169 958 138 929 q 249 986 200 986 q 324 957 297 986 q 346 879 350 928 l 310 411 q 308 368 308 396 q 360 208 308 261 q 517 156 411 156 q 663 209 610 156 q 725 383 717 263 l 764 881 q 799 958 768 929 q 878 986 831 986 z "},"Ů":{"ha":1026,"x_min":94,"x_max":976,"o":"m 506 -12 q 198 81 301 -12 q 94 360 94 175 q 97 417 94 378 l 133 881 q 169 958 138 929 q 249 986 200 986 q 324 957 297 986 q 346 879 350 928 l 310 411 q 308 368 308 396 q 360 208 308 261 q 517 156 411 156 q 663 209 610 156 q 725 383 717 263 l 764 881 q 799 958 768 929 q 878 986 831 986 q 953 957 926 986 q 976 879 981 928 l 939 399 q 813 91 922 194 q 506 -12 704 -12 m 581 1056 q 473 1099 517 1056 q 429 1204 429 1142 q 473 1311 429 1268 q 581 1354 517 1354 q 688 1311 644 1354 q 732 1204 732 1268 q 688 1099 732 1142 q 581 1056 644 1056 m 581 1142 q 624 1160 607 1142 q 640 1204 640 1178 q 624 1250 640 1232 q 581 1268 607 1268 q 538 1250 554 1268 q 521 1204 521 1232 q 538 1160 521 1178 q 581 1142 554 1142 z "},"Ũ":{"ha":1026,"x_min":94,"x_max":976,"o":"m 506 -12 q 198 81 301 -12 q 94 360 94 175 q 97 417 94 378 l 133 881 q 169 958 138 929 q 249 986 200 986 q 324 957 297 986 q 346 879 350 928 l 310 411 q 308 368 308 396 q 360 208 308 261 q 517 156 411 156 q 663 209 610 156 q 725 383 717 263 l 764 881 q 799 958 768 929 q 878 986 831 986 q 953 957 926 986 q 976 879 981 928 l 939 399 q 813 91 922 194 q 506 -12 704 -12 m 676 1074 q 626 1082 651 1074 q 568 1107 601 1090 q 479 1136 510 1136 q 448 1128 460 1136 q 422 1106 436 1121 q 400 1086 408 1092 q 378 1081 392 1081 q 349 1094 358 1081 q 339 1129 339 1107 q 356 1194 339 1161 q 406 1249 374 1228 q 482 1271 439 1271 q 532 1263 507 1271 q 590 1238 557 1254 q 679 1208 649 1208 q 710 1215 699 1208 q 736 1238 721 1222 q 758 1257 750 1251 q 781 1263 767 1263 q 819 1215 819 1263 q 802 1150 819 1183 q 752 1095 785 1117 q 676 1074 719 1074 z "},"Ṹ":{"ha":1026,"x_min":94,"x_max":976,"o":"m 506 -12 q 198 81 301 -12 q 94 360 94 175 q 97 417 94 378 l 133 881 q 169 958 138 929 q 249 986 200 986 q 324 957 297 986 q 346 879 350 928 l 310 411 q 308 368 308 396 q 360 208 308 261 q 517 156 411 156 q 663 209 610 156 q 725 383 717 263 l 764 881 q 799 958 768 929 q 878 986 831 986 q 953 957 926 986 q 976 879 981 928 l 939 399 q 813 91 922 194 q 506 -12 704 -12 m 676 1074 q 626 1082 651 1074 q 568 1107 601 1090 q 479 1136 510 1136 q 448 1128 460 1136 q 422 1106 436 1121 q 400 1086 408 1092 q 378 1081 392 1081 q 349 1094 358 1081 q 339 1129 339 1107 q 356 1194 339 1161 q 406 1249 374 1228 q 482 1271 439 1271 q 532 1263 507 1271 q 590 1238 557 1254 q 679 1208 649 1208 q 710 1215 699 1208 q 736 1238 721 1222 q 758 1257 750 1251 q 781 1263 767 1263 q 819 1215 819 1263 q 802 1150 819 1183 q 752 1095 785 1117 q 676 1074 719 1074 m 663 1299 q 617 1279 642 1279 q 581 1292 596 1279 q 567 1325 567 1306 q 579 1360 567 1342 l 660 1476 q 719 1510 683 1510 q 769 1489 747 1510 q 792 1442 792 1468 q 767 1392 792 1415 l 663 1299 z "},"V":{"ha":1011,"x_min":69,"x_max":1029,"o":"m 838 929 q 929 988 867 988 q 999 963 969 988 q 1029 899 1029 938 q 1017 850 1029 875 l 596 58 q 546 8 579 26 q 476 -10 513 -10 q 413 8 442 -10 q 371 58 383 25 l 76 850 q 69 885 69 871 q 106 958 69 928 q 186 988 142 988 q 238 973 215 988 q 269 929 260 958 l 503 269 l 838 929 z "},"W":{"ha":1549,"x_min":104,"x_max":1531,"o":"m 1340 921 q 1381 972 1354 954 q 1440 990 1408 990 q 1504 967 1478 990 q 1531 904 1531 944 q 1518 850 1531 882 l 1175 60 q 1128 8 1160 26 q 1061 -10 1097 -10 q 997 8 1025 -10 q 960 60 969 26 l 797 647 l 544 60 q 499 8 531 26 q 432 -11 468 -11 q 368 8 397 -11 q 329 60 339 26 l 110 850 q 104 886 104 867 q 138 960 104 932 q 215 989 172 989 q 273 971 247 989 q 307 919 299 953 l 464 304 l 729 918 q 771 971 743 953 q 831 989 799 989 q 887 970 863 989 q 921 917 911 951 l 1081 296 l 1340 921 z "},"Ẃ":{"ha":1549,"x_min":104,"x_max":1531,"o":"m 1340 921 q 1381 972 1354 954 q 1440 990 1408 990 q 1504 967 1478 990 q 1531 904 1531 944 q 1518 850 1531 882 l 1175 60 q 1128 8 1160 26 q 1061 -10 1097 -10 q 997 8 1025 -10 q 960 60 969 26 l 797 647 l 544 60 q 499 8 531 26 q 432 -11 468 -11 q 368 8 397 -11 q 329 60 339 26 l 110 850 q 104 886 104 867 q 138 960 104 932 q 215 989 172 989 q 273 971 247 989 q 307 919 299 953 l 464 304 l 729 918 q 771 971 743 953 q 831 989 799 989 q 887 970 863 989 q 921 917 911 951 l 1081 296 l 1340 921 m 906 1076 q 860 1057 885 1057 q 824 1070 839 1057 q 810 1103 810 1083 q 822 1138 810 1119 l 903 1254 q 963 1288 926 1288 q 1013 1267 990 1288 q 1035 1219 1035 1246 q 1010 1169 1035 1193 l 906 1076 z "},"Ŵ":{"ha":1549,"x_min":104,"x_max":1531,"o":"m 1340 921 q 1381 972 1354 954 q 1440 990 1408 990 q 1504 967 1478 990 q 1531 904 1531 944 q 1518 850 1531 882 l 1175 60 q 1128 8 1160 26 q 1061 -10 1097 -10 q 997 8 1025 -10 q 960 60 969 26 l 797 647 l 544 60 q 499 8 531 26 q 432 -11 468 -11 q 368 8 397 -11 q 329 60 339 26 l 110 850 q 104 886 104 867 q 138 960 104 932 q 215 989 172 989 q 273 971 247 989 q 307 919 299 953 l 464 304 l 729 918 q 771 971 743 953 q 831 989 799 989 q 887 970 863 989 q 921 917 911 951 l 1081 296 l 1340 921 m 768 1090 q 703 1057 739 1057 q 663 1070 679 1057 q 647 1104 647 1083 q 668 1150 647 1125 l 768 1257 q 849 1288 799 1288 q 924 1257 899 1288 l 1006 1150 q 1021 1113 1021 1131 q 1001 1073 1021 1089 q 956 1057 982 1057 q 897 1092 918 1057 l 844 1181 l 768 1090 z "},"Ẅ":{"ha":1549,"x_min":104,"x_max":1531,"o":"m 1340 921 q 1381 972 1354 954 q 1440 990 1408 990 q 1504 967 1478 990 q 1531 904 1531 944 q 1518 850 1531 882 l 1175 60 q 1128 8 1160 26 q 1061 -10 1097 -10 q 997 8 1025 -10 q 960 60 969 26 l 797 647 l 544 60 q 499 8 531 26 q 432 -11 468 -11 q 368 8 397 -11 q 329 60 339 26 l 110 850 q 104 886 104 867 q 138 960 104 932 q 215 989 172 989 q 273 971 247 989 q 307 919 299 953 l 464 304 l 729 918 q 771 971 743 953 q 831 989 799 989 q 887 970 863 989 q 921 917 911 951 l 1081 296 l 1340 921 m 708 1074 q 633 1101 663 1074 q 604 1172 604 1128 q 633 1243 604 1217 q 708 1269 663 1269 q 783 1243 754 1269 q 813 1172 813 1217 q 784 1101 813 1128 q 708 1074 756 1074 m 972 1074 q 898 1101 926 1074 q 869 1172 869 1128 q 898 1243 869 1217 q 972 1269 926 1269 q 1047 1243 1018 1269 q 1076 1172 1076 1217 q 1047 1101 1076 1128 q 972 1074 1018 1074 z "},"Ẁ":{"ha":1549,"x_min":104,"x_max":1531,"o":"m 1340 921 q 1381 972 1354 954 q 1440 990 1408 990 q 1504 967 1478 990 q 1531 904 1531 944 q 1518 850 1531 882 l 1175 60 q 1128 8 1160 26 q 1061 -10 1097 -10 q 997 8 1025 -10 q 960 60 969 26 l 797 647 l 544 60 q 499 8 531 26 q 432 -11 468 -11 q 368 8 397 -11 q 329 60 339 26 l 110 850 q 104 886 104 867 q 138 960 104 932 q 215 989 172 989 q 273 971 247 989 q 307 919 299 953 l 464 304 l 729 918 q 771 971 743 953 q 831 989 799 989 q 887 970 863 989 q 921 917 911 951 l 1081 296 l 1340 921 m 668 1178 q 649 1222 649 1199 q 671 1268 649 1249 q 722 1288 693 1288 q 782 1251 761 1288 l 851 1131 q 858 1104 858 1118 q 842 1069 858 1083 q 806 1056 826 1056 q 758 1078 779 1056 l 668 1178 z "},"X":{"ha":938,"x_min":28,"x_max":924,"o":"m 757 951 q 831 988 788 988 q 896 960 868 988 q 924 893 924 932 q 896 824 924 857 l 607 494 l 861 156 q 882 97 882 129 q 849 23 882 56 q 774 -10 815 -10 q 706 26 733 -10 l 469 350 l 194 26 q 121 -10 164 -10 q 56 18 83 -10 q 28 85 28 46 q 57 156 28 122 l 356 500 l 121 824 q 101 881 101 849 q 135 955 101 922 q 210 988 168 988 q 278 951 251 988 l 494 650 l 757 951 z "},"Y":{"ha":883,"x_min":57,"x_max":911,"o":"m 739 950 q 817 989 772 989 q 883 960 854 989 q 911 893 911 932 q 883 824 911 857 l 558 442 l 532 99 q 495 19 528 47 q 417 -8 463 -8 q 340 19 368 -8 q 315 100 311 47 l 342 442 l 74 829 q 57 881 57 851 q 90 954 57 922 q 165 986 124 986 q 238 946 211 986 l 461 617 l 739 950 z "},"Ý":{"ha":883,"x_min":57,"x_max":911,"o":"m 739 950 q 817 989 772 989 q 883 960 854 989 q 911 893 911 932 q 883 824 911 857 l 558 442 l 532 99 q 495 19 528 47 q 417 -8 463 -8 q 340 19 368 -8 q 315 100 311 47 l 342 442 l 74 829 q 57 881 57 851 q 90 954 57 922 q 165 986 124 986 q 238 946 211 986 l 461 617 l 739 950 m 574 1076 q 528 1057 553 1057 q 492 1070 507 1057 q 478 1103 478 1083 q 490 1138 478 1119 l 571 1254 q 631 1288 594 1288 q 681 1267 658 1288 q 703 1219 703 1246 q 678 1169 703 1193 l 574 1076 z "},"Ŷ":{"ha":883,"x_min":57,"x_max":911,"o":"m 739 950 q 817 989 772 989 q 883 960 854 989 q 911 893 911 932 q 883 824 911 857 l 558 442 l 532 99 q 495 19 528 47 q 417 -8 463 -8 q 340 19 368 -8 q 315 100 311 47 l 342 442 l 74 829 q 57 881 57 851 q 90 954 57 922 q 165 986 124 986 q 238 946 211 986 l 461 617 l 739 950 m 436 1090 q 371 1057 407 1057 q 331 1070 347 1057 q 315 1104 315 1083 q 336 1150 315 1125 l 436 1257 q 517 1288 467 1288 q 592 1257 567 1288 l 674 1150 q 689 1113 689 1131 q 669 1073 689 1089 q 624 1057 650 1057 q 565 1092 586 1057 l 513 1181 l 436 1090 z "},"Ÿ":{"ha":883,"x_min":57,"x_max":911,"o":"m 739 950 q 817 989 772 989 q 883 960 854 989 q 911 893 911 932 q 883 824 911 857 l 558 442 l 532 99 q 495 19 528 47 q 417 -8 463 -8 q 340 19 368 -8 q 315 100 311 47 l 342 442 l 74 829 q 57 881 57 851 q 90 954 57 922 q 165 986 124 986 q 238 946 211 986 l 461 617 l 739 950 m 376 1074 q 301 1101 331 1074 q 272 1172 272 1128 q 301 1243 272 1217 q 376 1269 331 1269 q 451 1243 422 1269 q 481 1172 481 1217 q 452 1101 481 1128 q 376 1074 424 1074 m 640 1074 q 566 1101 594 1074 q 538 1172 538 1128 q 566 1243 538 1217 q 640 1269 594 1269 q 715 1243 686 1269 q 744 1172 744 1217 q 715 1101 744 1128 q 640 1074 686 1074 z "},"Ẏ":{"ha":883,"x_min":57,"x_max":911,"o":"m 739 950 q 817 989 772 989 q 883 960 854 989 q 911 893 911 932 q 883 824 911 857 l 558 442 l 532 99 q 495 19 528 47 q 417 -8 463 -8 q 340 19 368 -8 q 315 100 311 47 l 342 442 l 74 829 q 57 881 57 851 q 90 954 57 922 q 165 986 124 986 q 238 946 211 986 l 461 617 l 739 950 m 508 1067 q 421 1095 453 1067 q 389 1172 389 1124 q 421 1249 389 1221 q 508 1276 453 1276 q 595 1248 563 1276 q 628 1172 628 1219 q 596 1095 628 1124 q 508 1067 564 1067 z "},"Ỵ":{"ha":883,"x_min":57,"x_max":911,"o":"m 739 950 q 817 989 772 989 q 883 960 854 989 q 911 893 911 932 q 883 824 911 857 l 558 442 l 532 99 q 495 19 528 47 q 417 -8 463 -8 q 340 19 368 -8 q 315 100 311 47 l 342 442 l 74 829 q 57 881 57 851 q 90 954 57 922 q 165 986 124 986 q 238 946 211 986 l 461 617 l 739 950 m 401 -283 q 327 -256 356 -283 q 299 -183 299 -228 q 327 -112 299 -139 q 401 -86 356 -86 q 476 -112 447 -86 q 504 -183 504 -139 q 476 -256 504 -228 q 401 -283 447 -283 z "},"Ỳ":{"ha":883,"x_min":57,"x_max":911,"o":"m 739 950 q 817 989 772 989 q 883 960 854 989 q 911 893 911 932 q 883 824 911 857 l 558 442 l 532 99 q 495 19 528 47 q 417 -8 463 -8 q 340 19 368 -8 q 315 100 311 47 l 342 442 l 74 829 q 57 881 57 851 q 90 954 57 922 q 165 986 124 986 q 238 946 211 986 l 461 617 l 739 950 m 336 1178 q 317 1222 317 1199 q 339 1268 317 1249 q 390 1288 361 1288 q 450 1251 429 1288 l 519 1131 q 526 1104 526 1118 q 510 1069 526 1083 q 474 1056 494 1056 q 426 1078 447 1056 l 336 1178 z "},"Ỷ":{"ha":883,"x_min":57,"x_max":911,"o":"m 739 950 q 817 989 772 989 q 883 960 854 989 q 911 893 911 932 q 883 824 911 857 l 558 442 l 532 99 q 495 19 528 47 q 417 -8 463 -8 q 340 19 368 -8 q 315 100 311 47 l 342 442 l 74 829 q 57 881 57 851 q 90 954 57 922 q 165 986 124 986 q 238 946 211 986 l 461 617 l 739 950 m 554 1086 q 535 1063 549 1071 q 503 1056 521 1056 q 467 1065 482 1056 q 451 1093 451 1075 q 468 1133 451 1119 q 514 1158 485 1147 q 539 1171 531 1165 q 547 1183 547 1176 q 507 1203 547 1203 q 433 1192 481 1203 q 404 1200 415 1189 q 393 1228 393 1211 q 400 1252 393 1242 q 421 1268 407 1263 q 532 1285 465 1285 q 638 1261 599 1285 q 676 1201 676 1238 q 658 1157 676 1172 q 607 1126 640 1142 q 571 1107 583 1115 q 554 1086 558 1099 z "},"Ȳ":{"ha":883,"x_min":57,"x_max":911,"o":"m 739 950 q 817 989 772 989 q 883 960 854 989 q 911 893 911 932 q 883 824 911 857 l 558 442 l 532 99 q 495 19 528 47 q 417 -8 463 -8 q 340 19 368 -8 q 315 100 311 47 l 342 442 l 74 829 q 57 881 57 851 q 90 954 57 922 q 165 986 124 986 q 238 946 211 986 l 461 617 l 739 950 m 335 1106 q 289 1123 307 1106 q 271 1167 271 1140 q 292 1219 271 1201 q 346 1236 313 1236 l 682 1236 q 728 1219 710 1236 q 746 1172 746 1201 q 725 1122 746 1139 q 671 1106 704 1106 l 335 1106 z "},"Ỹ":{"ha":883,"x_min":57,"x_max":911,"o":"m 739 950 q 817 989 772 989 q 883 960 854 989 q 911 893 911 932 q 883 824 911 857 l 558 442 l 532 99 q 495 19 528 47 q 417 -8 463 -8 q 340 19 368 -8 q 315 100 311 47 l 342 442 l 74 829 q 57 881 57 851 q 90 954 57 922 q 165 986 124 986 q 238 946 211 986 l 461 617 l 739 950 m 606 1074 q 556 1082 581 1074 q 497 1107 531 1090 q 408 1136 439 1136 q 377 1128 389 1136 q 351 1106 365 1121 q 329 1086 338 1092 q 307 1081 321 1081 q 278 1094 288 1081 q 268 1129 268 1107 q 285 1194 268 1161 q 335 1249 303 1228 q 411 1271 368 1271 q 461 1263 436 1271 q 519 1238 486 1254 q 608 1208 578 1208 q 639 1215 628 1208 q 665 1238 650 1222 q 688 1257 679 1251 q 710 1263 696 1263 q 749 1215 749 1263 q 731 1150 749 1183 q 681 1095 714 1117 q 606 1074 649 1074 z "},"Z":{"ha":847,"x_min":29,"x_max":844,"o":"m 757 979 q 822 956 799 979 q 844 896 844 932 q 811 811 844 853 l 304 171 l 704 171 q 800 92 800 171 q 774 22 800 43 q 692 0 747 0 l 117 0 q 52 23 75 0 q 29 82 29 46 q 63 168 29 126 l 569 808 l 190 808 q 119 828 143 808 q 94 885 94 847 q 121 957 94 935 q 203 979 147 979 l 757 979 z "},"Ź":{"ha":847,"x_min":29,"x_max":844,"o":"m 757 979 q 822 956 799 979 q 844 896 844 932 q 811 811 844 853 l 304 171 l 704 171 q 800 92 800 171 q 774 22 800 43 q 692 0 747 0 l 117 0 q 52 23 75 0 q 29 82 29 46 q 63 168 29 126 l 569 808 l 190 808 q 119 828 143 808 q 94 885 94 847 q 121 957 94 935 q 203 979 147 979 l 757 979 m 557 1076 q 511 1057 536 1057 q 476 1070 490 1057 q 461 1103 461 1083 q 474 1138 461 1119 l 554 1254 q 614 1288 578 1288 q 664 1267 642 1288 q 686 1219 686 1246 q 661 1169 686 1193 l 557 1076 z "},"Ž":{"ha":847,"x_min":29,"x_max":844,"o":"m 757 979 q 822 956 799 979 q 844 896 844 932 q 811 811 844 853 l 304 171 l 704 171 q 800 92 800 171 q 774 22 800 43 q 692 0 747 0 l 117 0 q 52 23 75 0 q 29 82 29 46 q 63 168 29 126 l 569 808 l 190 808 q 119 828 143 808 q 94 885 94 847 q 121 957 94 935 q 203 979 147 979 l 757 979 m 561 1251 q 626 1285 590 1285 q 666 1272 650 1285 q 682 1238 682 1258 q 661 1192 682 1214 l 561 1085 q 526 1061 547 1069 q 482 1053 504 1053 q 438 1061 458 1053 q 406 1085 418 1069 l 324 1192 q 308 1229 308 1211 q 328 1268 308 1251 q 372 1285 347 1285 q 432 1249 410 1285 l 485 1160 l 561 1251 z "},"Ż":{"ha":847,"x_min":29,"x_max":844,"o":"m 757 979 q 822 956 799 979 q 844 896 844 932 q 811 811 844 853 l 304 171 l 704 171 q 800 92 800 171 q 774 22 800 43 q 692 0 747 0 l 117 0 q 52 23 75 0 q 29 82 29 46 q 63 168 29 126 l 569 808 l 190 808 q 119 828 143 808 q 94 885 94 847 q 121 957 94 935 q 203 979 147 979 l 757 979 m 492 1067 q 404 1095 436 1067 q 372 1172 372 1124 q 404 1249 372 1221 q 492 1276 436 1276 q 578 1248 546 1276 q 611 1172 611 1219 q 579 1095 611 1124 q 492 1067 547 1067 z "},"Ẓ":{"ha":847,"x_min":29,"x_max":844,"o":"m 757 979 q 822 956 799 979 q 844 896 844 932 q 811 811 844 853 l 304 171 l 704 171 q 800 92 800 171 q 774 22 800 43 q 692 0 747 0 l 117 0 q 52 23 75 0 q 29 82 29 46 q 63 168 29 126 l 569 808 l 190 808 q 119 828 143 808 q 94 885 94 847 q 121 957 94 935 q 203 979 147 979 l 757 979 m 379 -283 q 305 -256 333 -283 q 276 -183 276 -228 q 305 -112 276 -139 q 379 -86 333 -86 q 453 -112 425 -86 q 482 -183 482 -139 q 453 -256 482 -228 q 379 -283 425 -283 z "},"a":{"ha":758,"x_min":43,"x_max":688,"o":"m 396 699 q 688 436 688 699 q 686 393 688 408 l 661 89 q 631 17 658 42 q 556 -8 603 -8 q 485 19 511 -8 q 464 89 460 46 l 464 93 q 390 16 438 43 q 281 -11 343 -11 q 160 15 214 -11 q 74 88 106 42 q 43 190 43 133 q 83 316 43 269 q 208 384 122 363 q 438 406 293 406 l 488 406 l 489 424 q 464 513 493 483 q 371 542 435 542 q 199 497 299 542 q 158 488 178 488 q 108 508 128 488 q 89 557 89 528 q 101 600 89 579 q 140 636 114 621 q 257 682 190 665 q 396 699 324 699 m 339 133 q 434 174 396 133 q 478 281 472 215 l 479 304 l 442 304 q 291 284 335 304 q 247 213 247 264 q 272 155 247 176 q 339 133 297 133 z "},"á":{"ha":758,"x_min":43,"x_max":688,"o":"m 396 699 q 688 436 688 699 q 686 393 688 408 l 661 89 q 631 17 658 42 q 556 -8 603 -8 q 485 19 511 -8 q 464 89 460 46 l 464 93 q 390 16 438 43 q 281 -11 343 -11 q 160 15 214 -11 q 74 88 106 42 q 43 190 43 133 q 83 316 43 269 q 208 384 122 363 q 438 406 293 406 l 488 406 l 489 424 q 464 513 493 483 q 371 542 435 542 q 199 497 299 542 q 158 488 178 488 q 108 508 128 488 q 89 557 89 528 q 101 600 89 579 q 140 636 114 621 q 257 682 190 665 q 396 699 324 699 m 339 133 q 434 174 396 133 q 478 281 472 215 l 479 304 l 442 304 q 291 284 335 304 q 247 213 247 264 q 272 155 247 176 q 339 133 297 133 m 501 794 q 442 765 476 765 q 406 778 421 765 q 392 813 392 792 q 401 847 392 829 l 490 1014 q 565 1063 518 1063 q 624 1041 599 1063 q 649 988 649 1019 q 622 928 649 958 l 501 794 z "},"ă":{"ha":758,"x_min":43,"x_max":688,"o":"m 396 699 q 688 436 688 699 q 686 393 688 408 l 661 89 q 631 17 658 42 q 556 -8 603 -8 q 485 19 511 -8 q 464 89 460 46 l 464 93 q 390 16 438 43 q 281 -11 343 -11 q 160 15 214 -11 q 74 88 106 42 q 43 190 43 133 q 83 316 43 269 q 208 384 122 363 q 438 406 293 406 l 488 406 l 489 424 q 464 513 493 483 q 371 542 435 542 q 199 497 299 542 q 158 488 178 488 q 108 508 128 488 q 89 557 89 528 q 101 600 89 579 q 140 636 114 621 q 257 682 190 665 q 396 699 324 699 m 339 133 q 434 174 396 133 q 478 281 472 215 l 479 304 l 442 304 q 291 284 335 304 q 247 213 247 264 q 272 155 247 176 q 339 133 297 133 m 432 801 q 287 844 349 801 q 196 958 225 888 q 190 982 190 975 q 209 1022 190 1006 q 251 1039 228 1039 q 303 1010 285 1039 q 359 954 322 975 q 440 933 396 933 q 578 1010 525 933 q 632 1040 600 1040 q 670 1025 654 1040 q 686 986 686 1010 q 681 958 686 971 q 582 844 649 888 q 432 801 515 801 z "},"ắ":{"ha":758,"x_min":43,"x_max":688,"o":"m 396 699 q 688 436 688 699 q 686 393 688 408 l 661 89 q 631 17 658 42 q 556 -8 603 -8 q 485 19 511 -8 q 464 89 460 46 l 464 93 q 390 16 438 43 q 281 -11 343 -11 q 160 15 214 -11 q 74 88 106 42 q 43 190 43 133 q 83 316 43 269 q 208 384 122 363 q 438 406 293 406 l 488 406 l 489 424 q 464 513 493 483 q 371 542 435 542 q 199 497 299 542 q 158 488 178 488 q 108 508 128 488 q 89 557 89 528 q 101 600 89 579 q 140 636 114 621 q 257 682 190 665 q 396 699 324 699 m 339 133 q 434 174 396 133 q 478 281 472 215 l 479 304 l 442 304 q 291 284 335 304 q 247 213 247 264 q 272 155 247 176 q 339 133 297 133 m 496 924 q 461 911 482 911 q 429 924 443 911 q 415 953 415 936 q 425 981 415 967 l 508 1097 q 561 1128 531 1128 q 608 1108 588 1128 q 629 1063 629 1089 q 604 1017 629 1038 l 496 924 m 431 764 q 293 792 350 764 q 207 869 236 821 q 197 901 197 885 q 210 935 197 921 q 242 949 224 949 q 276 932 261 949 q 343 886 301 903 q 439 869 385 869 q 523 885 483 869 q 592 932 563 901 q 631 951 611 951 q 658 940 647 951 q 669 910 669 928 q 654 869 669 889 q 561 793 619 822 q 431 764 503 764 z "},"ặ":{"ha":758,"x_min":43,"x_max":688,"o":"m 396 699 q 688 436 688 699 q 686 393 688 408 l 661 89 q 631 17 658 42 q 556 -8 603 -8 q 485 19 511 -8 q 464 89 460 46 l 464 93 q 390 16 438 43 q 281 -11 343 -11 q 160 15 214 -11 q 74 88 106 42 q 43 190 43 133 q 83 316 43 269 q 208 384 122 363 q 438 406 293 406 l 488 406 l 489 424 q 464 513 493 483 q 371 542 435 542 q 199 497 299 542 q 158 488 178 488 q 108 508 128 488 q 89 557 89 528 q 101 600 89 579 q 140 636 114 621 q 257 682 190 665 q 396 699 324 699 m 339 133 q 434 174 396 133 q 478 281 472 215 l 479 304 l 442 304 q 291 284 335 304 q 247 213 247 264 q 272 155 247 176 q 339 133 297 133 m 340 -283 q 266 -256 294 -283 q 238 -183 238 -228 q 266 -112 238 -139 q 340 -86 294 -86 q 415 -112 386 -86 q 443 -183 443 -139 q 415 -256 443 -228 q 340 -283 386 -283 m 432 801 q 287 844 349 801 q 196 958 225 888 q 190 982 190 975 q 209 1022 190 1006 q 251 1039 228 1039 q 303 1010 285 1039 q 359 954 322 975 q 440 933 396 933 q 578 1010 525 933 q 632 1040 600 1040 q 670 1025 654 1040 q 686 986 686 1010 q 681 958 686 971 q 582 844 649 888 q 432 801 515 801 z "},"ằ":{"ha":758,"x_min":43,"x_max":688,"o":"m 396 699 q 688 436 688 699 q 686 393 688 408 l 661 89 q 631 17 658 42 q 556 -8 603 -8 q 485 19 511 -8 q 464 89 460 46 l 464 93 q 390 16 438 43 q 281 -11 343 -11 q 160 15 214 -11 q 74 88 106 42 q 43 190 43 133 q 83 316 43 269 q 208 384 122 363 q 438 406 293 406 l 488 406 l 489 424 q 464 513 493 483 q 371 542 435 542 q 199 497 299 542 q 158 488 178 488 q 108 508 128 488 q 89 557 89 528 q 101 600 89 579 q 140 636 114 621 q 257 682 190 665 q 396 699 324 699 m 339 133 q 434 174 396 133 q 478 281 472 215 l 479 304 l 442 304 q 291 284 335 304 q 247 213 247 264 q 272 155 247 176 q 339 133 297 133 m 276 1021 q 257 1063 257 1039 q 278 1106 257 1088 q 325 1125 300 1125 q 376 1096 357 1125 l 451 979 q 458 956 458 969 q 444 924 458 938 q 411 910 431 910 q 376 925 392 910 l 276 1021 m 431 764 q 293 792 350 764 q 207 869 236 821 q 197 901 197 885 q 210 935 197 921 q 242 949 224 949 q 276 932 261 949 q 343 886 301 903 q 439 869 385 869 q 523 885 483 869 q 592 932 563 901 q 631 951 611 951 q 658 940 647 951 q 669 910 669 928 q 654 869 669 889 q 561 793 619 822 q 431 764 503 764 z "},"ẳ":{"ha":758,"x_min":43,"x_max":688,"o":"m 396 699 q 688 436 688 699 q 686 393 688 408 l 661 89 q 631 17 658 42 q 556 -8 603 -8 q 485 19 511 -8 q 464 89 460 46 l 464 93 q 390 16 438 43 q 281 -11 343 -11 q 160 15 214 -11 q 74 88 106 42 q 43 190 43 133 q 83 316 43 269 q 208 384 122 363 q 438 406 293 406 l 488 406 l 489 424 q 464 513 493 483 q 371 542 435 542 q 199 497 299 542 q 158 488 178 488 q 108 508 128 488 q 89 557 89 528 q 101 600 89 579 q 140 636 114 621 q 257 682 190 665 q 396 699 324 699 m 339 133 q 434 174 396 133 q 478 281 472 215 l 479 304 l 442 304 q 291 284 335 304 q 247 213 247 264 q 272 155 247 176 q 339 133 297 133 m 488 936 q 469 919 483 925 q 436 913 454 913 q 400 922 415 913 q 386 950 385 932 q 406 988 389 975 q 453 1014 424 1001 q 481 1032 481 1024 q 472 1041 481 1039 q 442 1043 464 1043 q 404 1040 429 1043 q 367 1038 379 1038 q 337 1048 349 1038 q 325 1072 325 1058 q 353 1106 325 1096 q 468 1122 399 1122 q 572 1101 533 1122 q 610 1044 610 1079 q 592 1001 610 1015 q 539 972 574 986 q 503 956 515 963 q 488 936 492 949 m 431 764 q 293 792 350 764 q 207 869 236 821 q 197 901 197 885 q 210 935 197 921 q 242 949 224 949 q 276 932 261 949 q 343 886 301 903 q 439 869 385 869 q 523 885 483 869 q 592 932 563 901 q 631 951 611 951 q 658 940 647 951 q 669 910 669 928 q 654 869 669 889 q 561 793 619 822 q 431 764 503 764 z "},"ẵ":{"ha":758,"x_min":43,"x_max":688,"o":"m 396 699 q 688 436 688 699 q 686 393 688 408 l 661 89 q 631 17 658 42 q 556 -8 603 -8 q 485 19 511 -8 q 464 89 460 46 l 464 93 q 390 16 438 43 q 281 -11 343 -11 q 160 15 214 -11 q 74 88 106 42 q 43 190 43 133 q 83 316 43 269 q 208 384 122 363 q 438 406 293 406 l 488 406 l 489 424 q 464 513 493 483 q 371 542 435 542 q 199 497 299 542 q 158 488 178 488 q 108 508 128 488 q 89 557 89 528 q 101 600 89 579 q 140 636 114 621 q 257 682 190 665 q 396 699 324 699 m 339 133 q 434 174 396 133 q 478 281 472 215 l 479 304 l 442 304 q 291 284 335 304 q 247 213 247 264 q 272 155 247 176 q 339 133 297 133 m 543 972 q 472 983 510 972 q 425 997 433 994 q 339 1018 365 1018 q 315 1013 324 1018 q 290 996 306 1007 q 269 978 279 985 q 243 972 258 972 q 204 1015 204 972 q 224 1060 204 1035 q 276 1104 243 1086 q 346 1122 308 1122 q 417 1111 379 1122 q 464 1097 456 1100 q 550 1076 524 1076 q 575 1082 565 1076 q 597 1099 585 1088 q 619 1115 610 1110 q 644 1121 629 1121 q 685 1079 685 1121 q 665 1034 685 1060 q 613 990 646 1008 q 543 972 581 972 m 431 764 q 293 792 350 764 q 207 869 236 821 q 197 903 197 885 q 210 937 197 922 q 240 951 222 951 q 276 932 261 951 q 342 886 300 903 q 439 869 385 869 q 523 885 483 869 q 592 932 563 901 q 631 951 611 951 q 658 940 647 951 q 669 910 669 928 q 654 869 669 889 q 561 793 619 822 q 431 764 503 764 z "},"ǎ":{"ha":758,"x_min":43,"x_max":688,"o":"m 396 699 q 688 436 688 699 q 686 393 688 408 l 661 89 q 631 17 658 42 q 556 -8 603 -8 q 485 19 511 -8 q 464 89 460 46 l 464 93 q 390 16 438 43 q 281 -11 343 -11 q 160 15 214 -11 q 74 88 106 42 q 43 190 43 133 q 83 316 43 269 q 208 384 122 363 q 438 406 293 406 l 488 406 l 489 424 q 464 513 493 483 q 371 542 435 542 q 199 497 299 542 q 158 488 178 488 q 108 508 128 488 q 89 557 89 528 q 101 600 89 579 q 140 636 114 621 q 257 682 190 665 q 396 699 324 699 m 339 133 q 434 174 396 133 q 478 281 472 215 l 479 304 l 442 304 q 291 284 335 304 q 247 213 247 264 q 272 155 247 176 q 339 133 297 133 m 501 1018 q 532 1051 514 1040 q 569 1061 550 1061 q 615 1044 596 1061 q 635 1001 635 1026 q 619 958 635 979 l 514 813 q 471 776 496 789 q 421 763 446 763 q 372 776 394 763 q 336 813 349 789 l 249 968 q 239 1001 239 986 q 260 1043 239 1026 q 308 1060 281 1060 q 349 1048 329 1060 q 379 1013 368 1036 l 432 894 l 501 1018 z "},"â":{"ha":758,"x_min":43,"x_max":688,"o":"m 396 699 q 688 436 688 699 q 686 393 688 408 l 661 89 q 631 17 658 42 q 556 -8 603 -8 q 485 19 511 -8 q 464 89 460 46 l 464 93 q 390 16 438 43 q 281 -11 343 -11 q 160 15 214 -11 q 74 88 106 42 q 43 190 43 133 q 83 316 43 269 q 208 384 122 363 q 438 406 293 406 l 488 406 l 489 424 q 464 513 493 483 q 371 542 435 542 q 199 497 299 542 q 158 488 178 488 q 108 508 128 488 q 89 557 89 528 q 101 600 89 579 q 140 636 114 621 q 257 682 190 665 q 396 699 324 699 m 339 133 q 434 174 396 133 q 478 281 472 215 l 479 304 l 442 304 q 291 284 335 304 q 247 213 247 264 q 272 155 247 176 q 339 133 297 133 m 365 807 q 335 774 353 785 q 299 764 318 764 q 252 781 272 764 q 232 824 232 799 q 247 867 232 846 l 353 1013 q 396 1049 371 1036 q 446 1063 421 1063 q 495 1049 472 1063 q 531 1013 518 1036 l 618 857 q 628 824 628 839 q 607 782 628 799 q 560 765 586 765 q 518 777 538 765 q 488 814 499 789 l 435 932 l 365 807 z "},"ấ":{"ha":758,"x_min":43,"x_max":794,"o":"m 396 699 q 688 436 688 699 q 686 393 688 408 l 661 89 q 631 17 658 42 q 556 -8 603 -8 q 485 19 511 -8 q 464 89 460 46 l 464 93 q 390 16 438 43 q 281 -11 343 -11 q 160 15 214 -11 q 74 88 106 42 q 43 190 43 133 q 83 316 43 269 q 208 384 122 363 q 438 406 293 406 l 488 406 l 489 424 q 464 513 493 483 q 371 542 435 542 q 199 497 299 542 q 158 488 178 488 q 108 508 128 488 q 89 557 89 528 q 101 600 89 579 q 140 636 114 621 q 257 682 190 665 q 396 699 324 699 m 339 133 q 434 174 396 133 q 478 281 472 215 l 479 304 l 442 304 q 291 284 335 304 q 247 213 247 264 q 272 155 247 176 q 339 133 297 133 m 661 924 q 626 911 647 911 q 594 924 607 911 q 581 954 581 936 q 590 981 581 969 l 674 1097 q 726 1128 696 1128 q 774 1108 753 1128 q 794 1063 794 1089 q 769 1017 794 1038 l 661 924 m 347 783 q 303 764 328 764 q 267 780 282 764 q 251 817 251 796 q 274 863 251 842 l 363 944 q 440 976 397 976 q 511 944 483 976 l 593 853 q 608 817 608 836 q 590 778 608 794 q 546 761 571 761 q 499 786 518 761 l 433 869 l 347 783 z "},"ậ":{"ha":758,"x_min":43,"x_max":688,"o":"m 396 699 q 688 436 688 699 q 686 393 688 408 l 661 89 q 631 17 658 42 q 556 -8 603 -8 q 485 19 511 -8 q 464 89 460 46 l 464 93 q 390 16 438 43 q 281 -11 343 -11 q 160 15 214 -11 q 74 88 106 42 q 43 190 43 133 q 83 316 43 269 q 208 384 122 363 q 438 406 293 406 l 488 406 l 489 424 q 464 513 493 483 q 371 542 435 542 q 199 497 299 542 q 158 488 178 488 q 108 508 128 488 q 89 557 89 528 q 101 600 89 579 q 140 636 114 621 q 257 682 190 665 q 396 699 324 699 m 339 133 q 434 174 396 133 q 478 281 472 215 l 479 304 l 442 304 q 291 284 335 304 q 247 213 247 264 q 272 155 247 176 q 339 133 297 133 m 340 -283 q 266 -256 294 -283 q 238 -183 238 -228 q 266 -112 238 -139 q 340 -86 294 -86 q 415 -112 386 -86 q 443 -183 443 -139 q 415 -256 443 -228 q 340 -283 386 -283 m 365 807 q 335 774 353 785 q 299 764 318 764 q 252 781 272 764 q 232 824 232 799 q 247 867 232 846 l 353 1013 q 396 1049 371 1036 q 446 1063 421 1063 q 495 1049 472 1063 q 531 1013 518 1036 l 618 857 q 628 824 628 839 q 607 782 628 799 q 560 765 586 765 q 518 777 538 765 q 488 814 499 789 l 435 932 l 365 807 z "},"ầ":{"ha":758,"x_min":43,"x_max":701,"o":"m 396 699 q 688 436 688 699 q 686 393 688 408 l 661 89 q 631 17 658 42 q 556 -8 603 -8 q 485 19 511 -8 q 464 89 460 46 l 464 93 q 390 16 438 43 q 281 -11 343 -11 q 160 15 214 -11 q 74 88 106 42 q 43 190 43 133 q 83 316 43 269 q 208 384 122 363 q 438 406 293 406 l 488 406 l 489 424 q 464 513 493 483 q 371 542 435 542 q 199 497 299 542 q 158 488 178 488 q 108 508 128 488 q 89 557 89 528 q 101 600 89 579 q 140 636 114 621 q 257 682 190 665 q 396 699 324 699 m 339 133 q 434 174 396 133 q 478 281 472 215 l 479 304 l 442 304 q 291 284 335 304 q 247 213 247 264 q 272 155 247 176 q 339 133 297 133 m 533 1032 q 521 1064 521 1049 q 544 1108 521 1089 q 594 1126 567 1126 q 646 1092 631 1126 l 697 974 q 701 954 701 964 q 688 922 701 936 q 654 908 674 908 q 617 928 632 908 l 533 1032 m 347 783 q 303 764 328 764 q 267 780 282 764 q 251 817 251 796 q 274 863 251 842 l 363 944 q 440 976 397 976 q 511 944 483 976 l 593 853 q 608 817 608 836 q 590 778 608 794 q 546 761 571 761 q 499 786 518 761 l 433 869 l 347 783 z "},"ẩ":{"ha":758,"x_min":43,"x_max":790,"o":"m 396 699 q 688 436 688 699 q 686 393 688 408 l 661 89 q 631 17 658 42 q 556 -8 603 -8 q 485 19 511 -8 q 464 89 460 46 l 464 93 q 390 16 438 43 q 281 -11 343 -11 q 160 15 214 -11 q 74 88 106 42 q 43 190 43 133 q 83 316 43 269 q 208 384 122 363 q 438 406 293 406 l 488 406 l 489 424 q 464 513 493 483 q 371 542 435 542 q 199 497 299 542 q 158 488 178 488 q 108 508 128 488 q 89 557 89 528 q 101 600 89 579 q 140 636 114 621 q 257 682 190 665 q 396 699 324 699 m 339 133 q 434 174 396 133 q 478 281 472 215 l 479 304 l 442 304 q 291 284 335 304 q 247 213 247 264 q 272 155 247 176 q 339 133 297 133 m 669 936 q 651 919 665 925 q 618 913 636 913 q 582 922 597 913 q 567 947 567 931 q 585 988 567 974 q 635 1014 603 1001 q 651 1021 639 1015 q 663 1032 663 1026 q 654 1041 663 1039 q 624 1043 646 1043 q 585 1040 613 1043 q 549 1038 560 1038 q 518 1049 529 1038 q 507 1074 507 1060 q 514 1092 507 1083 q 535 1107 521 1101 q 650 1124 586 1124 q 753 1101 715 1124 q 790 1044 790 1079 q 772 1001 790 1015 q 721 972 754 986 q 685 956 697 963 q 669 936 674 949 m 347 783 q 303 764 328 764 q 267 780 282 764 q 251 817 251 796 q 274 863 251 842 l 363 944 q 440 976 397 976 q 511 944 483 976 l 593 853 q 608 817 608 836 q 590 778 608 794 q 546 761 571 761 q 499 786 518 761 l 433 869 l 347 783 z "},"ẫ":{"ha":758,"x_min":43,"x_max":688,"o":"m 396 699 q 688 436 688 699 q 686 393 688 408 l 661 89 q 631 17 658 42 q 556 -8 603 -8 q 485 19 511 -8 q 464 89 460 46 l 464 93 q 390 16 438 43 q 281 -11 343 -11 q 160 15 214 -11 q 74 88 106 42 q 43 190 43 133 q 83 316 43 269 q 208 384 122 363 q 438 406 293 406 l 488 406 l 489 424 q 464 513 493 483 q 371 542 435 542 q 199 497 299 542 q 158 488 178 488 q 108 508 128 488 q 89 557 89 528 q 101 600 89 579 q 140 636 114 621 q 257 682 190 665 q 396 699 324 699 m 339 133 q 434 174 396 133 q 478 281 472 215 l 479 304 l 442 304 q 291 284 335 304 q 247 213 247 264 q 272 155 247 176 q 339 133 297 133 m 543 983 q 472 994 510 983 q 425 1008 433 1006 q 339 1029 365 1029 q 315 1024 324 1029 q 290 1007 306 1018 q 268 990 278 996 q 243 985 258 985 q 204 1026 204 985 q 224 1072 204 1046 q 276 1115 243 1097 q 346 1133 308 1133 q 417 1122 379 1133 q 464 1108 456 1111 q 550 1088 524 1088 q 576 1094 565 1088 q 597 1111 586 1100 q 619 1128 610 1122 q 644 1133 629 1133 q 685 1090 685 1133 q 665 1045 685 1071 q 613 1001 646 1019 q 543 983 581 983 m 347 783 q 303 764 328 764 q 267 780 282 764 q 251 817 251 796 q 274 863 251 842 l 363 944 q 440 976 397 976 q 511 944 483 976 l 593 853 q 608 817 608 836 q 590 778 608 794 q 546 761 571 761 q 499 786 518 761 l 433 869 l 347 783 z "},"ȁ":{"ha":758,"x_min":43,"x_max":688,"o":"m 396 699 q 688 436 688 699 q 686 393 688 408 l 661 89 q 631 17 658 42 q 556 -8 603 -8 q 485 19 511 -8 q 464 89 460 46 l 464 93 q 390 16 438 43 q 281 -11 343 -11 q 160 15 214 -11 q 74 88 106 42 q 43 190 43 133 q 83 316 43 269 q 208 384 122 363 q 438 406 293 406 l 488 406 l 489 424 q 464 513 493 483 q 371 542 435 542 q 199 497 299 542 q 158 488 178 488 q 108 508 128 488 q 89 557 89 528 q 101 600 89 579 q 140 636 114 621 q 257 682 190 665 q 396 699 324 699 m 339 133 q 434 174 396 133 q 478 281 472 215 l 479 304 l 442 304 q 291 284 335 304 q 247 213 247 264 q 272 155 247 176 q 339 133 297 133 m 221 976 q 217 1001 217 992 q 237 1047 217 1029 q 282 1064 257 1064 q 326 1047 307 1064 q 347 997 346 1029 l 364 811 q 353 772 365 786 q 324 757 342 757 q 296 767 308 757 q 278 794 283 776 l 221 976 m 414 976 q 410 1001 410 992 q 430 1047 410 1029 q 475 1064 450 1064 q 519 1047 500 1064 q 540 997 539 1029 l 557 811 q 547 772 558 786 q 517 757 535 757 q 488 767 501 757 q 469 794 475 776 l 414 976 z "},"ä":{"ha":758,"x_min":43,"x_max":688,"o":"m 396 699 q 688 436 688 699 q 686 393 688 408 l 661 89 q 631 17 658 42 q 556 -8 603 -8 q 485 19 511 -8 q 464 89 460 46 l 464 93 q 390 16 438 43 q 281 -11 343 -11 q 160 15 214 -11 q 74 88 106 42 q 43 190 43 133 q 83 316 43 269 q 208 384 122 363 q 438 406 293 406 l 488 406 l 489 424 q 464 513 493 483 q 371 542 435 542 q 199 497 299 542 q 158 488 178 488 q 108 508 128 488 q 89 557 89 528 q 101 600 89 579 q 140 636 114 621 q 257 682 190 665 q 396 699 324 699 m 339 133 q 434 174 396 133 q 478 281 472 215 l 479 304 l 442 304 q 291 284 335 304 q 247 213 247 264 q 272 155 247 176 q 339 133 297 133 m 301 813 q 226 840 256 813 q 197 913 197 868 q 226 983 197 957 q 301 1010 256 1010 q 376 983 347 1010 q 406 913 406 957 q 377 840 406 868 q 301 813 349 813 m 565 813 q 491 840 519 813 q 463 913 463 868 q 491 983 463 957 q 565 1010 519 1010 q 640 983 611 1010 q 669 913 669 957 q 640 840 669 868 q 565 813 611 813 z "},"ȧ":{"ha":758,"x_min":43,"x_max":688,"o":"m 396 699 q 688 436 688 699 q 686 393 688 408 l 661 89 q 631 17 658 42 q 556 -8 603 -8 q 485 19 511 -8 q 464 89 460 46 l 464 93 q 390 16 438 43 q 281 -11 343 -11 q 160 15 214 -11 q 74 88 106 42 q 43 190 43 133 q 83 316 43 269 q 208 384 122 363 q 438 406 293 406 l 488 406 l 489 424 q 464 513 493 483 q 371 542 435 542 q 199 497 299 542 q 158 488 178 488 q 108 508 128 488 q 89 557 89 528 q 101 600 89 579 q 140 636 114 621 q 257 682 190 665 q 396 699 324 699 m 339 133 q 434 174 396 133 q 478 281 472 215 l 479 304 l 442 304 q 291 284 335 304 q 247 213 247 264 q 272 155 247 176 q 339 133 297 133 m 433 807 q 346 835 378 807 q 314 913 314 864 q 346 989 314 961 q 433 1017 378 1017 q 520 988 488 1017 q 553 913 553 960 q 521 835 553 864 q 433 807 489 807 z "},"ạ":{"ha":758,"x_min":43,"x_max":688,"o":"m 396 699 q 688 436 688 699 q 686 393 688 408 l 661 89 q 631 17 658 42 q 556 -8 603 -8 q 485 19 511 -8 q 464 89 460 46 l 464 93 q 390 16 438 43 q 281 -11 343 -11 q 160 15 214 -11 q 74 88 106 42 q 43 190 43 133 q 83 316 43 269 q 208 384 122 363 q 438 406 293 406 l 488 406 l 489 424 q 464 513 493 483 q 371 542 435 542 q 199 497 299 542 q 158 488 178 488 q 108 508 128 488 q 89 557 89 528 q 101 600 89 579 q 140 636 114 621 q 257 682 190 665 q 396 699 324 699 m 339 133 q 434 174 396 133 q 478 281 472 215 l 479 304 l 442 304 q 291 284 335 304 q 247 213 247 264 q 272 155 247 176 q 339 133 297 133 m 340 -283 q 266 -256 294 -283 q 238 -183 238 -228 q 266 -112 238 -139 q 340 -86 294 -86 q 415 -112 386 -86 q 443 -183 443 -139 q 415 -256 443 -228 q 340 -283 386 -283 z "},"à":{"ha":758,"x_min":43,"x_max":688,"o":"m 396 699 q 688 436 688 699 q 686 393 688 408 l 661 89 q 631 17 658 42 q 556 -8 603 -8 q 485 19 511 -8 q 464 89 460 46 l 464 93 q 390 16 438 43 q 281 -11 343 -11 q 160 15 214 -11 q 74 88 106 42 q 43 190 43 133 q 83 316 43 269 q 208 384 122 363 q 438 406 293 406 l 488 406 l 489 424 q 464 513 493 483 q 371 542 435 542 q 199 497 299 542 q 158 488 178 488 q 108 508 128 488 q 89 557 89 528 q 101 600 89 579 q 140 636 114 621 q 257 682 190 665 q 396 699 324 699 m 339 133 q 434 174 396 133 q 478 281 472 215 l 479 304 l 442 304 q 291 284 335 304 q 247 213 247 264 q 272 155 247 176 q 339 133 297 133 m 251 936 q 232 990 232 964 q 256 1043 232 1022 q 313 1064 281 1064 q 358 1050 338 1064 q 389 1007 378 1036 l 453 844 q 458 817 458 832 q 442 779 458 793 q 403 765 425 765 q 343 799 365 765 l 251 936 z "},"ả":{"ha":758,"x_min":43,"x_max":688,"o":"m 396 699 q 688 436 688 699 q 686 393 688 408 l 661 89 q 631 17 658 42 q 556 -8 603 -8 q 485 19 511 -8 q 464 89 460 46 l 464 93 q 390 16 438 43 q 281 -11 343 -11 q 160 15 214 -11 q 74 88 106 42 q 43 190 43 133 q 83 316 43 269 q 208 384 122 363 q 438 406 293 406 l 488 406 l 489 424 q 464 513 493 483 q 371 542 435 542 q 199 497 299 542 q 158 488 178 488 q 108 508 128 488 q 89 557 89 528 q 101 600 89 579 q 140 636 114 621 q 257 682 190 665 q 396 699 324 699 m 339 133 q 434 174 396 133 q 478 281 472 215 l 479 304 l 442 304 q 291 284 335 304 q 247 213 247 264 q 272 155 247 176 q 339 133 297 133 m 479 803 q 462 771 478 782 q 425 760 446 760 q 390 772 404 760 q 375 804 375 783 q 390 853 375 833 q 431 893 404 872 q 457 918 449 908 q 465 940 465 928 q 425 967 465 967 q 367 958 403 967 q 333 965 346 953 q 321 996 321 976 q 330 1024 321 1011 q 356 1043 339 1038 q 451 1058 401 1058 q 564 1031 525 1058 q 603 961 603 1003 q 584 903 603 925 q 529 857 565 882 q 492 828 503 839 q 479 803 481 818 z "},"ȃ":{"ha":758,"x_min":43,"x_max":688,"o":"m 396 699 q 688 436 688 699 q 686 393 688 408 l 661 89 q 631 17 658 42 q 556 -8 603 -8 q 485 19 511 -8 q 464 89 460 46 l 464 93 q 390 16 438 43 q 281 -11 343 -11 q 160 15 214 -11 q 74 88 106 42 q 43 190 43 133 q 83 316 43 269 q 208 384 122 363 q 438 406 293 406 l 488 406 l 489 424 q 464 513 493 483 q 371 542 435 542 q 199 497 299 542 q 158 488 178 488 q 108 508 128 488 q 89 557 89 528 q 101 600 89 579 q 140 636 114 621 q 257 682 190 665 q 396 699 324 699 m 339 133 q 434 174 396 133 q 478 281 472 215 l 479 304 l 442 304 q 291 284 335 304 q 247 213 247 264 q 272 155 247 176 q 339 133 297 133 m 435 1039 q 580 996 518 1039 q 671 882 642 953 q 676 858 676 865 q 658 818 676 835 q 615 801 639 801 q 564 831 582 801 q 508 886 544 865 q 426 907 471 907 q 289 831 342 907 q 235 800 267 800 q 197 815 213 800 q 181 854 181 831 q 186 882 181 869 q 285 996 218 953 q 435 1039 351 1039 z "},"ā":{"ha":758,"x_min":43,"x_max":688,"o":"m 396 699 q 688 436 688 699 q 686 393 688 408 l 661 89 q 631 17 658 42 q 556 -8 603 -8 q 485 19 511 -8 q 464 89 460 46 l 464 93 q 390 16 438 43 q 281 -11 343 -11 q 160 15 214 -11 q 74 88 106 42 q 43 190 43 133 q 83 316 43 269 q 208 384 122 363 q 438 406 293 406 l 488 406 l 489 424 q 464 513 493 483 q 371 542 435 542 q 199 497 299 542 q 158 488 178 488 q 108 508 128 488 q 89 557 89 528 q 101 600 89 579 q 140 636 114 621 q 257 682 190 665 q 396 699 324 699 m 339 133 q 434 174 396 133 q 478 281 472 215 l 479 304 l 442 304 q 291 284 335 304 q 247 213 247 264 q 272 155 247 176 q 339 133 297 133 m 260 846 q 213 863 231 846 q 196 908 196 879 q 217 959 196 942 q 271 976 238 976 l 607 976 q 653 960 635 976 q 671 917 671 943 q 650 864 671 882 q 596 846 629 846 l 260 846 z "},"ą":{"ha":758,"x_min":43,"x_max":700,"o":"m 653 -153 q 665 -151 657 -151 q 690 -163 681 -151 q 700 -192 700 -175 q 693 -220 700 -207 q 671 -242 686 -233 q 557 -274 615 -274 q 430 -233 478 -274 q 382 -126 382 -193 q 408 -39 382 -79 q 481 26 433 1 q 464 89 463 51 l 464 92 q 389 15 438 42 q 275 -11 340 -11 q 156 15 210 -11 q 73 88 103 42 q 43 190 43 133 q 83 315 43 268 q 208 384 122 363 q 438 406 294 406 l 488 406 l 489 424 q 464 513 493 483 q 371 542 435 542 q 199 497 293 542 q 158 488 178 488 q 108 508 128 488 q 89 557 89 528 q 101 600 89 579 q 140 636 114 621 q 258 682 192 665 q 396 699 325 699 q 688 436 688 699 q 686 393 688 408 l 661 89 q 607 3 660 26 q 518 -94 518 -36 q 538 -146 518 -126 q 593 -165 558 -165 q 653 -153 608 -165 m 339 133 q 434 174 396 133 q 478 281 472 215 l 479 304 l 442 304 q 291 283 335 304 q 247 208 247 261 q 272 154 247 175 q 339 133 297 133 z "},"å":{"ha":758,"x_min":43,"x_max":688,"o":"m 396 699 q 688 436 688 699 q 686 393 688 408 l 661 89 q 631 17 658 42 q 556 -8 603 -8 q 485 19 511 -8 q 464 89 460 46 l 464 93 q 390 16 438 43 q 281 -11 343 -11 q 160 15 214 -11 q 74 88 106 42 q 43 190 43 133 q 83 316 43 269 q 208 384 122 363 q 438 406 293 406 l 488 406 l 489 424 q 464 513 493 483 q 371 542 435 542 q 199 497 299 542 q 158 488 178 488 q 108 508 128 488 q 89 557 89 528 q 101 600 89 579 q 140 636 114 621 q 257 682 190 665 q 396 699 324 699 m 339 133 q 434 174 396 133 q 478 281 472 215 l 479 304 l 442 304 q 291 284 335 304 q 247 213 247 264 q 272 155 247 176 q 339 133 297 133 m 433 764 q 326 807 369 764 q 282 914 282 850 q 326 1019 282 976 q 433 1063 369 1063 q 541 1019 497 1063 q 585 914 585 976 q 541 807 585 850 q 433 764 497 764 m 433 850 q 476 868 460 850 q 493 914 493 886 q 476 958 493 940 q 433 976 460 976 q 390 958 407 976 q 374 914 374 940 q 390 868 374 886 q 433 850 407 850 z "},"ǻ":{"ha":758,"x_min":43,"x_max":761,"o":"m 617 1161 q 685 1193 649 1193 q 738 1170 715 1193 q 761 1117 761 1147 q 707 1043 761 1071 l 571 976 q 585 914 585 944 q 540 808 585 851 q 433 764 496 764 q 325 807 369 764 q 281 914 281 850 q 325 1019 281 976 q 433 1063 369 1063 q 501 1047 468 1063 l 617 1161 m 433 850 q 476 868 460 850 q 493 914 493 886 q 476 958 493 940 q 433 976 460 976 q 390 958 407 976 q 372 914 372 940 q 390 868 372 886 q 433 850 407 850 m 396 699 q 688 436 688 699 q 686 393 688 408 l 661 89 q 630 17 658 43 q 556 -8 601 -8 q 485 19 511 -8 q 464 89 460 46 l 464 92 q 390 15 438 42 q 281 -11 343 -11 q 160 15 214 -11 q 74 88 106 42 q 43 190 43 133 q 83 315 43 268 q 208 384 122 363 q 438 406 294 406 l 488 406 l 489 424 q 464 513 493 483 q 371 542 435 542 q 199 497 299 542 q 158 488 178 488 q 108 508 128 488 q 89 557 89 528 q 101 600 89 579 q 140 636 114 621 q 257 682 190 665 q 396 699 324 699 m 339 133 q 434 174 396 133 q 478 281 472 215 l 479 304 l 442 304 q 290 283 333 304 q 247 213 247 263 q 272 155 247 176 q 339 133 297 133 z "},"ã":{"ha":758,"x_min":43,"x_max":688,"o":"m 396 699 q 688 436 688 699 q 686 393 688 408 l 661 89 q 631 17 658 42 q 556 -8 603 -8 q 485 19 511 -8 q 464 89 460 46 l 464 93 q 390 16 438 43 q 281 -11 343 -11 q 160 15 214 -11 q 74 88 106 42 q 43 190 43 133 q 83 316 43 269 q 208 384 122 363 q 438 406 293 406 l 488 406 l 489 424 q 464 513 493 483 q 371 542 435 542 q 199 497 299 542 q 158 488 178 488 q 108 508 128 488 q 89 557 89 528 q 101 600 89 579 q 140 636 114 621 q 257 682 190 665 q 396 699 324 699 m 339 133 q 434 174 396 133 q 478 281 472 215 l 479 304 l 442 304 q 291 284 335 304 q 247 213 247 264 q 272 155 247 176 q 339 133 297 133 m 529 811 q 472 822 497 811 q 413 854 446 833 q 369 878 383 871 q 338 885 354 885 q 305 875 318 885 q 276 846 292 865 q 253 821 264 829 q 228 813 243 813 q 201 827 210 813 q 192 867 192 842 q 212 937 192 901 q 265 996 232 972 q 336 1019 299 1019 q 394 1008 368 1019 q 453 976 419 997 q 497 952 481 960 q 531 944 514 944 q 563 954 550 944 q 589 983 575 964 q 613 1008 603 1000 q 639 1017 624 1017 q 675 963 675 1017 q 655 892 675 928 q 601 834 635 857 q 529 811 567 811 z "},"æ":{"ha":1163,"x_min":43,"x_max":1119,"o":"m 1119 365 q 1103 318 1119 335 q 1058 301 1086 301 l 681 301 q 729 185 686 224 q 847 146 772 146 q 920 156 888 146 q 992 186 953 165 q 1031 196 1011 196 q 1073 175 1057 196 q 1089 125 1089 154 q 1078 80 1089 101 q 1046 44 1067 58 q 950 4 1008 19 q 832 -11 892 -11 q 666 24 736 -11 q 556 126 596 60 q 448 24 515 60 q 297 -11 381 -11 q 113 45 183 -11 q 43 190 43 101 q 83 315 43 268 q 208 384 122 363 q 438 406 294 406 l 486 406 l 488 424 q 463 513 492 485 q 368 542 433 542 q 199 497 299 542 q 158 488 178 488 q 108 508 128 488 q 89 557 89 528 q 101 600 89 579 q 140 636 114 621 q 410 699 249 699 q 618 615 554 699 q 715 677 660 656 q 833 699 771 699 q 1042 610 965 699 q 1119 365 1119 522 m 829 554 q 685 406 708 554 l 944 406 q 914 516 944 478 q 829 554 883 554 m 338 133 q 432 174 393 133 q 476 281 471 215 l 478 304 l 442 304 q 290 283 333 304 q 247 208 247 261 q 272 154 247 175 q 338 133 297 133 z "},"ǽ":{"ha":1163,"x_min":43,"x_max":1119,"o":"m 1119 365 q 1103 318 1119 335 q 1058 301 1086 301 l 681 301 q 729 185 686 224 q 847 146 772 146 q 920 156 888 146 q 992 186 953 165 q 1031 196 1011 196 q 1073 175 1057 196 q 1089 125 1089 154 q 1078 80 1089 101 q 1046 44 1067 58 q 950 4 1008 19 q 832 -11 892 -11 q 666 24 736 -11 q 556 126 596 60 q 448 24 515 60 q 297 -11 381 -11 q 113 45 183 -11 q 43 190 43 101 q 83 315 43 268 q 208 384 122 363 q 438 406 294 406 l 486 406 l 488 424 q 463 513 492 485 q 368 542 433 542 q 199 497 299 542 q 158 488 178 488 q 108 508 128 488 q 89 557 89 528 q 101 600 89 579 q 140 636 114 621 q 410 699 249 699 q 618 615 554 699 q 715 677 660 656 q 833 699 771 699 q 1042 610 965 699 q 1119 365 1119 522 m 829 554 q 685 406 708 554 l 944 406 q 914 516 944 478 q 829 554 883 554 m 338 133 q 432 174 393 133 q 476 281 471 215 l 478 304 l 442 304 q 290 283 333 304 q 247 208 247 261 q 272 154 247 175 q 338 133 297 133 m 693 794 q 633 765 668 765 q 598 778 613 765 q 583 813 583 792 q 593 847 583 829 l 682 1014 q 757 1063 710 1063 q 815 1041 790 1063 q 840 988 840 1019 q 814 928 840 958 l 693 794 z "},"b":{"ha":851,"x_min":58,"x_max":806,"o":"m 515 699 q 667 659 601 699 q 769 545 733 619 q 806 371 806 471 q 765 173 806 260 q 649 38 724 86 q 479 -11 575 -11 q 268 96 338 -11 l 268 90 q 235 19 265 46 q 158 -8 206 -8 q 85 19 111 -8 q 61 90 58 46 l 124 890 q 159 960 126 933 q 240 986 192 986 q 311 961 286 986 q 333 894 336 936 l 310 603 q 397 673 343 647 q 515 699 451 699 m 438 147 q 555 203 513 147 q 597 357 597 260 q 558 493 597 446 q 444 540 518 540 q 330 484 372 540 q 288 332 288 428 q 326 194 288 242 q 438 147 365 147 z "},"c":{"ha":686,"x_min":47,"x_max":686,"o":"m 406 -11 q 216 30 297 -11 q 91 147 135 71 q 47 322 47 222 q 93 522 47 438 q 225 653 139 607 q 428 699 311 699 q 552 684 494 699 q 649 646 610 669 q 677 615 668 635 q 686 574 686 596 q 667 515 686 540 q 619 490 649 490 q 585 499 603 490 q 439 538 514 538 q 309 482 356 538 q 263 325 263 426 q 304 197 263 243 q 419 150 346 150 q 491 158 458 150 q 560 186 524 167 q 599 196 579 196 q 641 176 625 196 q 657 126 657 156 q 646 81 657 103 q 613 44 635 58 q 519 4 576 19 q 406 -11 463 -11 z "},"ć":{"ha":686,"x_min":47,"x_max":686,"o":"m 406 -11 q 216 30 297 -11 q 91 147 135 71 q 47 322 47 222 q 93 522 47 438 q 225 653 139 607 q 428 699 311 699 q 552 684 494 699 q 649 646 610 669 q 677 615 668 635 q 686 574 686 596 q 667 515 686 540 q 619 490 649 490 q 585 499 603 490 q 439 538 514 538 q 309 482 356 538 q 263 325 263 426 q 304 197 263 243 q 419 150 346 150 q 491 158 458 150 q 560 186 524 167 q 599 196 579 196 q 641 176 625 196 q 657 126 657 156 q 646 81 657 103 q 613 44 635 58 q 519 4 576 19 q 406 -11 463 -11 m 522 794 q 463 765 497 765 q 427 778 442 765 q 413 813 413 792 q 422 847 413 829 l 511 1014 q 586 1063 539 1063 q 644 1041 619 1063 q 669 988 669 1019 q 643 928 669 958 l 522 794 z "},"č":{"ha":686,"x_min":47,"x_max":686,"o":"m 406 -11 q 216 30 297 -11 q 91 147 135 71 q 47 322 47 222 q 93 522 47 438 q 225 653 139 607 q 428 699 311 699 q 552 684 494 699 q 649 646 610 669 q 677 615 668 635 q 686 574 686 596 q 667 515 686 540 q 619 490 649 490 q 585 499 603 490 q 439 538 514 538 q 309 482 356 538 q 263 325 263 426 q 304 197 263 243 q 419 150 346 150 q 491 158 458 150 q 560 186 524 167 q 599 196 579 196 q 641 176 625 196 q 657 126 657 156 q 646 81 657 103 q 613 44 635 58 q 519 4 576 19 q 406 -11 463 -11 m 522 1018 q 553 1051 535 1040 q 590 1061 571 1061 q 636 1044 617 1061 q 656 1001 656 1026 q 640 958 656 979 l 535 813 q 492 776 517 789 q 442 763 467 763 q 392 776 415 763 q 357 813 369 789 l 269 968 q 260 1001 260 986 q 281 1043 260 1026 q 329 1060 301 1060 q 369 1048 350 1060 q 400 1013 389 1036 l 453 894 l 522 1018 z "},"ç":{"ha":686,"x_min":47,"x_max":686,"o":"m 439 538 q 309 482 356 538 q 263 325 263 426 q 304 197 263 243 q 419 150 346 150 q 491 158 458 150 q 560 186 524 167 q 599 196 579 196 q 641 176 625 196 q 657 126 657 156 q 646 81 657 103 q 613 44 635 58 q 522 5 578 19 q 410 -11 467 -10 l 400 -56 l 410 -56 q 494 -81 463 -56 q 525 -150 525 -107 q 474 -240 525 -206 q 339 -274 422 -274 q 236 -261 279 -274 q 214 -246 221 -257 q 207 -221 207 -235 q 220 -185 207 -200 q 253 -176 233 -171 q 329 -187 293 -187 q 396 -151 396 -187 q 357 -125 396 -125 q 325 -129 342 -125 q 303 -133 308 -133 q 282 -125 289 -133 q 278 -104 275 -117 l 300 0 q 115 113 182 28 q 47 322 47 197 q 93 522 47 438 q 225 653 139 607 q 428 699 311 699 q 552 684 494 699 q 649 646 610 669 q 677 615 668 635 q 686 574 686 596 q 667 515 686 540 q 619 490 649 490 q 585 499 603 490 q 439 538 514 538 z "}}}
